999
dxfrw 0.5.10
0
SECTION
2
HEADER
9
$ACADVER
1
AC1021
9
$HANDSEED
5
20000
9
$DWGCODEPAGE
3
ANSI_1252
9
$INSBASE
10
0
20
0
30
0
9
$EXTMIN
10
0
20
0
30
0
9
$EXTMAX
10
127
20
70.8835596962
30
0
9
$LIMMIN
10
0
20
0
9
$LIMMAX
10
420
20
297
9
$ORTHOMODE
70
0
9
$LTSCALE
40
1
9
$TEXTSTYLE
7
STANDARD
9
$DIMASZ
40
2.5
9
$DIMSCALE
40
1
9
$DIMEXO
40
0.625
9
$DIMEXE
40
1.25
9
$DIMTXT
40
2.5
9
$DIMTSZ
40
0
9
$DIMAUNIT
70
0
9
$DIMADEC
70
0
9
$DIMLUNIT
70
2
9
$DIMSTYLE
2
STANDARD
9
$DIMGAP
40
0.625
9
$DIMTIH
70
0
9
$LUNITS
70
2
9
$LUPREC
70
4
9
$AUNITS
70
0
9
$AUPREC
70
2
9
$SPLINESEGS
70
8
9
$GRIDMODE
70
1
9
$SNAPSTYLE
70
0
9
$PINSBASE
10
0
20
0
30
0
9
$PLIMMIN
10
0
20
0
9
$PLIMMAX
10
210
20
297
9
$INSUNITS
70
4
9
$PSVPSCALE
40
1
0
ENDSEC
0
SECTION
2
CLASSES
0
ENDSEC
0
SECTION
2
TABLES
0
TABLE
2
VPORT
5
8
330
0
100
AcDbSymbolTable
70
1
0
VPORT
5
31
330
2
100
AcDbSymbolTableRecord
100
AcDbViewportTableRecord
2
*ACTIVE
70
0
10
0
20
0
11
1
21
1
12
79.4540923486
22
40.6783209402
13
0
23
0
14
10
24
10
15
10
25
10
16
0
26
0
36
1
17
0
27
0
37
0
40
92.2283534902
41
2.07662082515
42
50
43
0
44
0
50
0
51
0
71
0
72
100
73
1
74
3
75
0
76
1
77
0
78
0
281
0
65
1
110
0
120
0
130
0
111
1
121
0
131
0
112
0
122
1
132
0
79
0
146
0
348
10020
60
7
61
5
292
1
282
1
141
0
142
0
63
250
421
3358443
0
ENDTAB
0
TABLE
2
LTYPE
5
5
330
0
100
AcDbSymbolTable
70
4
0
LTYPE
5
14
330
5
100
AcDbSymbolTableRecord
100
AcDbLinetypeTableRecord
2
ByBlock
70
0
3

72
65
73
0
40
0
0
LTYPE
5
15
330
5
100
AcDbSymbolTableRecord
100
AcDbLinetypeTableRecord
2
ByLayer
70
0
3

72
65
73
0
40
0
0
LTYPE
5
16
330
5
100
AcDbSymbolTableRecord
100
AcDbLinetypeTableRecord
2
Continuous
70
0
3
Solid line
72
65
73
0
40
0
0
LTYPE
5
32
330
5
100
AcDbSymbolTableRecord
100
AcDbLinetypeTableRecord
2
DOT
70
0
3
Dot . . . . . . . . . . . . . . . . . . . . . .
72
65
73
2
40
6.35
49
0
74
0
49
-6.35
74
0
0
LTYPE
5
33
330
5
100
AcDbSymbolTableRecord
100
AcDbLinetypeTableRecord
2
DOT2
70
0
3
Dot (.5x) .....................................
72
65
73
2
40
3.175
49
0
74
0
49
-3.175
74
0
0
LTYPE
5
34
330
5
100
AcDbSymbolTableRecord
100
AcDbLinetypeTableRecord
2
DOTX2
70
0
3
Dot (2x) .  .  .  .  .  .  .  .  .  .  .  .  .
72
65
73
2
40
12.7
49
0
74
0
49
-12.7
74
0
0
LTYPE
5
35
330
5
100
AcDbSymbolTableRecord
100
AcDbLinetypeTableRecord
2
DASHED
70
0
3
Dot . . . . . . . . . . . . . . . . . . . . . .
72
65
73
2
40
19.05
49
12.7
74
0
49
-6.35
74
0
0
LTYPE
5
36
330
5
100
AcDbSymbolTableRecord
100
AcDbLinetypeTableRecord
2
DASHED2
70
0
3
Dashed (.5x) _ _ _ _ _ _ _ _ _ _ _ _ _ _ _ _ _
72
65
73
2
40
9.525
49
6.35
74
0
49
-3.175
74
0
0
LTYPE
5
37
330
5
100
AcDbSymbolTableRecord
100
AcDbLinetypeTableRecord
2
DASHEDX2
70
0
3
Dashed (2x) ____  ____  ____  ____  ____  ___
72
65
73
2
40
38.1
49
25.4
74
0
49
-12.7
74
0
0
LTYPE
5
38
330
5
100
AcDbSymbolTableRecord
100
AcDbLinetypeTableRecord
2
DASHDOT
70
0
3
Dash dot __ . __ . __ . __ . __ . __ . __ . __
72
65
73
4
40
25.4
49
12.7
74
0
49
-6.35
74
0
49
0
74
0
49
-6.35
74
0
0
LTYPE
5
39
330
5
100
AcDbSymbolTableRecord
100
AcDbLinetypeTableRecord
2
DASHDOT2
70
0
3
Dash dot (.5x) _._._._._._._._._._._._._._._.
72
65
73
4
40
12.7
49
6.35
74
0
49
-3.175
74
0
49
0
74
0
49
-3.175
74
0
0
LTYPE
5
3A
330
5
100
AcDbSymbolTableRecord
100
AcDbLinetypeTableRecord
2
DASHDOTX2
70
0
3
Dash dot (2x) ____  .  ____  .  ____  .  ___
72
65
73
4
40
50.8
49
25.4
74
0
49
-12.7
74
0
49
0
74
0
49
-12.7
74
0
0
LTYPE
5
3B
330
5
100
AcDbSymbolTableRecord
100
AcDbLinetypeTableRecord
2
DIVIDE
70
0
3
Divide ____ . . ____ . . ____ . . ____ . . ____
72
65
73
6
40
31.75
49
12.7
74
0
49
-6.35
74
0
49
0
74
0
49
-6.35
74
0
49
0
74
0
49
-6.35
74
0
0
LTYPE
5
3C
330
5
100
AcDbSymbolTableRecord
100
AcDbLinetypeTableRecord
2
DIVIDE2
70
0
3
Divide (.5x) __..__..__..__..__..__..__..__.._
72
65
73
6
40
15.875
49
6.35
74
0
49
-3.175
74
0
49
0
74
0
49
-3.175
74
0
49
0
74
0
49
-3.175
74
0
0
LTYPE
5
3D
330
5
100
AcDbSymbolTableRecord
100
AcDbLinetypeTableRecord
2
DIVIDEX2
70
0
3
Divide (2x) ________  .  .  ________  .  .  _
72
65
73
6
40
63.5
49
25.4
74
0
49
-12.7
74
0
49
0
74
0
49
-12.7
74
0
49
0
74
0
49
-12.7
74
0
0
LTYPE
5
3E
330
5
100
AcDbSymbolTableRecord
100
AcDbLinetypeTableRecord
2
BORDER
70
0
3
Border __ __ . __ __ . __ __ . __ __ . __ __ .
72
65
73
6
40
44.45
49
12.7
74
0
49
-6.35
74
0
49
12.7
74
0
49
-6.35
74
0
49
0
74
0
49
-6.35
74
0
0
LTYPE
5
3F
330
5
100
AcDbSymbolTableRecord
100
AcDbLinetypeTableRecord
2
BORDER2
70
0
3
Border (.5x) __.__.__.__.__.__.__.__.__.__.__.
72
65
73
6
40
22.225
49
6.35
74
0
49
-3.175
74
0
49
6.35
74
0
49
-3.175
74
0
49
0
74
0
49
-3.175
74
0
0
LTYPE
5
40
330
5
100
AcDbSymbolTableRecord
100
AcDbLinetypeTableRecord
2
BORDERX2
70
0
3
Border (2x) ____  ____  .  ____  ____  .  ___
72
65
73
6
40
88.9
49
25.4
74
0
49
-12.7
74
0
49
25.4
74
0
49
-12.7
74
0
49
0
74
0
49
-12.7
74
0
0
LTYPE
5
41
330
5
100
AcDbSymbolTableRecord
100
AcDbLinetypeTableRecord
2
CENTER
70
0
3
Center ____ _ ____ _ ____ _ ____ _ ____ _ ____
72
65
73
4
40
50.8
49
31.75
74
0
49
-6.35
74
0
49
6.35
74
0
49
-6.35
74
0
0
LTYPE
5
42
330
5
100
AcDbSymbolTableRecord
100
AcDbLinetypeTableRecord
2
CENTER2
70
0
3
Center (.5x) ___ _ ___ _ ___ _ ___ _ ___ _ ___
72
65
73
4
40
28.575
49
19.05
74
0
49
-3.175
74
0
49
3.175
74
0
49
-3.175
74
0
0
LTYPE
5
43
330
5
100
AcDbSymbolTableRecord
100
AcDbLinetypeTableRecord
2
CENTERX2
70
0
3
Center (2x) ________  __  ________  __  _____
72
65
73
4
40
101.6
49
63.5
74
0
49
-12.7
74
0
49
12.7
74
0
49
-12.7
74
0
0
ENDTAB
0
TABLE
2
LAYER
5
2
330
0
100
AcDbSymbolTable
70
1
0
LAYER
5
10
330
2
100
AcDbSymbolTableRecord
100
AcDbLayerTableRecord
2
0
70
0
62
7
6
CONTINUOUS
370
0
390
F
0
LAYER
5
44
330
2
100
AcDbSymbolTableRecord
100
AcDbLayerTableRecord
2
rpi_mounting_holes
70
0
62
1
6
CONTINUOUS
370
0
390
F
0
LAYER
5
45
330
2
100
AcDbSymbolTableRecord
100
AcDbLayerTableRecord
2
rpi_outline
70
0
62
5
6
CONTINUOUS
370
0
390
F
0
LAYER
5
46
330
2
100
AcDbSymbolTableRecord
100
AcDbLayerTableRecord
2
MECHANICAL1
70
0
62
211
6
CONTINUOUS
370
-3
390
F
0
LAYER
5
47
330
2
100
AcDbSymbolTableRecord
100
AcDbLayerTableRecord
2
MULTILAYER
70
0
62
9
6
CONTINUOUS
370
-3
390
F
0
LAYER
5
48
330
2
100
AcDbSymbolTableRecord
100
AcDbLayerTableRecord
2
TOPOVERLAY
70
0
62
222
6
CONTINUOUS
370
-3
390
F
0
LAYER
5
49
330
2
100
AcDbSymbolTableRecord
100
AcDbLayerTableRecord
2
boardmounts
70
0
62
3
6
CONTINUOUS
370
0
390
F
0
LAYER
5
4A
330
2
100
AcDbSymbolTableRecord
100
AcDbLayerTableRecord
2
standoffs
70
0
62
2
6
CONTINUOUS
370
0
390
F
0
LAYER
5
4B
330
2
100
AcDbSymbolTableRecord
100
AcDbLayerTableRecord
2
lcd
70
0
62
5
6
CONTINUOUS
370
0
390
F
0
ENDTAB
0
TABLE
2
STYLE
5
3
330
0
100
AcDbSymbolTable
70
3
0
STYLE
5
4C
330
2
100
AcDbSymbolTableRecord
100
AcDbTextStyleTableRecord
2
Standard
70
0
40
0
41
1
50
0
71
0
42
1
3
txt
4

0
ENDTAB
0
TABLE
2
VIEW
5
6
330
0
100
AcDbSymbolTable
70
0
0
ENDTAB
0
TABLE
2
UCS
5
7
330
0
100
AcDbSymbolTable
70
0
0
ENDTAB
0
TABLE
2
APPID
5
9
330
0
100
AcDbSymbolTable
70
1
0
APPID
5
12
330
9
100
AcDbSymbolTableRecord
100
AcDbRegAppTableRecord
2
ACAD
70
0
0
ENDTAB
0
TABLE
2
DIMSTYLE
5
A
330
0
100
AcDbSymbolTable
70
1
100
AcDbDimStyleTable
71
1
0
DIMSTYLE
105
4D
330
A
100
AcDbSymbolTableRecord
100
AcDbDimStyleTableRecord
2
Standard
70
0
40
1
41
2.5
42
0.625
43
0.38
44
1.25
45
0
46
0
47
0
48
0
140
2.5
141
0.09
142
0
143
25.4
144
1
145
0
146
1
147
0.625
148
0
71
0
72
0
73
0
74
1
75
0
76
0
77
0
78
0
79
0
170
0
171
2
172
0
173
0
174
0
175
0
176
0
177
0
178
0
179
0
271
4
272
4
273
2
274
2
275
0
276
0
277
2
278
46
279
0
280
0
281
0
282
0
283
1
284
0
285
0
286
0
288
0
289
3
340
Standard
341

371
-2
372
-2
0
ENDTAB
0
TABLE
2
BLOCK_RECORD
5
1
330
0
100
AcDbSymbolTable
70
2
0
BLOCK_RECORD
5
1F
330
1
100
AcDbSymbolTableRecord
100
AcDbBlockTableRecord
2
*Model_Space
70
0
280
1
281
0
0
BLOCK_RECORD
5
1E
330
1
100
AcDbSymbolTableRecord
100
AcDbBlockTableRecord
2
*Paper_Space
70
0
280
1
281
0
0
BLOCK_RECORD
5
4E
330
1
100
AcDbSymbolTableRecord
100
AcDbBlockTableRecord
2
ibex_rpi_model_b_v1_00_correct_orientation-0
70
0
280
1
281
0
0
BLOCK_RECORD
5
51
330
1
100
AcDbSymbolTableRecord
100
AcDbBlockTableRecord
2
lcd-1
70
0
280
1
281
0
0
BLOCK_RECORD
5
54
330
1
100
AcDbSymbolTableRecord
100
AcDbBlockTableRecord
2
lcd-2
70
0
280
1
281
0
0
ENDTAB
0
ENDSEC
0
SECTION
2
BLOCKS
0
BLOCK
5
20
330
1F
100
AcDbEntity
8
0
100
AcDbBlockBegin
2
*Model_Space
70
0
10
0
20
0
30
0
3
*Model_Space
1

0
ENDBLK
5
21
330
1F
100
AcDbEntity
8
0
100
AcDbBlockEnd
0
BLOCK
5
1C
330
1B
100
AcDbEntity
8
0
100
AcDbBlockBegin
2
*Paper_Space
70
0
10
0
20
0
30
0
3
*Paper_Space
1

0
ENDBLK
5
1D
330
1F
100
AcDbEntity
8
0
100
AcDbBlockEnd
0
BLOCK
5
4F
330
4E
100
AcDbEntity
8
0
100
AcDbBlockBegin
2
ibex_rpi_model_b_v1_00_correct_orientation-0
70
0
10
0
20
0
3
ibex_rpi_model_b_v1_00_correct_orientation-0
1

0
HATCH
5
57
100
AcDbEntity
8
MULTILAYER
6
CONTINUOUS
62
256
370
-1
100
AcDbHatch
10
0
20
0
30
0
210
0
220
0
230
1
2
SOLID
70
1
71
0
91
1
92
0
93
4
72
1
10
25.361999
20
16.461999
11
25.361999
21
14.937999
72
1
10
25.361999
20
14.937999
11
23.837999
21
14.937999
72
1
10
23.837999
20
14.937999
11
23.837999
21
16.461999
72
1
10
23.837999
20
16.461999
11
25.361999
21
16.461999
97
0
75
0
76
1
98
0
0
HATCH
5
58
100
AcDbEntity
8
MULTILAYER
6
CONTINUOUS
62
256
370
-1
100
AcDbHatch
10
0
20
0
30
0
210
0
220
0
230
1
2
SOLID
70
1
71
0
91
1
92
0
93
4
72
1
10
38.512001
20
55.112
11
38.512001
21
53.588
72
1
10
38.512001
20
53.588
11
36.988001
21
53.588
72
1
10
36.988001
20
53.588
11
36.988001
21
55.112
72
1
10
36.988001
20
55.112
11
38.512001
21
55.112
97
0
75
0
76
1
98
0
0
HATCH
5
59
100
AcDbEntity
8
MULTILAYER
6
CONTINUOUS
62
256
370
-1
100
AcDbHatch
10
0
20
0
30
0
210
0
220
0
230
1
2
SOLID
70
1
71
0
91
1
92
0
93
4
72
1
10
56.426999
20
41.761999
11
56.426999
21
40.237999
72
1
10
56.426999
20
40.237999
11
54.902999
21
40.237999
72
1
10
54.902999
20
40.237999
11
54.902999
21
41.761999
72
1
10
54.902999
20
41.761999
11
56.426999
21
41.761999
97
0
75
0
76
1
98
0
0
HATCH
5
5A
100
AcDbEntity
8
MULTILAYER
6
CONTINUOUS
62
256
370
-1
100
AcDbHatch
10
0
20
0
30
0
210
0
220
0
230
1
2
SOLID
70
1
71
0
91
1
92
0
93
4
72
1
10
56.426999
20
44.301999
11
56.426999
21
42.777999
72
1
10
56.426999
20
42.777999
11
54.902999
21
42.777999
72
1
10
54.902999
20
42.777999
11
54.902999
21
44.301999
72
1
10
54.902999
20
44.301999
11
56.426999
21
44.301999
97
0
75
0
76
1
98
0
0
HATCH
5
5B
100
AcDbEntity
8
MULTILAYER
6
CONTINUOUS
62
256
370
-1
100
AcDbHatch
10
0
20
0
30
0
210
0
220
0
230
1
2
SOLID
70
1
71
0
91
1
92
0
93
4
72
1
10
56.426999
20
29.061999
11
56.426999
21
27.537999
72
1
10
56.426999
20
27.537999
11
54.902999
21
27.537999
72
1
10
54.902999
20
27.537999
11
54.902999
21
29.061999
72
1
10
54.902999
20
29.061999
11
56.426999
21
29.061999
97
0
75
0
76
1
98
0
0
HATCH
5
5C
100
AcDbEntity
8
MULTILAYER
6
CONTINUOUS
62
256
370
-1
100
AcDbHatch
10
0
20
0
30
0
210
0
220
0
230
1
2
SOLID
70
1
71
0
91
1
92
0
93
4
72
1
10
56.426999
20
31.601999
11
56.426999
21
30.077999
72
1
10
56.426999
20
30.077999
11
54.902999
21
30.077999
72
1
10
54.902999
20
30.077999
11
54.902999
21
31.601999
72
1
10
54.902999
20
31.601999
11
56.426999
21
31.601999
97
0
75
0
76
1
98
0
0
HATCH
5
5D
100
AcDbEntity
8
MULTILAYER
6
CONTINUOUS
62
256
370
-1
100
AcDbHatch
10
0
20
0
30
0
210
0
220
0
230
1
2
SOLID
70
1
71
0
91
1
92
0
93
4
72
1
10
56.426999
20
34.141999
11
56.426999
21
32.617999
72
1
10
56.426999
20
32.617999
11
54.902999
21
32.617999
72
1
10
54.902999
20
32.617999
11
54.902999
21
34.141999
72
1
10
54.902999
20
34.141999
11
56.426999
21
34.141999
97
0
75
0
76
1
98
0
0
HATCH
5
5E
100
AcDbEntity
8
MULTILAYER
6
CONTINUOUS
62
256
370
-1
100
AcDbHatch
10
0
20
0
30
0
210
0
220
0
230
1
2
SOLID
70
1
71
0
91
1
92
0
93
4
72
1
10
56.426999
20
36.681999
11
56.426999
21
35.157999
72
1
10
56.426999
20
35.157999
11
54.902999
21
35.157999
72
1
10
54.902999
20
35.157999
11
54.902999
21
36.681999
72
1
10
54.902999
20
36.681999
11
56.426999
21
36.681999
97
0
75
0
76
1
98
0
0
HATCH
5
5F
100
AcDbEntity
8
MULTILAYER
6
CONTINUOUS
62
256
370
-1
100
AcDbHatch
10
0
20
0
30
0
210
0
220
0
230
1
2
SOLID
70
1
71
0
91
1
92
0
93
4
72
1
10
56.426999
20
39.221999
11
56.426999
21
37.697999
72
1
10
56.426999
20
37.697999
11
54.902999
21
37.697999
72
1
10
54.902999
20
37.697999
11
54.902999
21
39.221999
72
1
10
54.902999
20
39.221999
11
56.426999
21
39.221999
97
0
75
0
76
1
98
0
0
HATCH
5
60
100
AcDbEntity
8
MULTILAYER
6
CONTINUOUS
62
256
370
-1
100
AcDbHatch
10
0
20
0
30
0
210
0
220
0
230
1
2
SOLID
70
1
71
0
91
1
92
0
93
4
72
1
10
53.886999
20
41.761999
11
53.886999
21
40.237999
72
1
10
53.886999
20
40.237999
11
52.362999
21
40.237999
72
1
10
52.362999
20
40.237999
11
52.362999
21
41.761999
72
1
10
52.362999
20
41.761999
11
53.886999
21
41.761999
97
0
75
0
76
1
98
0
0
HATCH
5
61
100
AcDbEntity
8
MULTILAYER
6
CONTINUOUS
62
256
370
-1
100
AcDbHatch
10
0
20
0
30
0
210
0
220
0
230
1
2
SOLID
70
1
71
0
91
1
92
0
93
4
72
1
10
53.886999
20
44.301999
11
53.886999
21
42.777999
72
1
10
53.886999
20
42.777999
11
52.362999
21
42.777999
72
1
10
52.362999
20
42.777999
11
52.362999
21
44.301999
72
1
10
52.362999
20
44.301999
11
53.886999
21
44.301999
97
0
75
0
76
1
98
0
0
HATCH
5
62
100
AcDbEntity
8
MULTILAYER
6
CONTINUOUS
62
256
370
-1
100
AcDbHatch
10
0
20
0
30
0
210
0
220
0
230
1
2
SOLID
70
1
71
0
91
1
92
0
93
4
72
1
10
53.886999
20
29.061999
11
53.886999
21
27.537999
72
1
10
53.886999
20
27.537999
11
52.362999
21
27.537999
72
1
10
52.362999
20
27.537999
11
52.362999
21
29.061999
72
1
10
52.362999
20
29.061999
11
53.886999
21
29.061999
97
0
75
0
76
1
98
0
0
HATCH
5
63
100
AcDbEntity
8
MULTILAYER
6
CONTINUOUS
62
256
370
-1
100
AcDbHatch
10
0
20
0
30
0
210
0
220
0
230
1
2
SOLID
70
1
71
0
91
1
92
0
93
4
72
1
10
53.886999
20
31.601999
11
53.886999
21
30.077999
72
1
10
53.886999
20
30.077999
11
52.362999
21
30.077999
72
1
10
52.362999
20
30.077999
11
52.362999
21
31.601999
72
1
10
52.362999
20
31.601999
11
53.886999
21
31.601999
97
0
75
0
76
1
98
0
0
HATCH
5
64
100
AcDbEntity
8
MULTILAYER
6
CONTINUOUS
62
256
370
-1
100
AcDbHatch
10
0
20
0
30
0
210
0
220
0
230
1
2
SOLID
70
1
71
0
91
1
92
0
93
4
72
1
10
53.886999
20
34.141999
11
53.886999
21
32.617999
72
1
10
53.886999
20
32.617999
11
52.362999
21
32.617999
72
1
10
52.362999
20
32.617999
11
52.362999
21
34.141999
72
1
10
52.362999
20
34.141999
11
53.886999
21
34.141999
97
0
75
0
76
1
98
0
0
HATCH
5
65
100
AcDbEntity
8
MULTILAYER
6
CONTINUOUS
62
256
370
-1
100
AcDbHatch
10
0
20
0
30
0
210
0
220
0
230
1
2
SOLID
70
1
71
0
91
1
92
0
93
4
72
1
10
53.886999
20
36.681999
11
53.886999
21
35.157999
72
1
10
53.886999
20
35.157999
11
52.362999
21
35.157999
72
1
10
52.362999
20
35.157999
11
52.362999
21
36.681999
72
1
10
52.362999
20
36.681999
11
53.886999
21
36.681999
97
0
75
0
76
1
98
0
0
HATCH
5
66
100
AcDbEntity
8
MULTILAYER
6
CONTINUOUS
62
256
370
-1
100
AcDbHatch
10
0
20
0
30
0
210
0
220
0
230
1
2
SOLID
70
1
71
0
91
1
92
0
93
4
72
1
10
53.886999
20
39.221999
11
53.886999
21
37.697999
72
1
10
53.886999
20
37.697999
11
52.362999
21
37.697999
72
1
10
52.362999
20
37.697999
11
52.362999
21
39.221999
72
1
10
52.362999
20
39.221999
11
53.886999
21
39.221999
97
0
75
0
76
1
98
0
0
HATCH
5
67
100
AcDbEntity
8
MULTILAYER
6
CONTINUOUS
62
256
370
-1
100
AcDbHatch
10
0
20
0
30
0
210
0
220
0
230
1
2
SOLID
70
1
71
0
91
1
92
0
93
4
72
1
10
53.886999
20
46.841999
11
53.886999
21
45.317999
72
1
10
53.886999
20
45.317999
11
52.362999
21
45.317999
72
1
10
52.362999
20
45.317999
11
52.362999
21
46.841999
72
1
10
52.362999
20
46.841999
11
53.886999
21
46.841999
97
0
75
0
76
1
98
0
0
HATCH
5
68
100
AcDbEntity
8
MULTILAYER
6
CONTINUOUS
62
256
370
-1
100
AcDbHatch
10
0
20
0
30
0
210
0
220
0
230
1
2
SOLID
70
1
71
0
91
1
92
0
93
4
72
1
10
31.617999
20
54.651999
11
33.141999
21
54.651999
72
1
10
33.141999
20
54.651999
11
33.141999
21
53.127999
72
1
10
33.141999
20
53.127999
11
31.617999
21
53.127999
72
1
10
31.617999
20
53.127999
11
31.617999
21
54.651999
97
0
75
0
76
1
98
0
0
HATCH
5
69
100
AcDbEntity
8
MULTILAYER
6
CONTINUOUS
62
256
370
-1
100
AcDbHatch
10
0
20
0
30
0
210
0
220
0
230
1
2
SOLID
70
1
71
0
91
1
92
0
93
4
72
1
10
31.617999
20
52.111999
11
33.141999
21
52.111999
72
1
10
33.141999
20
52.111999
11
33.141999
21
50.587999
72
1
10
33.141999
20
50.587999
11
31.617999
21
50.587999
72
1
10
31.617999
20
50.587999
11
31.617999
21
52.111999
97
0
75
0
76
1
98
0
0
HATCH
5
6A
100
AcDbEntity
8
MULTILAYER
6
CONTINUOUS
62
256
370
-1
100
AcDbHatch
10
0
20
0
30
0
210
0
220
0
230
1
2
SOLID
70
1
71
0
91
1
92
0
93
4
72
1
10
29.077999
20
54.651999
11
30.601999
21
54.651999
72
1
10
30.601999
20
54.651999
11
30.601999
21
53.127999
72
1
10
30.601999
20
53.127999
11
29.077999
21
53.127999
72
1
10
29.077999
20
53.127999
11
29.077999
21
54.651999
97
0
75
0
76
1
98
0
0
HATCH
5
6B
100
AcDbEntity
8
MULTILAYER
6
CONTINUOUS
62
256
370
-1
100
AcDbHatch
10
0
20
0
30
0
210
0
220
0
230
1
2
SOLID
70
1
71
0
91
1
92
0
93
4
72
1
10
29.077999
20
52.111999
11
30.601999
21
52.111999
72
1
10
30.601999
20
52.111999
11
30.601999
21
50.587999
72
1
10
30.601999
20
50.587999
11
29.077999
21
50.587999
72
1
10
29.077999
20
50.587999
11
29.077999
21
52.111999
97
0
75
0
76
1
98
0
0
HATCH
5
6C
100
AcDbEntity
8
MULTILAYER
6
CONTINUOUS
62
256
370
-1
100
AcDbHatch
10
0
20
0
30
0
210
0
220
0
230
1
2
SOLID
70
1
71
0
91
1
92
0
93
4
72
1
10
26.537999
20
54.651999
11
28.061999
21
54.651999
72
1
10
28.061999
20
54.651999
11
28.061999
21
53.127999
72
1
10
28.061999
20
53.127999
11
26.537999
21
53.127999
72
1
10
26.537999
20
53.127999
11
26.537999
21
54.651999
97
0
75
0
76
1
98
0
0
HATCH
5
6D
100
AcDbEntity
8
MULTILAYER
6
CONTINUOUS
62
256
370
-1
100
AcDbHatch
10
0
20
0
30
0
210
0
220
0
230
1
2
SOLID
70
1
71
0
91
1
92
0
93
4
72
1
10
26.537999
20
52.111999
11
28.061999
21
52.111999
72
1
10
28.061999
20
52.111999
11
28.061999
21
50.587999
72
1
10
28.061999
20
50.587999
11
26.537999
21
50.587999
72
1
10
26.537999
20
50.587999
11
26.537999
21
52.111999
97
0
75
0
76
1
98
0
0
HATCH
5
6E
100
AcDbEntity
8
MULTILAYER
6
CONTINUOUS
62
256
370
-1
100
AcDbHatch
10
0
20
0
30
0
210
0
220
0
230
1
2
SOLID
70
1
71
0
91
1
92
0
93
4
72
1
10
23.997999
20
54.651999
11
25.521999
21
54.651999
72
1
10
25.521999
20
54.651999
11
25.521999
21
53.127999
72
1
10
25.521999
20
53.127999
11
23.997999
21
53.127999
72
1
10
23.997999
20
53.127999
11
23.997999
21
54.651999
97
0
75
0
76
1
98
0
0
HATCH
5
6F
100
AcDbEntity
8
MULTILAYER
6
CONTINUOUS
62
256
370
-1
100
AcDbHatch
10
0
20
0
30
0
210
0
220
0
230
1
2
SOLID
70
1
71
0
91
1
92
0
93
4
72
1
10
23.997999
20
52.111999
11
25.521999
21
52.111999
72
1
10
25.521999
20
52.111999
11
25.521999
21
50.587999
72
1
10
25.521999
20
50.587999
11
23.997999
21
50.587999
72
1
10
23.997999
20
50.587999
11
23.997999
21
52.111999
97
0
75
0
76
1
98
0
0
HATCH
5
70
100
AcDbEntity
8
MULTILAYER
6
CONTINUOUS
62
256
370
-1
100
AcDbHatch
10
0
20
0
30
0
210
0
220
0
230
1
2
SOLID
70
1
71
0
91
1
92
0
93
4
72
1
10
21.457999
20
54.651999
11
22.981999
21
54.651999
72
1
10
22.981999
20
54.651999
11
22.981999
21
53.127999
72
1
10
22.981999
20
53.127999
11
21.457999
21
53.127999
72
1
10
21.457999
20
53.127999
11
21.457999
21
54.651999
97
0
75
0
76
1
98
0
0
HATCH
5
71
100
AcDbEntity
8
MULTILAYER
6
CONTINUOUS
62
256
370
-1
100
AcDbHatch
10
0
20
0
30
0
210
0
220
0
230
1
2
SOLID
70
1
71
0
91
1
92
0
93
4
72
1
10
21.457999
20
52.111999
11
22.981999
21
52.111999
72
1
10
22.981999
20
52.111999
11
22.981999
21
50.587999
72
1
10
22.981999
20
50.587999
11
21.457999
21
50.587999
72
1
10
21.457999
20
50.587999
11
21.457999
21
52.111999
97
0
75
0
76
1
98
0
0
HATCH
5
72
100
AcDbEntity
8
MULTILAYER
6
CONTINUOUS
62
256
370
-1
100
AcDbHatch
10
0
20
0
30
0
210
0
220
0
230
1
2
SOLID
70
1
71
0
91
1
92
0
93
4
72
1
10
18.917999
20
54.651999
11
20.441999
21
54.651999
72
1
10
20.441999
20
54.651999
11
20.441999
21
53.127999
72
1
10
20.441999
20
53.127999
11
18.917999
21
53.127999
72
1
10
18.917999
20
53.127999
11
18.917999
21
54.651999
97
0
75
0
76
1
98
0
0
HATCH
5
73
100
AcDbEntity
8
MULTILAYER
6
CONTINUOUS
62
256
370
-1
100
AcDbHatch
10
0
20
0
30
0
210
0
220
0
230
1
2
SOLID
70
1
71
0
91
1
92
0
93
4
72
1
10
18.917999
20
52.111999
11
20.441999
21
52.111999
72
1
10
20.441999
20
52.111999
11
20.441999
21
50.587999
72
1
10
20.441999
20
50.587999
11
18.917999
21
50.587999
72
1
10
18.917999
20
50.587999
11
18.917999
21
52.111999
97
0
75
0
76
1
98
0
0
HATCH
5
74
100
AcDbEntity
8
MULTILAYER
6
CONTINUOUS
62
256
370
-1
100
AcDbHatch
10
0
20
0
30
0
210
0
220
0
230
1
2
SOLID
70
1
71
0
91
1
92
0
93
4
72
1
10
16.377999
20
54.651999
11
17.901999
21
54.651999
72
1
10
17.901999
20
54.651999
11
17.901999
21
53.127999
72
1
10
17.901999
20
53.127999
11
16.377999
21
53.127999
72
1
10
16.377999
20
53.127999
11
16.377999
21
54.651999
97
0
75
0
76
1
98
0
0
HATCH
5
75
100
AcDbEntity
8
MULTILAYER
6
CONTINUOUS
62
256
370
-1
100
AcDbHatch
10
0
20
0
30
0
210
0
220
0
230
1
2
SOLID
70
1
71
0
91
1
92
0
93
4
72
1
10
16.377999
20
52.111999
11
17.901999
21
52.111999
72
1
10
17.901999
20
52.111999
11
17.901999
21
50.587999
72
1
10
17.901999
20
50.587999
11
16.377999
21
50.587999
72
1
10
16.377999
20
50.587999
11
16.377999
21
52.111999
97
0
75
0
76
1
98
0
0
HATCH
5
76
100
AcDbEntity
8
MULTILAYER
6
CONTINUOUS
62
256
370
-1
100
AcDbHatch
10
0
20
0
30
0
210
0
220
0
230
1
2
SOLID
70
1
71
0
91
1
92
0
93
4
72
1
10
13.837999
20
54.651999
11
15.361999
21
54.651999
72
1
10
15.361999
20
54.651999
11
15.361999
21
53.127999
72
1
10
15.361999
20
53.127999
11
13.837999
21
53.127999
72
1
10
13.837999
20
53.127999
11
13.837999
21
54.651999
97
0
75
0
76
1
98
0
0
HATCH
5
77
100
AcDbEntity
8
MULTILAYER
6
CONTINUOUS
62
256
370
-1
100
AcDbHatch
10
0
20
0
30
0
210
0
220
0
230
1
2
SOLID
70
1
71
0
91
1
92
0
93
4
72
1
10
13.837999
20
52.111999
11
15.361999
21
52.111999
72
1
10
15.361999
20
52.111999
11
15.361999
21
50.587999
72
1
10
15.361999
20
50.587999
11
13.837999
21
50.587999
72
1
10
13.837999
20
50.587999
11
13.837999
21
52.111999
97
0
75
0
76
1
98
0
0
HATCH
5
78
100
AcDbEntity
8
MULTILAYER
6
CONTINUOUS
62
256
370
-1
100
AcDbHatch
10
0
20
0
30
0
210
0
220
0
230
1
2
SOLID
70
1
71
0
91
1
92
0
93
4
72
1
10
11.297999
20
54.651999
11
12.821999
21
54.651999
72
1
10
12.821999
20
54.651999
11
12.821999
21
53.127999
72
1
10
12.821999
20
53.127999
11
11.297999
21
53.127999
72
1
10
11.297999
20
53.127999
11
11.297999
21
54.651999
97
0
75
0
76
1
98
0
0
HATCH
5
79
100
AcDbEntity
8
MULTILAYER
6
CONTINUOUS
62
256
370
-1
100
AcDbHatch
10
0
20
0
30
0
210
0
220
0
230
1
2
SOLID
70
1
71
0
91
1
92
0
93
4
72
1
10
11.297999
20
52.111999
11
12.821999
21
52.111999
72
1
10
12.821999
20
52.111999
11
12.821999
21
50.587999
72
1
10
12.821999
20
50.587999
11
11.297999
21
50.587999
72
1
10
11.297999
20
50.587999
11
11.297999
21
52.111999
97
0
75
0
76
1
98
0
0
HATCH
5
7A
100
AcDbEntity
8
MULTILAYER
6
CONTINUOUS
62
256
370
-1
100
AcDbHatch
10
0
20
0
30
0
210
0
220
0
230
1
2
SOLID
70
1
71
0
91
1
92
0
93
4
72
1
10
8.757999
20
54.651999
11
10.281999
21
54.651999
72
1
10
10.281999
20
54.651999
11
10.281999
21
53.127999
72
1
10
10.281999
20
53.127999
11
8.757999
21
53.127999
72
1
10
8.757999
20
53.127999
11
8.757999
21
54.651999
97
0
75
0
76
1
98
0
0
HATCH
5
7B
100
AcDbEntity
8
MULTILAYER
6
CONTINUOUS
62
256
370
-1
100
AcDbHatch
10
0
20
0
30
0
210
0
220
0
230
1
2
SOLID
70
1
71
0
91
1
92
0
93
4
72
1
10
8.757999
20
52.111999
11
10.281999
21
52.111999
72
1
10
10.281999
20
52.111999
11
10.281999
21
50.587999
72
1
10
10.281999
20
50.587999
11
8.757999
21
50.587999
72
1
10
8.757999
20
50.587999
11
8.757999
21
52.111999
97
0
75
0
76
1
98
0
0
HATCH
5
7C
100
AcDbEntity
8
MULTILAYER
6
CONTINUOUS
62
256
370
-1
100
AcDbHatch
10
0
20
0
30
0
210
0
220
0
230
1
2
SOLID
70
1
71
0
91
1
92
0
93
4
72
1
10
6.217999
20
54.651999
11
7.741999
21
54.651999
72
1
10
7.741999
20
54.651999
11
7.741999
21
53.127999
72
1
10
7.741999
20
53.127999
11
6.217999
21
53.127999
72
1
10
6.217999
20
53.127999
11
6.217999
21
54.651999
97
0
75
0
76
1
98
0
0
HATCH
5
7D
100
AcDbEntity
8
MULTILAYER
6
CONTINUOUS
62
256
370
-1
100
AcDbHatch
10
0
20
0
30
0
210
0
220
0
230
1
2
SOLID
70
1
71
0
91
1
92
0
93
4
72
1
10
6.217999
20
52.111999
11
7.741999
21
52.111999
72
1
10
7.741999
20
52.111999
11
7.741999
21
50.587999
72
1
10
7.741999
20
50.587999
11
6.217999
21
50.587999
72
1
10
6.217999
20
50.587999
11
6.217999
21
52.111999
97
0
75
0
76
1
98
0
0
HATCH
5
7E
100
AcDbEntity
8
MULTILAYER
6
CONTINUOUS
62
256
370
-1
100
AcDbHatch
10
0
20
0
30
0
210
0
220
0
230
1
2
SOLID
70
1
71
0
91
1
92
0
93
4
72
1
10
3.677999
20
54.651999
11
5.201999
21
54.651999
72
1
10
5.201999
20
54.651999
11
5.201999
21
53.127999
72
1
10
5.201999
20
53.127999
11
3.677999
21
53.127999
72
1
10
3.677999
20
53.127999
11
3.677999
21
54.651999
97
0
75
0
76
1
98
0
0
HATCH
5
7F
100
AcDbEntity
8
MULTILAYER
6
CONTINUOUS
62
256
370
-1
100
AcDbHatch
10
0
20
0
30
0
210
0
220
0
230
1
2
SOLID
70
1
71
0
91
1
92
0
93
4
72
1
10
3.677999
20
52.111999
11
5.201999
21
52.111999
72
1
10
5.201999
20
52.111999
11
5.201999
21
50.587999
72
1
10
5.201999
20
50.587999
11
3.677999
21
50.587999
72
1
10
3.677999
20
50.587999
11
3.677999
21
52.111999
97
0
75
0
76
1
98
0
0
HATCH
5
80
100
AcDbEntity
8
MULTILAYER
6
CONTINUOUS
62
256
370
-1
100
AcDbHatch
10
0
20
0
30
0
210
0
220
0
230
1
2
SOLID
70
1
71
0
91
1
92
0
93
4
72
1
10
1.137999
20
54.651999
11
2.661999
21
54.651999
72
1
10
2.661999
20
54.651999
11
2.661999
21
53.127999
72
1
10
2.661999
20
53.127999
11
1.137999
21
53.127999
72
1
10
1.137999
20
53.127999
11
1.137999
21
54.651999
97
0
75
0
76
1
98
0
0
HATCH
5
81
100
AcDbEntity
8
MULTILAYER
6
CONTINUOUS
62
256
370
-1
100
AcDbHatch
10
0
20
0
30
0
210
0
220
0
230
1
2
SOLID
70
1
71
0
91
1
92
0
93
4
72
1
10
1.137999
20
52.111999
11
2.661999
21
52.111999
72
1
10
2.661999
20
52.111999
11
2.661999
21
50.587999
72
1
10
2.661999
20
50.587999
11
1.137999
21
50.587999
72
1
10
1.137999
20
50.587999
11
1.137999
21
52.111999
97
0
75
0
76
1
98
0
0
LINE
5
82
100
AcDbEntity
8
MECHANICAL1
6
ByLayer
62
256
370
-1
100
AcDbLine
10
59.745568
20
21.949999
11
59.745568
21
0.532909
0
LINE
5
83
100
AcDbEntity
8
MECHANICAL1
6
ByLayer
62
256
370
-1
100
AcDbLine
10
56.746955
20
0.532909
11
59.745568
21
0.532909
0
LINE
5
84
100
AcDbEntity
8
MECHANICAL1
6
ByLayer
62
256
370
-1
100
AcDbLine
10
56.746955
20
21.949999
11
56.746955
21
0.532909
0
LINE
5
85
100
AcDbEntity
8
MECHANICAL1
6
ByLayer
62
256
370
-1
100
AcDbLine
10
56.746955
20
21.949999
11
59.745568
21
21.949999
0
LINE
5
86
100
AcDbEntity
8
MECHANICAL1
6
ByLayer
62
256
370
-1
100
AcDbLine
10
13.09068
20
39.691264
11
13.09068
21
18.199999
0
LINE
5
87
100
AcDbEntity
8
MECHANICAL1
6
ByLayer
62
256
370
-1
100
AcDbLine
10
10.180262
20
18.199999
11
13.09068
21
18.199999
0
LINE
5
88
100
AcDbEntity
8
MECHANICAL1
6
ByLayer
62
256
370
-1
100
AcDbLine
10
10.180262
20
39.691264
11
10.180262
21
18.199999
0
LINE
5
89
100
AcDbEntity
8
MECHANICAL1
6
ByLayer
62
256
370
-1
100
AcDbLine
10
10.180262
20
39.691264
11
13.09068
21
39.691264
0
LINE
5
8A
100
AcDbEntity
8
MECHANICAL1
6
ByLayer
62
256
370
-1
100
AcDbLine
10
17.500404
20
42.425295
11
17.500404
21
18.17181
0
LINE
5
8B
100
AcDbEntity
8
MECHANICAL1
6
ByLayer
62
256
370
-1
100
AcDbLine
10
0
20
42.425295
11
17.500404
21
42.425295
0
LINE
5
8C
100
AcDbEntity
8
MECHANICAL1
6
ByLayer
62
256
370
-1
100
AcDbLine
10
0
20
18.17181
11
17.500404
21
18.17181
0
LINE
5
8D
100
AcDbEntity
8
MECHANICAL1
6
ByLayer
62
256
370
-1
100
AcDbLine
10
4.299999
20
11.469027
11
4.299999
21
3.884302
0
LINE
5
8E
100
AcDbEntity
8
MECHANICAL1
6
ByLayer
62
256
370
-1
100
AcDbLine
10
0
20
11.469027
11
4.299999
21
11.469027
0
LINE
5
8F
100
AcDbEntity
8
MECHANICAL1
6
ByLayer
62
256
370
-1
100
AcDbLine
10
0
20
3.884302
11
4.299999
21
3.884302
0
LINE
5
90
100
AcDbEntity
8
MECHANICAL1
6
ByLayer
62
256
370
-1
100
AcDbLine
10
51.984453
20
10.763471
11
51.984453
21
0
0
LINE
5
91
100
AcDbEntity
8
MECHANICAL1
6
ByLayer
62
256
370
-1
100
AcDbLine
10
37.079583
20
10.763471
11
37.079583
21
0
0
LINE
5
92
100
AcDbEntity
8
MECHANICAL1
6
ByLayer
62
256
370
-1
100
AcDbLine
10
37.079583
20
10.763471
11
51.984453
21
10.763471
0
LINE
5
93
100
AcDbEntity
8
MECHANICAL1
6
ByLayer
62
256
370
-1
100
AcDbLine
10
65.742792
20
2.2968
11
85
21
2.2968
0
LINE
5
94
100
AcDbEntity
8
MECHANICAL1
6
ByLayer
62
256
370
-1
100
AcDbLine
10
65.742792
20
18.083613
11
65.742792
21
2.2968
0
LINE
5
95
100
AcDbEntity
8
MECHANICAL1
6
ByLayer
62
256
370
-1
100
AcDbLine
10
65.742792
20
18.083613
11
85
21
18.083613
0
LINE
5
96
100
AcDbEntity
8
MECHANICAL1
6
ByLayer
62
256
370
-1
100
AcDbLine
10
75.355991
20
37.662792
11
75.355991
21
24.345425
0
LINE
5
97
100
AcDbEntity
8
MECHANICAL1
6
ByLayer
62
256
370
-1
100
AcDbLine
10
75.355991
20
37.662792
11
85
21
37.662792
0
LINE
5
98
100
AcDbEntity
8
MECHANICAL1
6
ByLayer
62
256
370
-1
100
AcDbLine
10
75.355991
20
24.345425
11
85
21
24.345425
0
LINE
5
99
100
AcDbEntity
8
MECHANICAL1
6
ByLayer
62
256
370
-1
100
AcDbLine
10
70.769879
20
56.199999
11
70.769879
21
45.512101
0
LINE
5
9A
100
AcDbEntity
8
MECHANICAL1
6
ByLayer
62
256
370
-1
100
AcDbLine
10
58.510843
20
56.199999
11
58.510843
21
45.512101
0
LINE
5
9B
100
AcDbEntity
8
MECHANICAL1
6
ByLayer
62
256
370
-1
100
AcDbLine
10
58.510843
20
45.512101
11
70.769879
21
45.512101
0
LINE
5
9C
100
AcDbEntity
8
MECHANICAL1
6
ByLayer
62
256
370
-1
100
AcDbLine
10
51.455284
20
53.890578
11
51.455284
21
43.748213
0
LINE
5
9D
100
AcDbEntity
8
MECHANICAL1
6
ByLayer
62
256
370
-1
100
AcDbLine
10
40.695557
20
43.748213
11
51.455284
21
43.748213
0
LINE
5
9E
100
AcDbEntity
8
MECHANICAL1
6
ByLayer
62
256
370
-1
100
AcDbLine
10
40.695557
20
53.890578
11
40.695557
21
43.748213
0
LINE
5
9F
100
AcDbEntity
8
MECHANICAL1
6
ByLayer
62
256
370
-1
100
AcDbLine
10
40.695557
20
53.890578
11
51.455284
21
53.890578
0
LINE
5
A0
100
AcDbEntity
8
MECHANICAL1
6
ByLayer
62
256
370
-1
100
AcDbLine
10
50.132369
20
56.199999
11
50.132369
21
53.890578
0
LINE
5
A1
100
AcDbEntity
8
MECHANICAL1
6
ByLayer
62
256
370
-1
100
AcDbLine
10
41.842085
20
56.199999
11
41.842085
21
53.890578
0
LINE
5
A2
100
AcDbEntity
8
MECHANICAL1
6
ByLayer
62
256
370
-1
100
AcDbLine
10
41.842085
20
53.890578
11
50.132369
21
53.890578
0
LINE
5
A3
100
AcDbEntity
8
MECHANICAL1
6
ByLayer
62
256
370
-1
100
AcDbLine
10
0
20
56.199999
11
85.000198
21
56.199999
0
LINE
5
A4
100
AcDbEntity
8
MECHANICAL1
6
ByLayer
62
256
370
-1
100
AcDbLine
10
0
20
56.199999
11
0
21
0.000298999999998
0
LINE
5
A5
100
AcDbEntity
8
TOPOVERLAY
6
ByLayer
62
256
370
-1
100
AcDbLine
10
0
20
56.199999
11
85
21
56.199999
0
LINE
5
A6
100
AcDbEntity
8
TOPOVERLAY
6
ByLayer
62
256
370
-1
100
AcDbLine
10
0
20
0
11
85
21
0
0
LINE
5
A7
100
AcDbEntity
8
TOPOVERLAY
6
ByLayer
62
256
370
-1
100
AcDbLine
10
0.629999
20
50.079999
11
33.649999
21
50.079999
0
LINE
5
A8
100
AcDbEntity
8
TOPOVERLAY
6
ByLayer
62
256
370
-1
100
AcDbLine
10
61.15
20
60.099999
11
68.224999
21
60.099999
0
LINE
5
A9
100
AcDbEntity
8
TOPOVERLAY
6
ByLayer
62
256
370
-1
100
AcDbLine
10
58.5
20
56.575
11
70.774999
21
56.575
0
LINE
5
AA
100
AcDbEntity
8
TOPOVERLAY
6
ByLayer
62
256
370
-1
100
AcDbLine
10
0.629999
20
55.159999
11
33.649999
21
55.159999
0
LINE
5
AB
100
AcDbEntity
8
TOPOVERLAY
6
ByLayer
62
256
370
-1
100
AcDbLine
10
85
20
37.674999
11
92.524999
21
37.674999
0
LINE
5
AC
100
AcDbEntity
8
TOPOVERLAY
6
ByLayer
62
256
370
-1
100
AcDbLine
10
85
20
24.349999
11
92.524999
21
24.349999
0
LINE
5
AD
100
AcDbEntity
8
TOPOVERLAY
6
ByLayer
62
256
370
-1
100
AcDbLine
10
41.85
20
63.3
11
50.125
21
63.3
0
LINE
5
AE
100
AcDbEntity
8
TOPOVERLAY
6
ByLayer
62
256
370
-1
100
AcDbLine
10
54.394999
20
44.809999
11
56.934999
21
44.809999
0
LINE
5
AF
100
AcDbEntity
8
TOPOVERLAY
6
ByLayer
62
256
370
-1
100
AcDbLine
10
54.394999
20
29.569999
11
56.934999
21
29.569999
0
LINE
5
B0
100
AcDbEntity
8
TOPOVERLAY
6
ByLayer
62
256
370
-1
100
AcDbLine
10
54.394999
20
27.029999
11
56.934999
21
27.029999
0
LINE
5
B1
100
AcDbEntity
8
TOPOVERLAY
6
ByLayer
62
256
370
-1
100
AcDbLine
10
37.075001
20
-1.150001
11
52
21
-1.150001
0
LINE
5
B2
100
AcDbEntity
8
TOPOVERLAY
6
ByLayer
62
256
370
-1
100
AcDbLine
10
-18
20
42.425
11
-0.024999
21
42.425
0
LINE
5
B3
100
AcDbEntity
8
TOPOVERLAY
6
ByLayer
62
256
370
-1
100
AcDbLine
10
-18
20
18.175
11
0
21
18.175
0
LINE
5
B4
100
AcDbEntity
8
TOPOVERLAY
6
ByLayer
62
256
370
-1
100
AcDbLine
10
0
20
56.199999
11
0
21
0
0
LINE
5
B5
100
AcDbEntity
8
TOPOVERLAY
6
ByLayer
62
256
370
-1
100
AcDbLine
10
56.934999
20
44.809999
11
56.934999
21
27.029999
0
LINE
5
B6
100
AcDbEntity
8
TOPOVERLAY
6
ByLayer
62
256
370
-1
100
AcDbLine
10
-0.750001
20
11.474998
11
0
21
11.474998
0
LINE
5
B7
100
AcDbEntity
8
TOPOVERLAY
6
ByLayer
62
256
370
-1
100
AcDbLine
10
85
20
18.074998
11
86.000001
21
18.074998
0
LINE
5
B8
100
AcDbEntity
8
TOPOVERLAY
6
ByLayer
62
256
370
-1
100
AcDbLine
10
85
20
2.3
11
86.000001
21
2.3
0
LINE
5
B9
100
AcDbEntity
8
TOPOVERLAY
6
ByLayer
62
256
370
-1
100
AcDbLine
10
51.854999
20
47.349999
11
54.394999
21
47.349999
0
LINE
5
BA
100
AcDbEntity
8
TOPOVERLAY
6
ByLayer
62
256
370
-1
100
AcDbLine
10
51.854999
20
29.569999
11
54.394999
21
29.569999
0
LINE
5
BB
100
AcDbEntity
8
TOPOVERLAY
6
ByLayer
62
256
370
-1
100
AcDbLine
10
51.854999
20
27.029999
11
54.394999
21
27.029999
0
LINE
5
BC
100
AcDbEntity
8
TOPOVERLAY
6
ByLayer
62
256
370
-1
100
AcDbLine
10
-0.750001
20
3.874998
11
0
21
3.874998
0
LINE
5
BD
100
AcDbEntity
8
TOPOVERLAY
6
ByLayer
62
256
370
-1
100
AcDbLine
10
92.524999
20
37.674999
11
92.524999
21
24.349999
0
LINE
5
BE
100
AcDbEntity
8
TOPOVERLAY
6
ByLayer
62
256
370
-1
100
AcDbLine
10
85
20
56.199999
11
85
21
0
0
LINE
5
BF
100
AcDbEntity
8
TOPOVERLAY
6
ByLayer
62
256
370
-1
100
AcDbLine
10
50.125
20
63.3
11
50.125
21
56.199999
0
LINE
5
C0
100
AcDbEntity
8
TOPOVERLAY
6
ByLayer
62
256
370
-1
100
AcDbLine
10
41.85
20
63.3
11
41.85
21
56.199999
0
LINE
5
C1
100
AcDbEntity
8
TOPOVERLAY
6
ByLayer
62
256
370
-1
100
AcDbLine
10
-18
20
42.425
11
-18
21
18.175
0
LINE
5
C2
100
AcDbEntity
8
TOPOVERLAY
6
ByLayer
62
256
370
-1
100
AcDbLine
10
86.000001
20
18.074998
11
86.000001
21
2.3
0
LINE
5
C3
100
AcDbEntity
8
TOPOVERLAY
6
ByLayer
62
256
370
-1
100
AcDbLine
10
54.394999
20
44.809999
11
54.394999
21
27.029999
0
LINE
5
C4
100
AcDbEntity
8
TOPOVERLAY
6
ByLayer
62
256
370
-1
100
AcDbLine
10
54.394999
20
47.349999
11
54.394999
21
27.029999
0
LINE
5
C5
100
AcDbEntity
8
TOPOVERLAY
6
ByLayer
62
256
370
-1
100
AcDbLine
10
51.854999
20
47.349999
11
51.854999
21
27.029999
0
LINE
5
C6
100
AcDbEntity
8
TOPOVERLAY
6
ByLayer
62
256
370
-1
100
AcDbLine
10
33.649999
20
55.159999
11
33.649999
21
50.079999
0
LINE
5
C7
100
AcDbEntity
8
TOPOVERLAY
6
ByLayer
62
256
370
-1
100
AcDbLine
10
0.629999
20
55.159999
11
0.629999
21
50.079999
0
LINE
5
C8
100
AcDbEntity
8
TOPOVERLAY
6
ByLayer
62
256
370
-1
100
AcDbLine
10
-0.750001
20
11.474998
11
-0.750001
21
3.874998
0
LINE
5
C9
100
AcDbEntity
8
TOPOVERLAY
6
ByLayer
62
256
370
-1
100
AcDbLine
10
70.774999
20
56.575
11
70.774999
21
56.199999
0
LINE
5
CA
100
AcDbEntity
8
TOPOVERLAY
6
ByLayer
62
256
370
-1
100
AcDbLine
10
68.224999
20
60.099999
11
68.224999
21
56.575
0
LINE
5
CB
100
AcDbEntity
8
TOPOVERLAY
6
ByLayer
62
256
370
-1
100
AcDbLine
10
61.15
20
60.099999
11
61.15
21
56.575
0
LINE
5
CC
100
AcDbEntity
8
TOPOVERLAY
6
ByLayer
62
256
370
-1
100
AcDbLine
10
58.5
20
56.575
11
58.5
21
56.199999
0
LINE
5
CD
100
AcDbEntity
8
TOPOVERLAY
6
ByLayer
62
256
370
-1
100
AcDbLine
10
52
20
0
11
52
21
-1.150001
0
LINE
5
CE
100
AcDbEntity
8
TOPOVERLAY
6
ByLayer
62
256
370
-1
100
AcDbLine
10
37.075001
20
0
11
37.075001
21
-1.150001
0
ENDBLK
5
50
330
4E
100
AcDbEntity
8
0
100
AcDbBlockEnd
0
BLOCK
5
52
330
51
100
AcDbEntity
8
0
100
AcDbBlockBegin
2
lcd-1
70
0
10
0
20
0
3
lcd-1
1

0
LINE
5
CF
100
AcDbEntity
8
0
6
ByLayer
62
256
370
-1
100
AcDbLine
10
40.1
20
-2.44249065418e-15
11
40.1
21
67.2
0
LINE
5
D0
100
AcDbEntity
8
0
6
ByLayer
62
256
370
-1
100
AcDbLine
10
7.1054273576e-15
20
67.2
11
0
21
0
0
LINE
5
D1
100
AcDbEntity
8
0
6
ByLayer
62
256
370
-1
100
AcDbLine
10
0
20
0
11
40.1
21
-2.44249065418e-15
0
LINE
5
D2
100
AcDbEntity
8
0
6
ByLayer
62
256
370
-1
100
AcDbLine
10
40.1
20
67.2
11
7.1054273576e-15
21
67.2
0
CIRCLE
5
D3
100
AcDbEntity
8
0
6
ByLayer
62
256
370
-1
100
AcDbCircle
10
37.1
20
3
40
1.6
0
CIRCLE
5
D4
100
AcDbEntity
8
0
6
ByLayer
62
256
370
-1
100
AcDbCircle
10
37.1
20
64.2
40
1.6
0
CIRCLE
5
D5
100
AcDbEntity
8
0
6
ByLayer
62
256
370
-1
100
AcDbCircle
10
3
20
3
40
1.6
0
CIRCLE
5
D6
100
AcDbEntity
8
0
6
ByLayer
62
256
370
-1
100
AcDbCircle
10
3
20
64.2
40
1.6
0
LINE
5
D7
100
AcDbEntity
8
0
6
ByLayer
62
256
370
-1
100
AcDbLine
10
40.1
20
6
11
0
21
6
0
LINE
5
D8
100
AcDbEntity
8
0
6
ByLayer
62
256
370
-1
100
AcDbLine
10
40.1
20
61.2
11
7.1054273576e-15
21
61.2
0
ENDBLK
5
53
330
51
100
AcDbEntity
8
0
100
AcDbBlockEnd
0
BLOCK
5
55
330
54
100
AcDbEntity
8
0
100
AcDbBlockBegin
2
lcd-2
70
0
10
0
20
0
3
lcd-2
1

0
LINE
5
D9
100
AcDbEntity
8
0
6
ByLayer
62
256
370
-1
100
AcDbLine
10
40.1
20
-2.44249065418e-15
11
40.1
21
67.2
0
LINE
5
DA
100
AcDbEntity
8
0
6
ByLayer
62
256
370
-1
100
AcDbLine
10
7.1054273576e-15
20
67.2
11
0
21
0
0
LINE
5
DB
100
AcDbEntity
8
0
6
ByLayer
62
256
370
-1
100
AcDbLine
10
0
20
0
11
40.1
21
-2.44249065418e-15
0
LINE
5
DC
100
AcDbEntity
8
0
6
ByLayer
62
256
370
-1
100
AcDbLine
10
40.1
20
67.2
11
7.1054273576e-15
21
67.2
0
CIRCLE
5
DD
100
AcDbEntity
8
0
6
ByLayer
62
256
370
-1
100
AcDbCircle
10
37.1
20
3
40
1.6
0
CIRCLE
5
DE
100
AcDbEntity
8
0
6
ByLayer
62
256
370
-1
100
AcDbCircle
10
37.1
20
64.2
40
1.6
0
CIRCLE
5
DF
100
AcDbEntity
8
0
6
ByLayer
62
256
370
-1
100
AcDbCircle
10
3
20
3
40
1.6
0
CIRCLE
5
E0
100
AcDbEntity
8
0
6
ByLayer
62
256
370
-1
100
AcDbCircle
10
3
20
64.2
40
1.6
0
LINE
5
E1
100
AcDbEntity
8
0
6
ByLayer
62
256
370
-1
100
AcDbLine
10
40.1
20
6
11
0
21
6
0
LINE
5
E2
100
AcDbEntity
8
0
6
ByLayer
62
256
370
-1
100
AcDbLine
10
40.1
20
61.2
11
7.1054273576e-15
21
61.2
0
ENDBLK
5
56
330
54
100
AcDbEntity
8
0
100
AcDbBlockEnd
0
ENDSEC
0
SECTION
2
ENTITIES
0
IMAGE
5
E5
100
AcDbEntity
8
0
6
ByLayer
62
256
370
-1
100
AcDbRasterImage
10
94.8800000002
20
16.8
30
0
11
1
21
0
31
0
12
6.12323399574e-17
22
1
32
0
13
1
23
1
340
E3
70
1
280
0
281
50
282
50
283
0
360
E4
0
ARC
5
E6
100
AcDbEntity
8
0
6
ByLayer
62
256
370
-1
100
AcDbCircle
10
8
20
61
40
8
100
AcDbArc
50
90
51
180
0
LINE
5
E7
100
AcDbEntity
8
0
6
ByLayer
62
256
370
-1
100
AcDbLine
10
119
20
69
11
8
21
69
0
ARC
5
E8
100
AcDbEntity
8
0
6
ByLayer
62
256
370
-1
100
AcDbCircle
10
119
20
61
40
8
100
AcDbArc
50
0
51
90
0
LINE
5
E9
100
AcDbEntity
8
0
6
ByLayer
62
256
370
-1
100
AcDbLine
10
127
20
8
11
127
21
61
0
ARC
5
EA
100
AcDbEntity
8
0
6
ByLayer
62
256
370
-1
100
AcDbCircle
10
119
20
8
40
8
100
AcDbArc
50
270
51
0
0
LINE
5
EB
100
AcDbEntity
8
0
6
ByLayer
62
256
370
-1
100
AcDbLine
10
8
20
0
11
119
21
0
0
LINE
5
EC
100
AcDbEntity
8
0
6
ByLayer
62
256
370
-1
100
AcDbLine
10
0
20
61
11
0
21
8
0
ARC
5
ED
100
AcDbEntity
8
0
6
ByLayer
62
256
370
-1
100
AcDbCircle
10
8
20
8
40
8
100
AcDbArc
50
180
51
270
0
CIRCLE
5
EE
100
AcDbEntity
8
0
6
ByLayer
62
256
370
-1
100
AcDbCircle
10
120
20
62
40
1.825
0
CIRCLE
5
EF
100
AcDbEntity
8
0
6
ByLayer
62
256
370
-1
100
AcDbCircle
10
120
20
7
40
1.825
0
CIRCLE
5
F0
100
AcDbEntity
8
0
6
ByLayer
62
256
370
-1
100
AcDbCircle
10
7
20
7
40
1.825
0
CIRCLE
5
F1
100
AcDbEntity
8
0
6
ByLayer
62
256
370
-1
100
AcDbCircle
10
7
20
62
40
1.825
0
CIRCLE
5
F2
100
AcDbEntity
8
standoffs
6
ByLayer
62
256
370
-1
100
AcDbCircle
10
7
20
62
40
3.175
0
CIRCLE
5
F3
100
AcDbEntity
8
standoffs
6
ByLayer
62
256
370
-1
100
AcDbCircle
10
120
20
62
40
3.175
0
CIRCLE
5
F4
100
AcDbEntity
8
standoffs
6
ByLayer
62
256
370
-1
100
AcDbCircle
10
120
20
7
40
3.175
0
CIRCLE
5
F5
100
AcDbEntity
8
standoffs
6
ByLayer
62
256
370
-1
100
AcDbCircle
10
7
20
7
40
3.175
0
LINE
5
F6
100
AcDbEntity
8
rpi_mounting_holes
6
ByLayer
62
256
370
-1
100
AcDbLine
10
19.433637909
20
7.58355969621
11
104.433637909
21
7.58355969621
0
CIRCLE
5
F7
100
AcDbEntity
8
rpi_mounting_holes
6
ByLayer
62
256
370
-1
100
AcDbCircle
10
44.933637909
20
25.5835596962
40
1.45
0
CIRCLE
5
F8
100
AcDbEntity
8
rpi_mounting_holes
6
ByLayer
62
256
370
-1
100
AcDbCircle
10
99.433637909
20
51.0835596962
40
1.45
0
LINE
5
F9
100
AcDbEntity
8
rpi_mounting_holes
6
ByLayer
62
256
370
-1
100
AcDbLine
10
104.433637909
20
63.7835596962
11
19.433637909
21
63.7835596962
0
LINE
5
FA
100
AcDbEntity
8
rpi_mounting_holes
6
ByLayer
62
256
370
-1
100
AcDbLine
10
104.433637909
20
7.58355969621
11
104.433637909
21
63.7835596962
0
LINE
5
FB
100
AcDbEntity
8
rpi_mounting_holes
6
ByLayer
62
256
370
-1
100
AcDbLine
10
19.433637909
20
63.7835596962
11
19.433637909
21
7.58355969621
0
INSERT
5
FC
100
AcDbEntity
8
rpi_outline
6
ByLayer
62
256
370
-1
100
AcDbBlockReference
2
ibex_rpi_model_b_v1_00_correct_orientation-0
10
19.433637909
20
7.58355969621
30
0
41
1
42
1
43
0
50
0
70
1
71
1
44
0
45
0
0
CIRCLE
5
FD
100
AcDbEntity
8
boardmounts
6
ByLayer
62
256
370
-1
100
AcDbCircle
10
29.3874152177
20
6.78356333704
40
4.15
0
CIRCLE
5
FE
100
AcDbEntity
8
boardmounts
6
ByLayer
62
256
370
-1
100
AcDbCircle
10
29.3874152177
20
6.78356333704
40
2.4
0
CIRCLE
5
FF
100
AcDbEntity
8
boardmounts
6
ByLayer
62
256
370
-1
100
AcDbCircle
10
101.81329049
20
6.78356333704
40
4.15
0
CIRCLE
5
100
100
AcDbEntity
8
boardmounts
6
ByLayer
62
256
370
-1
100
AcDbCircle
10
101.81329049
20
6.78356333704
40
2.4
0
CIRCLE
5
101
100
AcDbEntity
8
boardmounts
6
ByLayer
62
256
370
-1
100
AcDbCircle
10
57.6372894022
20
64.583583337
40
4.15
0
CIRCLE
5
102
100
AcDbEntity
8
boardmounts
6
ByLayer
62
256
370
-1
100
AcDbCircle
10
57.6372894022
20
64.583583337
40
2.4
0
INSERT
5
103
100
AcDbEntity
8
lcd
6
ByLayer
62
256
370
-1
100
AcDbBlockReference
2
lcd-2
10
12.0313608482
20
0.869736928788
30
0
41
1
42
1
43
0
50
0
70
1
71
1
44
0
45
0
0
ENDSEC
0
SECTION
2
OBJECTS
0
DICTIONARY
5
C
330
0
100
AcDbDictionary
281
1
3
ACAD_GROUP
350
D
3
ACAD_IMAGE_DICT
350
104
0
DICTIONARY
5
D
330
C
100
AcDbDictionary
281
1
0
IMAGEDEF_REACTOR
5
E4
330
å
100
AcDbRasterImageDefReactor
90
2
330
å
0
DICTIONARY
5
104
330
C
100
AcDbDictionary
281
1
3
ibex_rpi_model_b_v1_00
350
E3
0
IMAGEDEF
5
E3
102
{ACAD_REACTORS
330
E4
102
}
100
AcDbRasterImageDef
90
0
1
/home/dhovemey/work/carpi/enclosure/ibex_rpi_model_b_v1_00.dxf
10
1
20
1
11
1
21
1
280
1
281
0
0
ENDSEC
0
EOF
