999
dxfrw 0.5.10
0
SECTION
2
HEADER
9
$ACADVER
1
AC1021
9
$HANDSEED
5
20000
9
$DWGCODEPAGE
3
ANSI_1252
9
$INSBASE
10
0
20
0
30
0
9
$EXTMIN
10
10000000000
20
10000000000
30
0
9
$EXTMAX
10
-10000000000
20
-10000000000
30
0
9
$LIMMIN
10
0
20
0
9
$LIMMAX
10
420
20
297
9
$ORTHOMODE
70
0
9
$LTSCALE
40
1
9
$TEXTSTYLE
7
STANDARD
9
$DIMASZ
40
2.5
9
$DIMSCALE
40
1
9
$DIMEXO
40
0.625
9
$DIMEXE
40
1.25
9
$DIMTXT
40
2.5
9
$DIMTSZ
40
0
9
$DIMAUNIT
70
0
9
$DIMADEC
70
0
9
$DIMLUNIT
70
2
9
$DIMSTYLE
2
STANDARD
9
$DIMGAP
40
0.625
9
$DIMTIH
70
0
9
$LUNITS
70
2
9
$LUPREC
70
4
9
$AUNITS
70
0
9
$AUPREC
70
2
9
$SPLINESEGS
70
8
9
$GRIDMODE
70
1
9
$SNAPSTYLE
70
0
9
$PINSBASE
10
0
20
0
30
0
9
$PLIMMIN
10
0
20
0
9
$PLIMMAX
10
210
20
297
9
$INSUNITS
70
4
9
$PSVPSCALE
40
1
0
ENDSEC
0
SECTION
2
CLASSES
0
ENDSEC
0
SECTION
2
TABLES
0
TABLE
2
VPORT
5
8
330
0
100
AcDbSymbolTable
70
1
0
VPORT
5
31
330
2
100
AcDbSymbolTableRecord
100
AcDbViewportTableRecord
2
*ACTIVE
70
0
10
0
20
0
11
1
21
1
12
96.4795820549
22
45.6527990796
13
0
23
0
14
10
24
10
15
10
25
10
16
0
26
0
36
1
17
0
27
0
37
0
40
103.276776585
41
2.07662082515
42
50
43
0
44
0
50
0
51
0
71
0
72
100
73
1
74
3
75
0
76
1
77
0
78
0
281
0
65
1
110
0
120
0
130
0
111
1
121
0
131
0
112
0
122
1
132
0
79
0
146
0
348
10020
60
7
61
5
292
1
282
1
141
0
142
0
63
250
421
3358443
0
ENDTAB
0
TABLE
2
LTYPE
5
5
330
0
100
AcDbSymbolTable
70
4
0
LTYPE
5
14
330
5
100
AcDbSymbolTableRecord
100
AcDbLinetypeTableRecord
2
ByBlock
70
0
3

72
65
73
0
40
0
0
LTYPE
5
15
330
5
100
AcDbSymbolTableRecord
100
AcDbLinetypeTableRecord
2
ByLayer
70
0
3

72
65
73
0
40
0
0
LTYPE
5
16
330
5
100
AcDbSymbolTableRecord
100
AcDbLinetypeTableRecord
2
Continuous
70
0
3
Solid line
72
65
73
0
40
0
0
LTYPE
5
32
330
5
100
AcDbSymbolTableRecord
100
AcDbLinetypeTableRecord
2
DOT
70
0
3
Dot . . . . . . . . . . . . . . . . . . . . . .
72
65
73
2
40
6.35
49
0
74
0
49
-6.35
74
0
0
LTYPE
5
33
330
5
100
AcDbSymbolTableRecord
100
AcDbLinetypeTableRecord
2
DOT2
70
0
3
Dot (.5x) .....................................
72
65
73
2
40
3.175
49
0
74
0
49
-3.175
74
0
0
LTYPE
5
34
330
5
100
AcDbSymbolTableRecord
100
AcDbLinetypeTableRecord
2
DOTX2
70
0
3
Dot (2x) .  .  .  .  .  .  .  .  .  .  .  .  .
72
65
73
2
40
12.7
49
0
74
0
49
-12.7
74
0
0
LTYPE
5
35
330
5
100
AcDbSymbolTableRecord
100
AcDbLinetypeTableRecord
2
DASHED
70
0
3
Dot . . . . . . . . . . . . . . . . . . . . . .
72
65
73
2
40
19.05
49
12.7
74
0
49
-6.35
74
0
0
LTYPE
5
36
330
5
100
AcDbSymbolTableRecord
100
AcDbLinetypeTableRecord
2
DASHED2
70
0
3
Dashed (.5x) _ _ _ _ _ _ _ _ _ _ _ _ _ _ _ _ _
72
65
73
2
40
9.525
49
6.35
74
0
49
-3.175
74
0
0
LTYPE
5
37
330
5
100
AcDbSymbolTableRecord
100
AcDbLinetypeTableRecord
2
DASHEDX2
70
0
3
Dashed (2x) ____  ____  ____  ____  ____  ___
72
65
73
2
40
38.1
49
25.4
74
0
49
-12.7
74
0
0
LTYPE
5
38
330
5
100
AcDbSymbolTableRecord
100
AcDbLinetypeTableRecord
2
DASHDOT
70
0
3
Dash dot __ . __ . __ . __ . __ . __ . __ . __
72
65
73
4
40
25.4
49
12.7
74
0
49
-6.35
74
0
49
0
74
0
49
-6.35
74
0
0
LTYPE
5
39
330
5
100
AcDbSymbolTableRecord
100
AcDbLinetypeTableRecord
2
DASHDOT2
70
0
3
Dash dot (.5x) _._._._._._._._._._._._._._._.
72
65
73
4
40
12.7
49
6.35
74
0
49
-3.175
74
0
49
0
74
0
49
-3.175
74
0
0
LTYPE
5
3A
330
5
100
AcDbSymbolTableRecord
100
AcDbLinetypeTableRecord
2
DASHDOTX2
70
0
3
Dash dot (2x) ____  .  ____  .  ____  .  ___
72
65
73
4
40
50.8
49
25.4
74
0
49
-12.7
74
0
49
0
74
0
49
-12.7
74
0
0
LTYPE
5
3B
330
5
100
AcDbSymbolTableRecord
100
AcDbLinetypeTableRecord
2
DIVIDE
70
0
3
Divide ____ . . ____ . . ____ . . ____ . . ____
72
65
73
6
40
31.75
49
12.7
74
0
49
-6.35
74
0
49
0
74
0
49
-6.35
74
0
49
0
74
0
49
-6.35
74
0
0
LTYPE
5
3C
330
5
100
AcDbSymbolTableRecord
100
AcDbLinetypeTableRecord
2
DIVIDE2
70
0
3
Divide (.5x) __..__..__..__..__..__..__..__.._
72
65
73
6
40
15.875
49
6.35
74
0
49
-3.175
74
0
49
0
74
0
49
-3.175
74
0
49
0
74
0
49
-3.175
74
0
0
LTYPE
5
3D
330
5
100
AcDbSymbolTableRecord
100
AcDbLinetypeTableRecord
2
DIVIDEX2
70
0
3
Divide (2x) ________  .  .  ________  .  .  _
72
65
73
6
40
63.5
49
25.4
74
0
49
-12.7
74
0
49
0
74
0
49
-12.7
74
0
49
0
74
0
49
-12.7
74
0
0
LTYPE
5
3E
330
5
100
AcDbSymbolTableRecord
100
AcDbLinetypeTableRecord
2
BORDER
70
0
3
Border __ __ . __ __ . __ __ . __ __ . __ __ .
72
65
73
6
40
44.45
49
12.7
74
0
49
-6.35
74
0
49
12.7
74
0
49
-6.35
74
0
49
0
74
0
49
-6.35
74
0
0
LTYPE
5
3F
330
5
100
AcDbSymbolTableRecord
100
AcDbLinetypeTableRecord
2
BORDER2
70
0
3
Border (.5x) __.__.__.__.__.__.__.__.__.__.__.
72
65
73
6
40
22.225
49
6.35
74
0
49
-3.175
74
0
49
6.35
74
0
49
-3.175
74
0
49
0
74
0
49
-3.175
74
0
0
LTYPE
5
40
330
5
100
AcDbSymbolTableRecord
100
AcDbLinetypeTableRecord
2
BORDERX2
70
0
3
Border (2x) ____  ____  .  ____  ____  .  ___
72
65
73
6
40
88.9
49
25.4
74
0
49
-12.7
74
0
49
25.4
74
0
49
-12.7
74
0
49
0
74
0
49
-12.7
74
0
0
LTYPE
5
41
330
5
100
AcDbSymbolTableRecord
100
AcDbLinetypeTableRecord
2
CENTER
70
0
3
Center ____ _ ____ _ ____ _ ____ _ ____ _ ____
72
65
73
4
40
50.8
49
31.75
74
0
49
-6.35
74
0
49
6.35
74
0
49
-6.35
74
0
0
LTYPE
5
42
330
5
100
AcDbSymbolTableRecord
100
AcDbLinetypeTableRecord
2
CENTER2
70
0
3
Center (.5x) ___ _ ___ _ ___ _ ___ _ ___ _ ___
72
65
73
4
40
28.575
49
19.05
74
0
49
-3.175
74
0
49
3.175
74
0
49
-3.175
74
0
0
LTYPE
5
43
330
5
100
AcDbSymbolTableRecord
100
AcDbLinetypeTableRecord
2
CENTERX2
70
0
3
Center (2x) ________  __  ________  __  _____
72
65
73
4
40
101.6
49
63.5
74
0
49
-12.7
74
0
49
12.7
74
0
49
-12.7
74
0
0
ENDTAB
0
TABLE
2
LAYER
5
2
330
0
100
AcDbSymbolTable
70
1
0
LAYER
5
10
330
2
100
AcDbSymbolTableRecord
100
AcDbLayerTableRecord
2
0
70
0
62
7
6
CONTINUOUS
370
0
390
F
0
LAYER
5
44
330
2
100
AcDbSymbolTableRecord
100
AcDbLayerTableRecord
2
rpi
70
0
62
6
6
CONTINUOUS
370
0
390
F
0
LAYER
5
45
330
2
100
AcDbSymbolTableRecord
100
AcDbLayerTableRecord
2
MECHANICAL1
70
0
62
6
6
CONTINUOUS
370
-3
390
F
0
LAYER
5
46
330
2
100
AcDbSymbolTableRecord
100
AcDbLayerTableRecord
2
MULTILAYER
70
0
62
5
6
CONTINUOUS
370
-3
390
F
0
LAYER
5
47
330
2
100
AcDbSymbolTableRecord
100
AcDbLayerTableRecord
2
TOPOVERLAY
70
0
62
4
6
CONTINUOUS
370
-3
390
F
0
ENDTAB
0
TABLE
2
STYLE
5
3
330
0
100
AcDbSymbolTable
70
3
0
STYLE
5
48
330
2
100
AcDbSymbolTableRecord
100
AcDbTextStyleTableRecord
2
standard
70
0
40
0
41
1
50
0
71
0
42
1
3
standard
4

0
ENDTAB
0
TABLE
2
VIEW
5
6
330
0
100
AcDbSymbolTable
70
0
0
ENDTAB
0
TABLE
2
UCS
5
7
330
0
100
AcDbSymbolTable
70
0
0
ENDTAB
0
TABLE
2
APPID
5
9
330
0
100
AcDbSymbolTable
70
1
0
APPID
5
12
330
9
100
AcDbSymbolTableRecord
100
AcDbRegAppTableRecord
2
ACAD
70
0
0
ENDTAB
0
TABLE
2
DIMSTYLE
5
A
330
0
100
AcDbSymbolTable
70
1
100
AcDbDimStyleTable
71
1
0
DIMSTYLE
105
49
330
A
100
AcDbSymbolTableRecord
100
AcDbDimStyleTableRecord
2
Standard
70
0
40
1
41
2.5
42
0.625
43
0.38
44
1.25
45
0
46
0
47
0
48
0
140
2.5
141
0.09
142
0
143
25.4
144
1
145
0
146
1
147
0.625
148
0
71
0
72
0
73
0
74
1
75
0
76
0
77
0
78
0
79
0
170
0
171
2
172
0
173
0
174
0
175
0
176
0
177
0
178
0
179
0
271
4
272
4
273
2
274
2
275
0
276
0
277
2
278
46
279
0
280
0
281
0
282
0
283
1
284
0
285
0
286
0
288
0
289
3
340
Standard
341

371
-2
372
-2
0
ENDTAB
0
TABLE
2
BLOCK_RECORD
5
1
330
0
100
AcDbSymbolTable
70
2
0
BLOCK_RECORD
5
1F
330
1
100
AcDbSymbolTableRecord
100
AcDbBlockTableRecord
2
*Model_Space
70
0
280
1
281
0
0
BLOCK_RECORD
5
1E
330
1
100
AcDbSymbolTableRecord
100
AcDbBlockTableRecord
2
*Paper_Space
70
0
280
1
281
0
0
BLOCK_RECORD
5
4A
330
1
100
AcDbSymbolTableRecord
100
AcDbBlockTableRecord
2
ibex_rpi_model_b_v1_00-1
70
0
280
1
281
0
0
ENDTAB
0
ENDSEC
0
SECTION
2
BLOCKS
0
BLOCK
5
20
330
1F
100
AcDbEntity
8
0
100
AcDbBlockBegin
2
*Model_Space
70
0
10
0
20
0
30
0
3
*Model_Space
1

0
ENDBLK
5
21
330
1F
100
AcDbEntity
8
0
100
AcDbBlockEnd
0
BLOCK
5
1C
330
1B
100
AcDbEntity
8
0
100
AcDbBlockBegin
2
*Paper_Space
70
0
10
0
20
0
30
0
3
*Paper_Space
1

0
ENDBLK
5
1D
330
1F
100
AcDbEntity
8
0
100
AcDbBlockEnd
0
BLOCK
5
4B
330
4A
100
AcDbEntity
8
0
100
AcDbBlockBegin
2
ibex_rpi_model_b_v1_00-1
70
0
10
0
20
0
3
ibex_rpi_model_b_v1_00-1
1

0
HATCH
5
4D
100
AcDbEntity
8
MULTILAYER
6
CONTINUOUS
62
256
370
-1
100
AcDbHatch
10
0
20
0
30
0
210
0
220
0
230
1
2
SOLID
70
1
71
0
91
1
92
0
93
4
72
1
10
86.321999
20
87.998
11
86.321999
21
89.522
72
1
10
86.321999
20
89.522
11
84.797999
21
89.522
72
1
10
84.797999
20
89.522
11
84.797999
21
87.998
72
1
10
84.797999
20
87.998
11
86.321999
21
87.998
97
0
75
0
76
1
98
0
0
HATCH
5
4E
100
AcDbEntity
8
MULTILAYER
6
CONTINUOUS
62
256
370
-1
100
AcDbHatch
10
0
20
0
30
0
210
0
220
0
230
1
2
SOLID
70
1
71
0
91
1
92
0
93
4
72
1
10
99.472001
20
49.347999
11
99.472001
21
50.871999
72
1
10
99.472001
20
50.871999
11
97.948001
21
50.871999
72
1
10
97.948001
20
50.871999
11
97.948001
21
49.347999
72
1
10
97.948001
20
49.347999
11
99.472001
21
49.347999
97
0
75
0
76
1
98
0
0
HATCH
5
4F
100
AcDbEntity
8
MULTILAYER
6
CONTINUOUS
62
256
370
-1
100
AcDbHatch
10
0
20
0
30
0
210
0
220
0
230
1
2
SOLID
70
1
71
0
91
1
92
0
93
4
72
1
10
117.386999
20
62.698
11
117.386999
21
64.222
72
1
10
117.386999
20
64.222
11
115.862999
21
64.222
72
1
10
115.862999
20
64.222
11
115.862999
21
62.698
72
1
10
115.862999
20
62.698
11
117.386999
21
62.698
97
0
75
0
76
1
98
0
0
HATCH
5
50
100
AcDbEntity
8
MULTILAYER
6
CONTINUOUS
62
256
370
-1
100
AcDbHatch
10
0
20
0
30
0
210
0
220
0
230
1
2
SOLID
70
1
71
0
91
1
92
0
93
4
72
1
10
117.386999
20
60.158
11
117.386999
21
61.682
72
1
10
117.386999
20
61.682
11
115.862999
21
61.682
72
1
10
115.862999
20
61.682
11
115.862999
21
60.158
72
1
10
115.862999
20
60.158
11
117.386999
21
60.158
97
0
75
0
76
1
98
0
0
HATCH
5
51
100
AcDbEntity
8
MULTILAYER
6
CONTINUOUS
62
256
370
-1
100
AcDbHatch
10
0
20
0
30
0
210
0
220
0
230
1
2
SOLID
70
1
71
0
91
1
92
0
93
4
72
1
10
117.386999
20
75.398
11
117.386999
21
76.922
72
1
10
117.386999
20
76.922
11
115.862999
21
76.922
72
1
10
115.862999
20
76.922
11
115.862999
21
75.398
72
1
10
115.862999
20
75.398
11
117.386999
21
75.398
97
0
75
0
76
1
98
0
0
HATCH
5
52
100
AcDbEntity
8
MULTILAYER
6
CONTINUOUS
62
256
370
-1
100
AcDbHatch
10
0
20
0
30
0
210
0
220
0
230
1
2
SOLID
70
1
71
0
91
1
92
0
93
4
72
1
10
117.386999
20
72.858
11
117.386999
21
74.382
72
1
10
117.386999
20
74.382
11
115.862999
21
74.382
72
1
10
115.862999
20
74.382
11
115.862999
21
72.858
72
1
10
115.862999
20
72.858
11
117.386999
21
72.858
97
0
75
0
76
1
98
0
0
HATCH
5
53
100
AcDbEntity
8
MULTILAYER
6
CONTINUOUS
62
256
370
-1
100
AcDbHatch
10
0
20
0
30
0
210
0
220
0
230
1
2
SOLID
70
1
71
0
91
1
92
0
93
4
72
1
10
117.386999
20
70.318
11
117.386999
21
71.842
72
1
10
117.386999
20
71.842
11
115.862999
21
71.842
72
1
10
115.862999
20
71.842
11
115.862999
21
70.318
72
1
10
115.862999
20
70.318
11
117.386999
21
70.318
97
0
75
0
76
1
98
0
0
HATCH
5
54
100
AcDbEntity
8
MULTILAYER
6
CONTINUOUS
62
256
370
-1
100
AcDbHatch
10
0
20
0
30
0
210
0
220
0
230
1
2
SOLID
70
1
71
0
91
1
92
0
93
4
72
1
10
117.386999
20
67.778
11
117.386999
21
69.302
72
1
10
117.386999
20
69.302
11
115.862999
21
69.302
72
1
10
115.862999
20
69.302
11
115.862999
21
67.778
72
1
10
115.862999
20
67.778
11
117.386999
21
67.778
97
0
75
0
76
1
98
0
0
HATCH
5
55
100
AcDbEntity
8
MULTILAYER
6
CONTINUOUS
62
256
370
-1
100
AcDbHatch
10
0
20
0
30
0
210
0
220
0
230
1
2
SOLID
70
1
71
0
91
1
92
0
93
4
72
1
10
117.386999
20
65.238
11
117.386999
21
66.762
72
1
10
117.386999
20
66.762
11
115.862999
21
66.762
72
1
10
115.862999
20
66.762
11
115.862999
21
65.238
72
1
10
115.862999
20
65.238
11
117.386999
21
65.238
97
0
75
0
76
1
98
0
0
HATCH
5
56
100
AcDbEntity
8
MULTILAYER
6
CONTINUOUS
62
256
370
-1
100
AcDbHatch
10
0
20
0
30
0
210
0
220
0
230
1
2
SOLID
70
1
71
0
91
1
92
0
93
4
72
1
10
114.846999
20
62.698
11
114.846999
21
64.222
72
1
10
114.846999
20
64.222
11
113.322999
21
64.222
72
1
10
113.322999
20
64.222
11
113.322999
21
62.698
72
1
10
113.322999
20
62.698
11
114.846999
21
62.698
97
0
75
0
76
1
98
0
0
HATCH
5
57
100
AcDbEntity
8
MULTILAYER
6
CONTINUOUS
62
256
370
-1
100
AcDbHatch
10
0
20
0
30
0
210
0
220
0
230
1
2
SOLID
70
1
71
0
91
1
92
0
93
4
72
1
10
114.846999
20
60.158
11
114.846999
21
61.682
72
1
10
114.846999
20
61.682
11
113.322999
21
61.682
72
1
10
113.322999
20
61.682
11
113.322999
21
60.158
72
1
10
113.322999
20
60.158
11
114.846999
21
60.158
97
0
75
0
76
1
98
0
0
HATCH
5
58
100
AcDbEntity
8
MULTILAYER
6
CONTINUOUS
62
256
370
-1
100
AcDbHatch
10
0
20
0
30
0
210
0
220
0
230
1
2
SOLID
70
1
71
0
91
1
92
0
93
4
72
1
10
114.846999
20
75.398
11
114.846999
21
76.922
72
1
10
114.846999
20
76.922
11
113.322999
21
76.922
72
1
10
113.322999
20
76.922
11
113.322999
21
75.398
72
1
10
113.322999
20
75.398
11
114.846999
21
75.398
97
0
75
0
76
1
98
0
0
HATCH
5
59
100
AcDbEntity
8
MULTILAYER
6
CONTINUOUS
62
256
370
-1
100
AcDbHatch
10
0
20
0
30
0
210
0
220
0
230
1
2
SOLID
70
1
71
0
91
1
92
0
93
4
72
1
10
114.846999
20
72.858
11
114.846999
21
74.382
72
1
10
114.846999
20
74.382
11
113.322999
21
74.382
72
1
10
113.322999
20
74.382
11
113.322999
21
72.858
72
1
10
113.322999
20
72.858
11
114.846999
21
72.858
97
0
75
0
76
1
98
0
0
HATCH
5
5A
100
AcDbEntity
8
MULTILAYER
6
CONTINUOUS
62
256
370
-1
100
AcDbHatch
10
0
20
0
30
0
210
0
220
0
230
1
2
SOLID
70
1
71
0
91
1
92
0
93
4
72
1
10
114.846999
20
70.318
11
114.846999
21
71.842
72
1
10
114.846999
20
71.842
11
113.322999
21
71.842
72
1
10
113.322999
20
71.842
11
113.322999
21
70.318
72
1
10
113.322999
20
70.318
11
114.846999
21
70.318
97
0
75
0
76
1
98
0
0
HATCH
5
5B
100
AcDbEntity
8
MULTILAYER
6
CONTINUOUS
62
256
370
-1
100
AcDbHatch
10
0
20
0
30
0
210
0
220
0
230
1
2
SOLID
70
1
71
0
91
1
92
0
93
4
72
1
10
114.846999
20
67.778
11
114.846999
21
69.302
72
1
10
114.846999
20
69.302
11
113.322999
21
69.302
72
1
10
113.322999
20
69.302
11
113.322999
21
67.778
72
1
10
113.322999
20
67.778
11
114.846999
21
67.778
97
0
75
0
76
1
98
0
0
HATCH
5
5C
100
AcDbEntity
8
MULTILAYER
6
CONTINUOUS
62
256
370
-1
100
AcDbHatch
10
0
20
0
30
0
210
0
220
0
230
1
2
SOLID
70
1
71
0
91
1
92
0
93
4
72
1
10
114.846999
20
65.238
11
114.846999
21
66.762
72
1
10
114.846999
20
66.762
11
113.322999
21
66.762
72
1
10
113.322999
20
66.762
11
113.322999
21
65.238
72
1
10
113.322999
20
65.238
11
114.846999
21
65.238
97
0
75
0
76
1
98
0
0
HATCH
5
5D
100
AcDbEntity
8
MULTILAYER
6
CONTINUOUS
62
256
370
-1
100
AcDbHatch
10
0
20
0
30
0
210
0
220
0
230
1
2
SOLID
70
1
71
0
91
1
92
0
93
4
72
1
10
114.846999
20
57.618
11
114.846999
21
59.142
72
1
10
114.846999
20
59.142
11
113.322999
21
59.142
72
1
10
113.322999
20
59.142
11
113.322999
21
57.618
72
1
10
113.322999
20
57.618
11
114.846999
21
57.618
97
0
75
0
76
1
98
0
0
HATCH
5
5E
100
AcDbEntity
8
MULTILAYER
6
CONTINUOUS
62
256
370
-1
100
AcDbHatch
10
0
20
0
30
0
210
0
220
0
230
1
2
SOLID
70
1
71
0
91
1
92
0
93
4
72
1
10
92.577999
20
49.808
11
94.101999
21
49.808
72
1
10
94.101999
20
49.808
11
94.101999
21
51.332
72
1
10
94.101999
20
51.332
11
92.577999
21
51.332
72
1
10
92.577999
20
51.332
11
92.577999
21
49.808
97
0
75
0
76
1
98
0
0
HATCH
5
5F
100
AcDbEntity
8
MULTILAYER
6
CONTINUOUS
62
256
370
-1
100
AcDbHatch
10
0
20
0
30
0
210
0
220
0
230
1
2
SOLID
70
1
71
0
91
1
92
0
93
4
72
1
10
92.577999
20
52.348
11
94.101999
21
52.348
72
1
10
94.101999
20
52.348
11
94.101999
21
53.872
72
1
10
94.101999
20
53.872
11
92.577999
21
53.872
72
1
10
92.577999
20
53.872
11
92.577999
21
52.348
97
0
75
0
76
1
98
0
0
HATCH
5
60
100
AcDbEntity
8
MULTILAYER
6
CONTINUOUS
62
256
370
-1
100
AcDbHatch
10
0
20
0
30
0
210
0
220
0
230
1
2
SOLID
70
1
71
0
91
1
92
0
93
4
72
1
10
90.037999
20
49.808
11
91.561999
21
49.808
72
1
10
91.561999
20
49.808
11
91.561999
21
51.332
72
1
10
91.561999
20
51.332
11
90.037999
21
51.332
72
1
10
90.037999
20
51.332
11
90.037999
21
49.808
97
0
75
0
76
1
98
0
0
HATCH
5
61
100
AcDbEntity
8
MULTILAYER
6
CONTINUOUS
62
256
370
-1
100
AcDbHatch
10
0
20
0
30
0
210
0
220
0
230
1
2
SOLID
70
1
71
0
91
1
92
0
93
4
72
1
10
90.037999
20
52.348
11
91.561999
21
52.348
72
1
10
91.561999
20
52.348
11
91.561999
21
53.872
72
1
10
91.561999
20
53.872
11
90.037999
21
53.872
72
1
10
90.037999
20
53.872
11
90.037999
21
52.348
97
0
75
0
76
1
98
0
0
HATCH
5
62
100
AcDbEntity
8
MULTILAYER
6
CONTINUOUS
62
256
370
-1
100
AcDbHatch
10
0
20
0
30
0
210
0
220
0
230
1
2
SOLID
70
1
71
0
91
1
92
0
93
4
72
1
10
87.497999
20
49.808
11
89.021999
21
49.808
72
1
10
89.021999
20
49.808
11
89.021999
21
51.332
72
1
10
89.021999
20
51.332
11
87.497999
21
51.332
72
1
10
87.497999
20
51.332
11
87.497999
21
49.808
97
0
75
0
76
1
98
0
0
HATCH
5
63
100
AcDbEntity
8
MULTILAYER
6
CONTINUOUS
62
256
370
-1
100
AcDbHatch
10
0
20
0
30
0
210
0
220
0
230
1
2
SOLID
70
1
71
0
91
1
92
0
93
4
72
1
10
87.497999
20
52.348
11
89.021999
21
52.348
72
1
10
89.021999
20
52.348
11
89.021999
21
53.872
72
1
10
89.021999
20
53.872
11
87.497999
21
53.872
72
1
10
87.497999
20
53.872
11
87.497999
21
52.348
97
0
75
0
76
1
98
0
0
HATCH
5
64
100
AcDbEntity
8
MULTILAYER
6
CONTINUOUS
62
256
370
-1
100
AcDbHatch
10
0
20
0
30
0
210
0
220
0
230
1
2
SOLID
70
1
71
0
91
1
92
0
93
4
72
1
10
84.957999
20
49.808
11
86.481999
21
49.808
72
1
10
86.481999
20
49.808
11
86.481999
21
51.332
72
1
10
86.481999
20
51.332
11
84.957999
21
51.332
72
1
10
84.957999
20
51.332
11
84.957999
21
49.808
97
0
75
0
76
1
98
0
0
HATCH
5
65
100
AcDbEntity
8
MULTILAYER
6
CONTINUOUS
62
256
370
-1
100
AcDbHatch
10
0
20
0
30
0
210
0
220
0
230
1
2
SOLID
70
1
71
0
91
1
92
0
93
4
72
1
10
84.957999
20
52.348
11
86.481999
21
52.348
72
1
10
86.481999
20
52.348
11
86.481999
21
53.872
72
1
10
86.481999
20
53.872
11
84.957999
21
53.872
72
1
10
84.957999
20
53.872
11
84.957999
21
52.348
97
0
75
0
76
1
98
0
0
HATCH
5
66
100
AcDbEntity
8
MULTILAYER
6
CONTINUOUS
62
256
370
-1
100
AcDbHatch
10
0
20
0
30
0
210
0
220
0
230
1
2
SOLID
70
1
71
0
91
1
92
0
93
4
72
1
10
82.417999
20
49.808
11
83.941999
21
49.808
72
1
10
83.941999
20
49.808
11
83.941999
21
51.332
72
1
10
83.941999
20
51.332
11
82.417999
21
51.332
72
1
10
82.417999
20
51.332
11
82.417999
21
49.808
97
0
75
0
76
1
98
0
0
HATCH
5
67
100
AcDbEntity
8
MULTILAYER
6
CONTINUOUS
62
256
370
-1
100
AcDbHatch
10
0
20
0
30
0
210
0
220
0
230
1
2
SOLID
70
1
71
0
91
1
92
0
93
4
72
1
10
82.417999
20
52.348
11
83.941999
21
52.348
72
1
10
83.941999
20
52.348
11
83.941999
21
53.872
72
1
10
83.941999
20
53.872
11
82.417999
21
53.872
72
1
10
82.417999
20
53.872
11
82.417999
21
52.348
97
0
75
0
76
1
98
0
0
HATCH
5
68
100
AcDbEntity
8
MULTILAYER
6
CONTINUOUS
62
256
370
-1
100
AcDbHatch
10
0
20
0
30
0
210
0
220
0
230
1
2
SOLID
70
1
71
0
91
1
92
0
93
4
72
1
10
79.877999
20
49.808
11
81.401999
21
49.808
72
1
10
81.401999
20
49.808
11
81.401999
21
51.332
72
1
10
81.401999
20
51.332
11
79.877999
21
51.332
72
1
10
79.877999
20
51.332
11
79.877999
21
49.808
97
0
75
0
76
1
98
0
0
HATCH
5
69
100
AcDbEntity
8
MULTILAYER
6
CONTINUOUS
62
256
370
-1
100
AcDbHatch
10
0
20
0
30
0
210
0
220
0
230
1
2
SOLID
70
1
71
0
91
1
92
0
93
4
72
1
10
79.877999
20
52.348
11
81.401999
21
52.348
72
1
10
81.401999
20
52.348
11
81.401999
21
53.872
72
1
10
81.401999
20
53.872
11
79.877999
21
53.872
72
1
10
79.877999
20
53.872
11
79.877999
21
52.348
97
0
75
0
76
1
98
0
0
HATCH
5
6A
100
AcDbEntity
8
MULTILAYER
6
CONTINUOUS
62
256
370
-1
100
AcDbHatch
10
0
20
0
30
0
210
0
220
0
230
1
2
SOLID
70
1
71
0
91
1
92
0
93
4
72
1
10
77.337999
20
49.808
11
78.861999
21
49.808
72
1
10
78.861999
20
49.808
11
78.861999
21
51.332
72
1
10
78.861999
20
51.332
11
77.337999
21
51.332
72
1
10
77.337999
20
51.332
11
77.337999
21
49.808
97
0
75
0
76
1
98
0
0
HATCH
5
6B
100
AcDbEntity
8
MULTILAYER
6
CONTINUOUS
62
256
370
-1
100
AcDbHatch
10
0
20
0
30
0
210
0
220
0
230
1
2
SOLID
70
1
71
0
91
1
92
0
93
4
72
1
10
77.337999
20
52.348
11
78.861999
21
52.348
72
1
10
78.861999
20
52.348
11
78.861999
21
53.872
72
1
10
78.861999
20
53.872
11
77.337999
21
53.872
72
1
10
77.337999
20
53.872
11
77.337999
21
52.348
97
0
75
0
76
1
98
0
0
HATCH
5
6C
100
AcDbEntity
8
MULTILAYER
6
CONTINUOUS
62
256
370
-1
100
AcDbHatch
10
0
20
0
30
0
210
0
220
0
230
1
2
SOLID
70
1
71
0
91
1
92
0
93
4
72
1
10
74.797999
20
49.808
11
76.321999
21
49.808
72
1
10
76.321999
20
49.808
11
76.321999
21
51.332
72
1
10
76.321999
20
51.332
11
74.797999
21
51.332
72
1
10
74.797999
20
51.332
11
74.797999
21
49.808
97
0
75
0
76
1
98
0
0
HATCH
5
6D
100
AcDbEntity
8
MULTILAYER
6
CONTINUOUS
62
256
370
-1
100
AcDbHatch
10
0
20
0
30
0
210
0
220
0
230
1
2
SOLID
70
1
71
0
91
1
92
0
93
4
72
1
10
74.797999
20
52.348
11
76.321999
21
52.348
72
1
10
76.321999
20
52.348
11
76.321999
21
53.872
72
1
10
76.321999
20
53.872
11
74.797999
21
53.872
72
1
10
74.797999
20
53.872
11
74.797999
21
52.348
97
0
75
0
76
1
98
0
0
HATCH
5
6E
100
AcDbEntity
8
MULTILAYER
6
CONTINUOUS
62
256
370
-1
100
AcDbHatch
10
0
20
0
30
0
210
0
220
0
230
1
2
SOLID
70
1
71
0
91
1
92
0
93
4
72
1
10
72.257999
20
49.808
11
73.781999
21
49.808
72
1
10
73.781999
20
49.808
11
73.781999
21
51.332
72
1
10
73.781999
20
51.332
11
72.257999
21
51.332
72
1
10
72.257999
20
51.332
11
72.257999
21
49.808
97
0
75
0
76
1
98
0
0
HATCH
5
6F
100
AcDbEntity
8
MULTILAYER
6
CONTINUOUS
62
256
370
-1
100
AcDbHatch
10
0
20
0
30
0
210
0
220
0
230
1
2
SOLID
70
1
71
0
91
1
92
0
93
4
72
1
10
72.257999
20
52.348
11
73.781999
21
52.348
72
1
10
73.781999
20
52.348
11
73.781999
21
53.872
72
1
10
73.781999
20
53.872
11
72.257999
21
53.872
72
1
10
72.257999
20
53.872
11
72.257999
21
52.348
97
0
75
0
76
1
98
0
0
HATCH
5
70
100
AcDbEntity
8
MULTILAYER
6
CONTINUOUS
62
256
370
-1
100
AcDbHatch
10
0
20
0
30
0
210
0
220
0
230
1
2
SOLID
70
1
71
0
91
1
92
0
93
4
72
1
10
69.717999
20
49.808
11
71.241999
21
49.808
72
1
10
71.241999
20
49.808
11
71.241999
21
51.332
72
1
10
71.241999
20
51.332
11
69.717999
21
51.332
72
1
10
69.717999
20
51.332
11
69.717999
21
49.808
97
0
75
0
76
1
98
0
0
HATCH
5
71
100
AcDbEntity
8
MULTILAYER
6
CONTINUOUS
62
256
370
-1
100
AcDbHatch
10
0
20
0
30
0
210
0
220
0
230
1
2
SOLID
70
1
71
0
91
1
92
0
93
4
72
1
10
69.717999
20
52.348
11
71.241999
21
52.348
72
1
10
71.241999
20
52.348
11
71.241999
21
53.872
72
1
10
71.241999
20
53.872
11
69.717999
21
53.872
72
1
10
69.717999
20
53.872
11
69.717999
21
52.348
97
0
75
0
76
1
98
0
0
HATCH
5
72
100
AcDbEntity
8
MULTILAYER
6
CONTINUOUS
62
256
370
-1
100
AcDbHatch
10
0
20
0
30
0
210
0
220
0
230
1
2
SOLID
70
1
71
0
91
1
92
0
93
4
72
1
10
67.177999
20
49.808
11
68.701999
21
49.808
72
1
10
68.701999
20
49.808
11
68.701999
21
51.332
72
1
10
68.701999
20
51.332
11
67.177999
21
51.332
72
1
10
67.177999
20
51.332
11
67.177999
21
49.808
97
0
75
0
76
1
98
0
0
HATCH
5
73
100
AcDbEntity
8
MULTILAYER
6
CONTINUOUS
62
256
370
-1
100
AcDbHatch
10
0
20
0
30
0
210
0
220
0
230
1
2
SOLID
70
1
71
0
91
1
92
0
93
4
72
1
10
67.177999
20
52.348
11
68.701999
21
52.348
72
1
10
68.701999
20
52.348
11
68.701999
21
53.872
72
1
10
68.701999
20
53.872
11
67.177999
21
53.872
72
1
10
67.177999
20
53.872
11
67.177999
21
52.348
97
0
75
0
76
1
98
0
0
HATCH
5
74
100
AcDbEntity
8
MULTILAYER
6
CONTINUOUS
62
256
370
-1
100
AcDbHatch
10
0
20
0
30
0
210
0
220
0
230
1
2
SOLID
70
1
71
0
91
1
92
0
93
4
72
1
10
64.637999
20
49.808
11
66.161999
21
49.808
72
1
10
66.161999
20
49.808
11
66.161999
21
51.332
72
1
10
66.161999
20
51.332
11
64.637999
21
51.332
72
1
10
64.637999
20
51.332
11
64.637999
21
49.808
97
0
75
0
76
1
98
0
0
HATCH
5
75
100
AcDbEntity
8
MULTILAYER
6
CONTINUOUS
62
256
370
-1
100
AcDbHatch
10
0
20
0
30
0
210
0
220
0
230
1
2
SOLID
70
1
71
0
91
1
92
0
93
4
72
1
10
64.637999
20
52.348
11
66.161999
21
52.348
72
1
10
66.161999
20
52.348
11
66.161999
21
53.872
72
1
10
66.161999
20
53.872
11
64.637999
21
53.872
72
1
10
64.637999
20
53.872
11
64.637999
21
52.348
97
0
75
0
76
1
98
0
0
HATCH
5
76
100
AcDbEntity
8
MULTILAYER
6
CONTINUOUS
62
256
370
-1
100
AcDbHatch
10
0
20
0
30
0
210
0
220
0
230
1
2
SOLID
70
1
71
0
91
1
92
0
93
4
72
1
10
62.097999
20
49.808
11
63.621999
21
49.808
72
1
10
63.621999
20
49.808
11
63.621999
21
51.332
72
1
10
63.621999
20
51.332
11
62.097999
21
51.332
72
1
10
62.097999
20
51.332
11
62.097999
21
49.808
97
0
75
0
76
1
98
0
0
HATCH
5
77
100
AcDbEntity
8
MULTILAYER
6
CONTINUOUS
62
256
370
-1
100
AcDbHatch
10
0
20
0
30
0
210
0
220
0
230
1
2
SOLID
70
1
71
0
91
1
92
0
93
4
72
1
10
62.097999
20
52.348
11
63.621999
21
52.348
72
1
10
63.621999
20
52.348
11
63.621999
21
53.872
72
1
10
63.621999
20
53.872
11
62.097999
21
53.872
72
1
10
62.097999
20
53.872
11
62.097999
21
52.348
97
0
75
0
76
1
98
0
0
LINE
5
78
100
AcDbEntity
8
MECHANICAL1
6
ByLayer
62
256
370
-1
100
AcDbLine
10
120.705568
20
82.51
11
120.705568
21
103.92709
0
LINE
5
79
100
AcDbEntity
8
MECHANICAL1
6
ByLayer
62
256
370
-1
100
AcDbLine
10
117.706955
20
103.92709
11
120.705568
21
103.92709
0
LINE
5
7A
100
AcDbEntity
8
MECHANICAL1
6
ByLayer
62
256
370
-1
100
AcDbLine
10
117.706955
20
82.51
11
117.706955
21
103.92709
0
LINE
5
7B
100
AcDbEntity
8
MECHANICAL1
6
ByLayer
62
256
370
-1
100
AcDbLine
10
117.706955
20
82.51
11
120.705568
21
82.51
0
LINE
5
7C
100
AcDbEntity
8
MECHANICAL1
6
ByLayer
62
256
370
-1
100
AcDbLine
10
74.05068
20
64.768735
11
74.05068
21
86.26
0
LINE
5
7D
100
AcDbEntity
8
MECHANICAL1
6
ByLayer
62
256
370
-1
100
AcDbLine
10
71.140262
20
86.26
11
74.05068
21
86.26
0
LINE
5
7E
100
AcDbEntity
8
MECHANICAL1
6
ByLayer
62
256
370
-1
100
AcDbLine
10
71.140262
20
64.768735
11
71.140262
21
86.26
0
LINE
5
7F
100
AcDbEntity
8
MECHANICAL1
6
ByLayer
62
256
370
-1
100
AcDbLine
10
71.140262
20
64.768735
11
74.05068
21
64.768735
0
LINE
5
80
100
AcDbEntity
8
MECHANICAL1
6
ByLayer
62
256
370
-1
100
AcDbLine
10
78.460404
20
62.034704
11
78.460404
21
86.288189
0
LINE
5
81
100
AcDbEntity
8
MECHANICAL1
6
ByLayer
62
256
370
-1
100
AcDbLine
10
60.96
20
62.034704
11
78.460404
21
62.034704
0
LINE
5
82
100
AcDbEntity
8
MECHANICAL1
6
ByLayer
62
256
370
-1
100
AcDbLine
10
60.96
20
86.288189
11
78.460404
21
86.288189
0
LINE
5
83
100
AcDbEntity
8
MECHANICAL1
6
ByLayer
62
256
370
-1
100
AcDbLine
10
65.259999
20
92.990972
11
65.259999
21
100.575697
0
LINE
5
84
100
AcDbEntity
8
MECHANICAL1
6
ByLayer
62
256
370
-1
100
AcDbLine
10
60.96
20
92.990972
11
65.259999
21
92.990972
0
LINE
5
85
100
AcDbEntity
8
MECHANICAL1
6
ByLayer
62
256
370
-1
100
AcDbLine
10
60.96
20
100.575697
11
65.259999
21
100.575697
0
LINE
5
86
100
AcDbEntity
8
MECHANICAL1
6
ByLayer
62
256
370
-1
100
AcDbLine
10
112.944453
20
93.696528
11
112.944453
21
104.459999
0
LINE
5
87
100
AcDbEntity
8
MECHANICAL1
6
ByLayer
62
256
370
-1
100
AcDbLine
10
98.039583
20
93.696528
11
98.039583
21
104.459999
0
LINE
5
88
100
AcDbEntity
8
MECHANICAL1
6
ByLayer
62
256
370
-1
100
AcDbLine
10
98.039583
20
93.696528
11
112.944453
21
93.696528
0
LINE
5
89
100
AcDbEntity
8
MECHANICAL1
6
ByLayer
62
256
370
-1
100
AcDbLine
10
126.702792
20
102.163199
11
145.96
21
102.163199
0
LINE
5
8A
100
AcDbEntity
8
MECHANICAL1
6
ByLayer
62
256
370
-1
100
AcDbLine
10
126.702792
20
86.376386
11
126.702792
21
102.163199
0
LINE
5
8B
100
AcDbEntity
8
MECHANICAL1
6
ByLayer
62
256
370
-1
100
AcDbLine
10
126.702792
20
86.376386
11
145.96
21
86.376386
0
LINE
5
8C
100
AcDbEntity
8
MECHANICAL1
6
ByLayer
62
256
370
-1
100
AcDbLine
10
136.315991
20
66.797207
11
136.315991
21
80.114574
0
LINE
5
8D
100
AcDbEntity
8
MECHANICAL1
6
ByLayer
62
256
370
-1
100
AcDbLine
10
136.315991
20
66.797207
11
145.96
21
66.797207
0
LINE
5
8E
100
AcDbEntity
8
MECHANICAL1
6
ByLayer
62
256
370
-1
100
AcDbLine
10
136.315991
20
80.114574
11
145.96
21
80.114574
0
LINE
5
8F
100
AcDbEntity
8
MECHANICAL1
6
ByLayer
62
256
370
-1
100
AcDbLine
10
131.729879
20
48.26
11
131.729879
21
58.947898
0
LINE
5
90
100
AcDbEntity
8
MECHANICAL1
6
ByLayer
62
256
370
-1
100
AcDbLine
10
119.470843
20
48.26
11
119.470843
21
58.947898
0
LINE
5
91
100
AcDbEntity
8
MECHANICAL1
6
ByLayer
62
256
370
-1
100
AcDbLine
10
119.470843
20
58.947898
11
131.729879
21
58.947898
0
LINE
5
92
100
AcDbEntity
8
MECHANICAL1
6
ByLayer
62
256
370
-1
100
AcDbLine
10
112.415284
20
50.569421
11
112.415284
21
60.711786
0
LINE
5
93
100
AcDbEntity
8
MECHANICAL1
6
ByLayer
62
256
370
-1
100
AcDbLine
10
101.655557
20
60.711786
11
112.415284
21
60.711786
0
LINE
5
94
100
AcDbEntity
8
MECHANICAL1
6
ByLayer
62
256
370
-1
100
AcDbLine
10
101.655557
20
50.569421
11
101.655557
21
60.711786
0
LINE
5
95
100
AcDbEntity
8
MECHANICAL1
6
ByLayer
62
256
370
-1
100
AcDbLine
10
101.655557
20
50.569421
11
112.415284
21
50.569421
0
LINE
5
96
100
AcDbEntity
8
MECHANICAL1
6
ByLayer
62
256
370
-1
100
AcDbLine
10
111.092369
20
48.26
11
111.092369
21
50.569421
0
LINE
5
97
100
AcDbEntity
8
MECHANICAL1
6
ByLayer
62
256
370
-1
100
AcDbLine
10
102.802085
20
48.26
11
102.802085
21
50.569421
0
LINE
5
98
100
AcDbEntity
8
MECHANICAL1
6
ByLayer
62
256
370
-1
100
AcDbLine
10
102.802085
20
50.569421
11
111.092369
21
50.569421
0
LINE
5
99
100
AcDbEntity
8
MECHANICAL1
6
ByLayer
62
256
370
-1
100
AcDbLine
10
60.96
20
48.26
11
145.960198
21
48.26
0
LINE
5
9A
100
AcDbEntity
8
MECHANICAL1
6
ByLayer
62
256
370
-1
100
AcDbLine
10
60.96
20
48.26
11
60.96
21
104.4597
0
LINE
5
9B
100
AcDbEntity
8
TOPOVERLAY
6
ByLayer
62
256
370
-1
100
AcDbLine
10
60.96
20
48.26
11
145.96
21
48.26
0
LINE
5
9C
100
AcDbEntity
8
TOPOVERLAY
6
ByLayer
62
256
370
-1
100
AcDbLine
10
60.96
20
104.459999
11
145.96
21
104.459999
0
LINE
5
9D
100
AcDbEntity
8
TOPOVERLAY
6
ByLayer
62
256
370
-1
100
AcDbLine
10
61.589999
20
54.38
11
94.609999
21
54.38
0
LINE
5
9E
100
AcDbEntity
8
TOPOVERLAY
6
ByLayer
62
256
370
-1
100
AcDbLine
10
122.11
20
44.36
11
129.184999
21
44.36
0
LINE
5
9F
100
AcDbEntity
8
TOPOVERLAY
6
ByLayer
62
256
370
-1
100
AcDbLine
10
119.46
20
47.884999
11
131.734999
21
47.884999
0
LINE
5
A0
100
AcDbEntity
8
TOPOVERLAY
6
ByLayer
62
256
370
-1
100
AcDbLine
10
61.589999
20
49.3
11
94.609999
21
49.3
0
LINE
5
A1
100
AcDbEntity
8
TOPOVERLAY
6
ByLayer
62
256
370
-1
100
AcDbLine
10
145.96
20
66.785
11
153.484999
21
66.785
0
LINE
5
A2
100
AcDbEntity
8
TOPOVERLAY
6
ByLayer
62
256
370
-1
100
AcDbLine
10
145.96
20
80.11
11
153.484999
21
80.11
0
LINE
5
A3
100
AcDbEntity
8
TOPOVERLAY
6
ByLayer
62
256
370
-1
100
AcDbLine
10
102.81
20
41.159999
11
111.085
21
41.159999
0
LINE
5
A4
100
AcDbEntity
8
TOPOVERLAY
6
ByLayer
62
256
370
-1
100
AcDbLine
10
115.354999
20
59.65
11
117.894999
21
59.65
0
LINE
5
A5
100
AcDbEntity
8
TOPOVERLAY
6
ByLayer
62
256
370
-1
100
AcDbLine
10
115.354999
20
74.89
11
117.894999
21
74.89
0
LINE
5
A6
100
AcDbEntity
8
TOPOVERLAY
6
ByLayer
62
256
370
-1
100
AcDbLine
10
115.354999
20
77.43
11
117.894999
21
77.43
0
LINE
5
A7
100
AcDbEntity
8
TOPOVERLAY
6
ByLayer
62
256
370
-1
100
AcDbLine
10
98.035001
20
105.61
11
112.96
21
105.61
0
LINE
5
A8
100
AcDbEntity
8
TOPOVERLAY
6
ByLayer
62
256
370
-1
100
AcDbLine
10
42.96
20
62.034999
11
60.935001
21
62.034999
0
LINE
5
A9
100
AcDbEntity
8
TOPOVERLAY
6
ByLayer
62
256
370
-1
100
AcDbLine
10
42.96
20
86.284999
11
60.96
21
86.284999
0
LINE
5
AA
100
AcDbEntity
8
TOPOVERLAY
6
ByLayer
62
256
370
-1
100
AcDbLine
10
60.96
20
48.26
11
60.96
21
104.459999
0
LINE
5
AB
100
AcDbEntity
8
TOPOVERLAY
6
ByLayer
62
256
370
-1
100
AcDbLine
10
117.894999
20
59.65
11
117.894999
21
77.43
0
LINE
5
AC
100
AcDbEntity
8
TOPOVERLAY
6
ByLayer
62
256
370
-1
100
AcDbLine
10
60.209999
20
92.985001
11
60.96
21
92.985001
0
LINE
5
AD
100
AcDbEntity
8
TOPOVERLAY
6
ByLayer
62
256
370
-1
100
AcDbLine
10
145.96
20
86.385001
11
146.960001
21
86.385001
0
LINE
5
AE
100
AcDbEntity
8
TOPOVERLAY
6
ByLayer
62
256
370
-1
100
AcDbLine
10
145.96
20
102.159999
11
146.960001
21
102.159999
0
LINE
5
AF
100
AcDbEntity
8
TOPOVERLAY
6
ByLayer
62
256
370
-1
100
AcDbLine
10
112.814999
20
57.11
11
115.354999
21
57.11
0
LINE
5
B0
100
AcDbEntity
8
TOPOVERLAY
6
ByLayer
62
256
370
-1
100
AcDbLine
10
112.814999
20
74.89
11
115.354999
21
74.89
0
LINE
5
B1
100
AcDbEntity
8
TOPOVERLAY
6
ByLayer
62
256
370
-1
100
AcDbLine
10
112.814999
20
77.43
11
115.354999
21
77.43
0
LINE
5
B2
100
AcDbEntity
8
TOPOVERLAY
6
ByLayer
62
256
370
-1
100
AcDbLine
10
60.209999
20
100.585001
11
60.96
21
100.585001
0
LINE
5
B3
100
AcDbEntity
8
TOPOVERLAY
6
ByLayer
62
256
370
-1
100
AcDbLine
10
153.484999
20
66.785
11
153.484999
21
80.11
0
LINE
5
B4
100
AcDbEntity
8
TOPOVERLAY
6
ByLayer
62
256
370
-1
100
AcDbLine
10
145.96
20
48.26
11
145.96
21
104.459999
0
LINE
5
B5
100
AcDbEntity
8
TOPOVERLAY
6
ByLayer
62
256
370
-1
100
AcDbLine
10
111.085
20
41.159999
11
111.085
21
48.26
0
LINE
5
B6
100
AcDbEntity
8
TOPOVERLAY
6
ByLayer
62
256
370
-1
100
AcDbLine
10
102.81
20
41.159999
11
102.81
21
48.26
0
LINE
5
B7
100
AcDbEntity
8
TOPOVERLAY
6
ByLayer
62
256
370
-1
100
AcDbLine
10
42.96
20
62.034999
11
42.96
21
86.284999
0
LINE
5
B8
100
AcDbEntity
8
TOPOVERLAY
6
ByLayer
62
256
370
-1
100
AcDbLine
10
146.960001
20
86.385001
11
146.960001
21
102.159999
0
LINE
5
B9
100
AcDbEntity
8
TOPOVERLAY
6
ByLayer
62
256
370
-1
100
AcDbLine
10
115.354999
20
59.65
11
115.354999
21
77.43
0
LINE
5
BA
100
AcDbEntity
8
TOPOVERLAY
6
ByLayer
62
256
370
-1
100
AcDbLine
10
115.354999
20
57.11
11
115.354999
21
77.43
0
LINE
5
BB
100
AcDbEntity
8
TOPOVERLAY
6
ByLayer
62
256
370
-1
100
AcDbLine
10
112.814999
20
57.11
11
112.814999
21
77.43
0
LINE
5
BC
100
AcDbEntity
8
TOPOVERLAY
6
ByLayer
62
256
370
-1
100
AcDbLine
10
94.609999
20
49.3
11
94.609999
21
54.38
0
LINE
5
BD
100
AcDbEntity
8
TOPOVERLAY
6
ByLayer
62
256
370
-1
100
AcDbLine
10
61.589999
20
49.3
11
61.589999
21
54.38
0
LINE
5
BE
100
AcDbEntity
8
TOPOVERLAY
6
ByLayer
62
256
370
-1
100
AcDbLine
10
60.209999
20
92.985001
11
60.209999
21
100.585001
0
LINE
5
BF
100
AcDbEntity
8
TOPOVERLAY
6
ByLayer
62
256
370
-1
100
AcDbLine
10
131.734999
20
47.884999
11
131.734999
21
48.26
0
LINE
5
C0
100
AcDbEntity
8
TOPOVERLAY
6
ByLayer
62
256
370
-1
100
AcDbLine
10
129.184999
20
44.36
11
129.184999
21
47.884999
0
LINE
5
C1
100
AcDbEntity
8
TOPOVERLAY
6
ByLayer
62
256
370
-1
100
AcDbLine
10
122.11
20
44.36
11
122.11
21
47.884999
0
LINE
5
C2
100
AcDbEntity
8
TOPOVERLAY
6
ByLayer
62
256
370
-1
100
AcDbLine
10
119.46
20
47.884999
11
119.46
21
48.26
0
LINE
5
C3
100
AcDbEntity
8
TOPOVERLAY
6
ByLayer
62
256
370
-1
100
AcDbLine
10
112.96
20
104.459999
11
112.96
21
105.61
0
LINE
5
C4
100
AcDbEntity
8
TOPOVERLAY
6
ByLayer
62
256
370
-1
100
AcDbLine
10
98.035001
20
104.459999
11
98.035001
21
105.61
0
LWPOLYLINE
5
C5
100
AcDbEntity
8
MULTILAYER
6
ByLayer
62
256
370
-1
100
AcDbPolyline
90
4
70
1
43
0
10
62.097999
20
52.348
10
63.621999
20
52.348
10
63.621999
20
53.872
10
62.097999
20
53.872
0
LWPOLYLINE
5
C6
100
AcDbEntity
8
MULTILAYER
6
ByLayer
62
256
370
-1
100
AcDbPolyline
90
4
70
1
43
0
10
62.097999
20
49.808
10
63.621999
20
49.808
10
63.621999
20
51.332
10
62.097999
20
51.332
0
LWPOLYLINE
5
C7
100
AcDbEntity
8
MULTILAYER
6
ByLayer
62
256
370
-1
100
AcDbPolyline
90
4
70
1
43
0
10
64.637999
20
52.348
10
66.161999
20
52.348
10
66.161999
20
53.872
10
64.637999
20
53.872
0
LWPOLYLINE
5
C8
100
AcDbEntity
8
MULTILAYER
6
ByLayer
62
256
370
-1
100
AcDbPolyline
90
4
70
1
43
0
10
64.637999
20
49.808
10
66.161999
20
49.808
10
66.161999
20
51.332
10
64.637999
20
51.332
0
LWPOLYLINE
5
C9
100
AcDbEntity
8
MULTILAYER
6
ByLayer
62
256
370
-1
100
AcDbPolyline
90
4
70
1
43
0
10
67.177999
20
52.348
10
68.701999
20
52.348
10
68.701999
20
53.872
10
67.177999
20
53.872
0
LWPOLYLINE
5
CA
100
AcDbEntity
8
MULTILAYER
6
ByLayer
62
256
370
-1
100
AcDbPolyline
90
4
70
1
43
0
10
67.177999
20
49.808
10
68.701999
20
49.808
10
68.701999
20
51.332
10
67.177999
20
51.332
0
LWPOLYLINE
5
CB
100
AcDbEntity
8
MULTILAYER
6
ByLayer
62
256
370
-1
100
AcDbPolyline
90
4
70
1
43
0
10
69.717999
20
52.348
10
71.241999
20
52.348
10
71.241999
20
53.872
10
69.717999
20
53.872
0
LWPOLYLINE
5
CC
100
AcDbEntity
8
MULTILAYER
6
ByLayer
62
256
370
-1
100
AcDbPolyline
90
4
70
1
43
0
10
69.717999
20
49.808
10
71.241999
20
49.808
10
71.241999
20
51.332
10
69.717999
20
51.332
0
LWPOLYLINE
5
CD
100
AcDbEntity
8
MULTILAYER
6
ByLayer
62
256
370
-1
100
AcDbPolyline
90
4
70
1
43
0
10
72.257999
20
52.348
10
73.781999
20
52.348
10
73.781999
20
53.872
10
72.257999
20
53.872
0
LWPOLYLINE
5
CE
100
AcDbEntity
8
MULTILAYER
6
ByLayer
62
256
370
-1
100
AcDbPolyline
90
4
70
1
43
0
10
72.257999
20
49.808
10
73.781999
20
49.808
10
73.781999
20
51.332
10
72.257999
20
51.332
0
LWPOLYLINE
5
CF
100
AcDbEntity
8
MULTILAYER
6
ByLayer
62
256
370
-1
100
AcDbPolyline
90
4
70
1
43
0
10
74.797999
20
52.348
10
76.321999
20
52.348
10
76.321999
20
53.872
10
74.797999
20
53.872
0
LWPOLYLINE
5
D0
100
AcDbEntity
8
MULTILAYER
6
ByLayer
62
256
370
-1
100
AcDbPolyline
90
4
70
1
43
0
10
74.797999
20
49.808
10
76.321999
20
49.808
10
76.321999
20
51.332
10
74.797999
20
51.332
0
LWPOLYLINE
5
D1
100
AcDbEntity
8
MULTILAYER
6
ByLayer
62
256
370
-1
100
AcDbPolyline
90
4
70
1
43
0
10
77.337999
20
52.348
10
78.861999
20
52.348
10
78.861999
20
53.872
10
77.337999
20
53.872
0
LWPOLYLINE
5
D2
100
AcDbEntity
8
MULTILAYER
6
ByLayer
62
256
370
-1
100
AcDbPolyline
90
4
70
1
43
0
10
77.337999
20
49.808
10
78.861999
20
49.808
10
78.861999
20
51.332
10
77.337999
20
51.332
0
LWPOLYLINE
5
D3
100
AcDbEntity
8
MULTILAYER
6
ByLayer
62
256
370
-1
100
AcDbPolyline
90
4
70
1
43
0
10
79.877999
20
52.348
10
81.401999
20
52.348
10
81.401999
20
53.872
10
79.877999
20
53.872
0
LWPOLYLINE
5
D4
100
AcDbEntity
8
MULTILAYER
6
ByLayer
62
256
370
-1
100
AcDbPolyline
90
4
70
1
43
0
10
79.877999
20
49.808
10
81.401999
20
49.808
10
81.401999
20
51.332
10
79.877999
20
51.332
0
LWPOLYLINE
5
D5
100
AcDbEntity
8
MULTILAYER
6
ByLayer
62
256
370
-1
100
AcDbPolyline
90
4
70
1
43
0
10
82.417999
20
52.348
10
83.941999
20
52.348
10
83.941999
20
53.872
10
82.417999
20
53.872
0
LWPOLYLINE
5
D6
100
AcDbEntity
8
MULTILAYER
6
ByLayer
62
256
370
-1
100
AcDbPolyline
90
4
70
1
43
0
10
82.417999
20
49.808
10
83.941999
20
49.808
10
83.941999
20
51.332
10
82.417999
20
51.332
0
LWPOLYLINE
5
D7
100
AcDbEntity
8
MULTILAYER
6
ByLayer
62
256
370
-1
100
AcDbPolyline
90
4
70
1
43
0
10
84.957999
20
52.348
10
86.481999
20
52.348
10
86.481999
20
53.872
10
84.957999
20
53.872
0
LWPOLYLINE
5
D8
100
AcDbEntity
8
MULTILAYER
6
ByLayer
62
256
370
-1
100
AcDbPolyline
90
4
70
1
43
0
10
84.957999
20
49.808
10
86.481999
20
49.808
10
86.481999
20
51.332
10
84.957999
20
51.332
0
LWPOLYLINE
5
D9
100
AcDbEntity
8
MULTILAYER
6
ByLayer
62
256
370
-1
100
AcDbPolyline
90
4
70
1
43
0
10
87.497999
20
52.348
10
89.021999
20
52.348
10
89.021999
20
53.872
10
87.497999
20
53.872
0
LWPOLYLINE
5
DA
100
AcDbEntity
8
MULTILAYER
6
ByLayer
62
256
370
-1
100
AcDbPolyline
90
4
70
1
43
0
10
87.497999
20
49.808
10
89.021999
20
49.808
10
89.021999
20
51.332
10
87.497999
20
51.332
0
LWPOLYLINE
5
DB
100
AcDbEntity
8
MULTILAYER
6
ByLayer
62
256
370
-1
100
AcDbPolyline
90
4
70
1
43
0
10
90.037999
20
52.348
10
91.561999
20
52.348
10
91.561999
20
53.872
10
90.037999
20
53.872
0
LWPOLYLINE
5
DC
100
AcDbEntity
8
MULTILAYER
6
ByLayer
62
256
370
-1
100
AcDbPolyline
90
4
70
1
43
0
10
90.037999
20
49.808
10
91.561999
20
49.808
10
91.561999
20
51.332
10
90.037999
20
51.332
0
LWPOLYLINE
5
DD
100
AcDbEntity
8
MULTILAYER
6
ByLayer
62
256
370
-1
100
AcDbPolyline
90
4
70
1
43
0
10
92.577999
20
52.348
10
94.101999
20
52.348
10
94.101999
20
53.872
10
92.577999
20
53.872
0
LWPOLYLINE
5
DE
100
AcDbEntity
8
MULTILAYER
6
ByLayer
62
256
370
-1
100
AcDbPolyline
90
4
70
1
43
0
10
92.577999
20
49.808
10
94.101999
20
49.808
10
94.101999
20
51.332
10
92.577999
20
51.332
0
LWPOLYLINE
5
DF
100
AcDbEntity
8
MULTILAYER
6
ByLayer
62
256
370
-1
100
AcDbPolyline
90
4
70
1
43
0
10
114.846999
20
57.618
10
114.846999
20
59.142
10
113.322999
20
59.142
10
113.322999
20
57.618
0
LWPOLYLINE
5
E0
100
AcDbEntity
8
MULTILAYER
6
ByLayer
62
256
370
-1
100
AcDbPolyline
90
4
70
1
43
0
10
114.846999
20
65.238
10
114.846999
20
66.762
10
113.322999
20
66.762
10
113.322999
20
65.238
0
LWPOLYLINE
5
E1
100
AcDbEntity
8
MULTILAYER
6
ByLayer
62
256
370
-1
100
AcDbPolyline
90
4
70
1
43
0
10
114.846999
20
67.778
10
114.846999
20
69.302
10
113.322999
20
69.302
10
113.322999
20
67.778
0
LWPOLYLINE
5
E2
100
AcDbEntity
8
MULTILAYER
6
ByLayer
62
256
370
-1
100
AcDbPolyline
90
4
70
1
43
0
10
114.846999
20
70.318
10
114.846999
20
71.842
10
113.322999
20
71.842
10
113.322999
20
70.318
0
LWPOLYLINE
5
E3
100
AcDbEntity
8
MULTILAYER
6
ByLayer
62
256
370
-1
100
AcDbPolyline
90
4
70
1
43
0
10
114.846999
20
72.858
10
114.846999
20
74.382
10
113.322999
20
74.382
10
113.322999
20
72.858
0
LWPOLYLINE
5
E4
100
AcDbEntity
8
MULTILAYER
6
ByLayer
62
256
370
-1
100
AcDbPolyline
90
4
70
1
43
0
10
114.846999
20
75.398
10
114.846999
20
76.922
10
113.322999
20
76.922
10
113.322999
20
75.398
0
LWPOLYLINE
5
E5
100
AcDbEntity
8
MULTILAYER
6
ByLayer
62
256
370
-1
100
AcDbPolyline
90
4
70
1
43
0
10
114.846999
20
60.158
10
114.846999
20
61.682
10
113.322999
20
61.682
10
113.322999
20
60.158
0
LWPOLYLINE
5
E6
100
AcDbEntity
8
MULTILAYER
6
ByLayer
62
256
370
-1
100
AcDbPolyline
90
4
70
1
43
0
10
114.846999
20
62.698
10
114.846999
20
64.222
10
113.322999
20
64.222
10
113.322999
20
62.698
0
LWPOLYLINE
5
E7
100
AcDbEntity
8
MULTILAYER
6
ByLayer
62
256
370
-1
100
AcDbPolyline
90
4
70
1
43
0
10
117.386999
20
65.238
10
117.386999
20
66.762
10
115.862999
20
66.762
10
115.862999
20
65.238
0
LWPOLYLINE
5
E8
100
AcDbEntity
8
MULTILAYER
6
ByLayer
62
256
370
-1
100
AcDbPolyline
90
4
70
1
43
0
10
117.386999
20
67.778
10
117.386999
20
69.302
10
115.862999
20
69.302
10
115.862999
20
67.778
0
LWPOLYLINE
5
E9
100
AcDbEntity
8
MULTILAYER
6
ByLayer
62
256
370
-1
100
AcDbPolyline
90
4
70
1
43
0
10
117.386999
20
70.318
10
117.386999
20
71.842
10
115.862999
20
71.842
10
115.862999
20
70.318
0
LWPOLYLINE
5
EA
100
AcDbEntity
8
MULTILAYER
6
ByLayer
62
256
370
-1
100
AcDbPolyline
90
4
70
1
43
0
10
117.386999
20
72.858
10
117.386999
20
74.382
10
115.862999
20
74.382
10
115.862999
20
72.858
0
LWPOLYLINE
5
EB
100
AcDbEntity
8
MULTILAYER
6
ByLayer
62
256
370
-1
100
AcDbPolyline
90
4
70
1
43
0
10
117.386999
20
75.398
10
117.386999
20
76.922
10
115.862999
20
76.922
10
115.862999
20
75.398
0
LWPOLYLINE
5
EC
100
AcDbEntity
8
MULTILAYER
6
ByLayer
62
256
370
-1
100
AcDbPolyline
90
4
70
1
43
0
10
117.386999
20
60.158
10
117.386999
20
61.682
10
115.862999
20
61.682
10
115.862999
20
60.158
0
LWPOLYLINE
5
ED
100
AcDbEntity
8
MULTILAYER
6
ByLayer
62
256
370
-1
100
AcDbPolyline
90
4
70
1
43
0
10
117.386999
20
62.698
10
117.386999
20
64.222
10
115.862999
20
64.222
10
115.862999
20
62.698
0
LWPOLYLINE
5
EE
100
AcDbEntity
8
MULTILAYER
6
ByLayer
62
256
370
-1
100
AcDbPolyline
90
4
70
1
43
0
10
99.472001
20
49.347999
10
99.472001
20
50.871999
10
97.948001
20
50.871999
10
97.948001
20
49.347999
0
LWPOLYLINE
5
EF
100
AcDbEntity
8
MULTILAYER
6
ByLayer
62
256
370
-1
100
AcDbPolyline
90
4
70
1
43
0
10
86.321999
20
87.998
10
86.321999
20
89.522
10
84.797999
20
89.522
10
84.797999
20
87.998
0
TEXT
5
F0
100
AcDbEntity
8
TOPOVERLAY
6
CONTINUOUS
62
256
370
-1
100
AcDbText
10
95.635
20
49.885001
30
0
40
0.750001001358
1
26
50
90
41
1
51
0
7
standard
71
0
210
0
220
0
230
1
100
AcDbText
0
TEXT
5
F1
100
AcDbEntity
8
TOPOVERLAY
6
CONTINUOUS
62
256
370
-1
100
AcDbText
10
95.635
20
52.485
30
0
40
0.750001001358
1
25
50
90
41
1
51
0
7
standard
71
0
210
0
220
0
230
1
100
AcDbText
0
TEXT
5
F2
100
AcDbEntity
8
TOPOVERLAY
6
CONTINUOUS
62
256
370
-1
100
AcDbText
10
63.26
20
48.509999
30
0
40
0.750001001358
1
2
50
90
41
1
51
0
7
standard
71
0
210
0
220
0
230
1
100
AcDbText
0
TEXT
5
F3
100
AcDbEntity
8
TOPOVERLAY
6
CONTINUOUS
62
256
370
-1
100
AcDbText
10
63.184999
20
54.785001
30
0
40
0.750001001358
1
1
50
90
41
1
51
0
7
standard
71
0
210
0
220
0
230
1
100
AcDbText
0
ENDBLK
5
4C
330
4A
100
AcDbEntity
8
0
100
AcDbBlockEnd
0
ENDSEC
0
SECTION
2
ENTITIES
0
IMAGE
5
F6
100
AcDbEntity
8
0
6
ByLayer
62
256
370
-1
100
AcDbRasterImage
10
94.8800000002
20
16.8
30
0
11
1
21
0
31
0
12
6.12323399574e-17
22
1
32
0
13
1
23
1
340
F4
70
1
280
0
281
50
282
50
283
0
360
F5
0
CIRCLE
5
F7
100
AcDbEntity
8
0
6
ByLayer
62
256
370
-1
100
AcDbCircle
10
119
20
8
40
1.825
0
CIRCLE
5
F8
100
AcDbEntity
8
0
6
ByLayer
62
256
370
-1
100
AcDbCircle
10
8
20
8
40
1.825
0
CIRCLE
5
F9
100
AcDbEntity
8
0
6
ByLayer
62
256
370
-1
100
AcDbCircle
10
119
20
69
40
1.825
0
CIRCLE
5
FA
100
AcDbEntity
8
0
6
ByLayer
62
256
370
-1
100
AcDbCircle
10
8
20
69
40
1.825
0
ARC
5
FB
100
AcDbEntity
8
0
6
ByLayer
62
256
370
-1
100
AcDbCircle
10
8
20
69
40
8
100
AcDbArc
50
90
51
180
0
LINE
5
FC
100
AcDbEntity
8
0
6
ByLayer
62
256
370
-1
100
AcDbLine
10
119
20
77
11
8
21
77
0
ARC
5
FD
100
AcDbEntity
8
0
6
ByLayer
62
256
370
-1
100
AcDbCircle
10
119
20
69
40
8
100
AcDbArc
50
0
51
90
0
LINE
5
FE
100
AcDbEntity
8
0
6
ByLayer
62
256
370
-1
100
AcDbLine
10
127
20
8
11
127
21
69
0
ARC
5
FF
100
AcDbEntity
8
0
6
ByLayer
62
256
370
-1
100
AcDbCircle
10
119
20
8
40
8
100
AcDbArc
50
270
51
0
0
LINE
5
100
100
AcDbEntity
8
0
6
ByLayer
62
256
370
-1
100
AcDbLine
10
0
20
69
11
0
21
8
0
LINE
5
101
100
AcDbEntity
8
0
6
ByLayer
62
256
370
-1
100
AcDbLine
10
8
20
0
11
119
21
0
0
ARC
5
102
100
AcDbEntity
8
0
6
ByLayer
62
256
370
-1
100
AcDbCircle
10
8
20
8
40
8
100
AcDbArc
50
180
51
270
0
INSERT
5
103
100
AcDbEntity
8
rpi
6
ByLayer
62
256
370
-1
100
AcDbBlockReference
2
ibex_rpi_model_b_v1_00-1
10
-36.1616138543
20
-37.6477075743
30
0
41
1
42
1
43
0
50
0
70
1
71
1
44
0
45
0
0
ENDSEC
0
SECTION
2
OBJECTS
0
DICTIONARY
5
C
330
0
100
AcDbDictionary
281
1
3
ACAD_GROUP
350
D
3
ACAD_IMAGE_DICT
350
104
0
DICTIONARY
5
D
330
C
100
AcDbDictionary
281
1
0
IMAGEDEF_REACTOR
5
F5
330
ö
100
AcDbRasterImageDefReactor
90
2
330
ö
0
DICTIONARY
5
104
330
C
100
AcDbDictionary
281
1
3
ibex_rpi_model_b_v1_00
350
F4
0
IMAGEDEF
5
F4
102
{ACAD_REACTORS
330
F5
102
}
100
AcDbRasterImageDef
90
0
1
/home/dhovemey/work/carpi/enclosure/ibex_rpi_model_b_v1_00.dxf
10
1
20
1
11
1
21
1
280
1
281
0
0
ENDSEC
0
EOF
