999
dxflib 2.2.0.0
  0
SECTION
  2
HEADER
  9
$ACADVER
  1
AC1015
  9
$HANDSEED
  5
FFFF
  9
$SNAPSTYLE
 70
0
  9
$SPLINESEGS
 70
8
  9
$DIMEXE
 40
1.25
  9
$PSVPSCALE
 40
1.0
  9
$LIMMAX
 10
420.0
 20
297.0
  9
$DIMSCALE
 40
1.0
  9
$DIMLUNIT
 70
2
  9
$INSBASE
 10
0.0
 20
0.0
 30
0.0
  9
$GRIDMODE
 70
1
  9
$INSUNITS
 70
4
  9
$DIMADEC
 70
0
  9
$DIMASZ
 40
2.5
  9
$DIMGAP
 40
0.625
  9
$DIMTXT
 40
2.5
  9
$TEXTSTYLE
  7
STANDARD
  9
$LIMMIN
 10
0.0
 20
0.0
  9
$DIMEXO
 40
0.625
  9
$LUPREC
 70
4
  9
$EXTMAX
 10
127.0
 20
70.8835596961999954
 30
0.0
  9
$DIMTIH
 70
0
  9
$PINSBASE
 10
0.0
 20
0.0
 30
0.0
  9
$ORTHOMODE
 70
0
  9
$DIMAUNIT
 70
0
  9
$DWGCODEPAGE
  3
ANSI_1252
  9
$LTSCALE
 40
1.0
  9
$AUPREC
 70
2
  9
$PLIMMIN
 10
0.0
 20
0.0
  9
$LUNITS
 70
2
  9
$EXTMIN
 10
0.0
 20
0.0
 30
0.0
  9
$PLIMMAX
 10
210.0
 20
297.0
  9
$DIMTSZ
 40
0.0
  9
$DIMSTYLE
  2
STANDARD
  9
$AUNITS
 70
0
  0
ENDSEC
  0
SECTION
  2
TABLES
  0
TABLE
  2
VPORT
  5
8
100
AcDbSymbolTable
 70
1
  0
VPORT
  5
30
100
AcDbSymbolTableRecord
100
AcDbViewportTableRecord
  2
*Active
 70
0
 10
0.0
 20
0.0
 11
1.0
 21
1.0
 12
286.3055555555554861
 22
148.5
 13
0.0
 23
0.0
 14
10.0
 24
10.0
 15
10.0
 25
10.0
 16
0.0
 26
0.0
 36
1.0
 17
0.0
 27
0.0
 37
0.0
 40
297.0
 41
1.92798353909465
 42
50.0
 43
0.0
 44
0.0
 50
0.0
 51
0.0
 71
0
 72
100
 73
1
 74
3
 75
1
 76
1
 77
0
 78
0
281
0
 65
1
110
0.0
120
0.0
130
0.0
111
1.0
121
0.0
131
0.0
112
0.0
122
1.0
132
0.0
 79
0
146
0.0
  0
ENDTAB
  0
TABLE
  2
LTYPE
  5
5
100
AcDbSymbolTable
 70
21
  0
LTYPE
  5
14
100
AcDbSymbolTableRecord
100
AcDbLinetypeTableRecord
  2
ByBlock
 70
0
  3

 72
65
 73
0
 40
0.0
  0
LTYPE
  5
15
100
AcDbSymbolTableRecord
100
AcDbLinetypeTableRecord
  2
ByLayer
 70
0
  3

 72
65
 73
0
 40
0.0
  0
LTYPE
  5
16
100
AcDbSymbolTableRecord
100
AcDbLinetypeTableRecord
  2
CONTINUOUS
 70
0
  3
Solid line
 72
65
 73
0
 40
0.0
  0
LTYPE
  5
31
100
AcDbSymbolTableRecord
100
AcDbLinetypeTableRecord
  2
DOT
 70
0
  3
Dot . . . . . . . . . . . . . . . . . . . . . .
 72
65
 73
2
 40
6.3499999999999996
 49
0.0
 74
0
 49
-6.3499999999999996
 74
0
  0
LTYPE
  5
32
100
AcDbSymbolTableRecord
100
AcDbLinetypeTableRecord
  2
DOT2
 70
0
  3
Dot (.5x) .....................................
 72
65
 73
2
 40
3.1749999999999998
 49
0.0
 74
0
 49
-3.1749999999999998
 74
0
  0
LTYPE
  5
33
100
AcDbSymbolTableRecord
100
AcDbLinetypeTableRecord
  2
DOTX2
 70
0
  3
Dot (2x) .  .  .  .  .  .  .  .  .  .  .  .  .
 72
65
 73
2
 40
12.6999999999999993
 49
0.0
 74
0
 49
-12.6999999999999993
 74
0
  0
LTYPE
  5
34
100
AcDbSymbolTableRecord
100
AcDbLinetypeTableRecord
  2
DASHED
 70
0
  3
Dashed __ __ __ __ __ __ __ __ __ __ __ __ __ _
 72
65
 73
2
 40
19.0500000000000007
 49
12.6999999999999993
 74
0
 49
-6.3499999999999996
 74
0
  0
LTYPE
  5
35
100
AcDbSymbolTableRecord
100
AcDbLinetypeTableRecord
  2
DASHED2
 70
0
  3
Dashed (.5x) _ _ _ _ _ _ _ _ _ _ _ _ _ _ _ _ _
 72
65
 73
2
 40
9.5250000000000004
 49
6.3499999999999996
 74
0
 49
-3.1749999999999998
 74
0
  0
LTYPE
  5
36
100
AcDbSymbolTableRecord
100
AcDbLinetypeTableRecord
  2
DASHEDX2
 70
0
  3
Dashed (2x) ____  ____  ____  ____  ____  ___
 72
65
 73
2
 40
38.1000000000000014
 49
25.3999999999999986
 74
0
 49
-12.6999999999999993
 74
0
  0
LTYPE
  5
37
100
AcDbSymbolTableRecord
100
AcDbLinetypeTableRecord
  2
DASHDOT
 70
0
  3
Dash dot __ . __ . __ . __ . __ . __ . __ . __
 72
65
 73
4
 40
25.3999999999999986
 49
12.6999999999999993
 74
0
 49
-6.3499999999999996
 74
0
 49
0.0
 74
0
 49
-6.3499999999999996
 74
0
  0
LTYPE
  5
38
100
AcDbSymbolTableRecord
100
AcDbLinetypeTableRecord
  2
DASHDOT2
 70
0
  3
Dash dot (.5x) _._._._._._._._._._._._._._._.
 72
65
 73
4
 40
12.6999999999999993
 49
6.3499999999999996
 74
0
 49
-3.1749999999999998
 74
0
 49
0.0
 74
0
 49
-3.1749999999999998
 74
0
  0
LTYPE
  5
39
100
AcDbSymbolTableRecord
100
AcDbLinetypeTableRecord
  2
DASHDOTX2
 70
0
  3
Dash dot (2x) ____  .  ____  .  ____  .  ___
 72
65
 73
4
 40
50.7999999999999972
 49
25.3999999999999986
 74
0
 49
-12.6999999999999993
 74
0
 49
0.0
 74
0
 49
-12.6999999999999993
 74
0
  0
LTYPE
  5
3A
100
AcDbSymbolTableRecord
100
AcDbLinetypeTableRecord
  2
DIVIDE
 70
0
  3
Divide ____ . . ____ . . ____ . . ____ . . ____
 72
65
 73
6
 40
31.75
 49
12.6999999999999993
 74
0
 49
-6.3499999999999996
 74
0
 49
0.0
 74
0
 49
-6.3499999999999996
 74
0
 49
0.0
 74
0
 49
-6.3499999999999996
 74
0
  0
LTYPE
  5
3B
100
AcDbSymbolTableRecord
100
AcDbLinetypeTableRecord
  2
DIVIDE2
 70
0
  3
Divide (.5x) __..__..__..__..__..__..__..__.._
 72
65
 73
6
 40
15.875
 49
6.3499999999999996
 74
0
 49
-3.1749999999999998
 74
0
 49
0.0
 74
0
 49
-3.1749999999999998
 74
0
 49
0.0
 74
0
 49
-3.1749999999999998
 74
0
  0
LTYPE
  5
3C
100
AcDbSymbolTableRecord
100
AcDbLinetypeTableRecord
  2
DIVIDEX2
 70
0
  3
Divide (2x) ________  .  .  ________  .  .  _
 72
65
 73
6
 40
63.5
 49
25.3999999999999986
 74
0
 49
-12.6999999999999993
 74
0
 49
0.0
 74
0
 49
-12.6999999999999993
 74
0
 49
0.0
 74
0
 49
-12.6999999999999993
 74
0
  0
LTYPE
  5
3D
100
AcDbSymbolTableRecord
100
AcDbLinetypeTableRecord
  2
CENTER
 70
0
  3
Center ____ _ ____ _ ____ _ ____ _ ____ _ ____
 72
65
 73
4
 40
50.7999999999999972
 49
31.75
 74
0
 49
-6.3499999999999996
 74
0
 49
6.3499999999999996
 74
0
 49
-6.3499999999999996
 74
0
  0
LTYPE
  5
3E
100
AcDbSymbolTableRecord
100
AcDbLinetypeTableRecord
  2
CENTER2
 70
0
  3
Center (.5x) ___ _ ___ _ ___ _ ___ _ ___ _ ___
 72
65
 73
4
 40
28.5749999999999993
 49
19.0500000000000007
 74
0
 49
-3.1749999999999998
 74
0
 49
3.1749999999999998
 74
0
 49
-3.1749999999999998
 74
0
  0
LTYPE
  5
3F
100
AcDbSymbolTableRecord
100
AcDbLinetypeTableRecord
  2
CENTERX2
 70
0
  3
Center (2x) ________  __  ________  __  _____
 72
65
 73
4
 40
101.5999999999999943
 49
63.5
 74
0
 49
-12.6999999999999993
 74
0
 49
12.6999999999999993
 74
0
 49
-12.6999999999999993
 74
0
  0
LTYPE
  5
40
100
AcDbSymbolTableRecord
100
AcDbLinetypeTableRecord
  2
BORDER
 70
0
  3
Border __ __ . __ __ . __ __ . __ __ . __ __ .
 72
65
 73
6
 40
44.4500000000000028
 49
12.6999999999999993
 74
0
 49
-6.3499999999999996
 74
0
 49
12.6999999999999993
 74
0
 49
-6.3499999999999996
 74
0
 49
0.0
 74
0
 49
-6.3499999999999996
 74
0
  0
LTYPE
  5
41
100
AcDbSymbolTableRecord
100
AcDbLinetypeTableRecord
  2
BORDER2
 70
0
  3
Border (.5x) __.__.__.__.__.__.__.__.__.__.__.
 72
65
 73
6
 40
22.2250000000000014
 49
6.3499999999999996
 74
0
 49
-3.1749999999999998
 74
0
 49
6.3499999999999996
 74
0
 49
-3.1749999999999998
 74
0
 49
0.0
 74
0
 49
-3.1749999999999998
 74
0
  0
LTYPE
  5
42
100
AcDbSymbolTableRecord
100
AcDbLinetypeTableRecord
  2
BORDERX2
 70
0
  3
Border (2x) ____  ____  .  ____  ____  .  ___
 72
65
 73
6
 40
88.9000000000000057
 49
25.3999999999999986
 74
0
 49
-12.6999999999999993
 74
0
 49
25.3999999999999986
 74
0
 49
-12.6999999999999993
 74
0
 49
0.0
 74
0
 49
-12.6999999999999993
 74
0
  0
ENDTAB
  0
TABLE
  2
LAYER
  5
2
100
AcDbSymbolTable
 70
9
  0
LAYER
  5
10
100
AcDbSymbolTableRecord
100
AcDbLayerTableRecord
  2
0
 70
0
 62
7
  6
CONTINUOUS
290
1
370
0
390
F
  0
LAYER
  5
43
100
AcDbSymbolTableRecord
100
AcDbLayerTableRecord
  2
rpi_mounting_holes
 70
0
 62
1
  6
CONTINUOUS
290
1
370
0
390
F
  0
LAYER
  5
44
100
AcDbSymbolTableRecord
100
AcDbLayerTableRecord
  2
rpi_outline
 70
0
 62
5
  6
CONTINUOUS
290
1
370
0
390
F
  0
LAYER
  5
45
100
AcDbSymbolTableRecord
100
AcDbLayerTableRecord
  2
MECHANICAL1
 70
0
 62
211
  6
CONTINUOUS
290
1
370
-3
390
F
  0
LAYER
  5
46
100
AcDbSymbolTableRecord
100
AcDbLayerTableRecord
  2
MULTILAYER
 70
0
 62
9
  6
CONTINUOUS
290
1
370
-3
390
F
  0
LAYER
  5
47
100
AcDbSymbolTableRecord
100
AcDbLayerTableRecord
  2
TOPOVERLAY
 70
0
 62
222
  6
CONTINUOUS
290
1
370
-3
390
F
  0
LAYER
  5
48
100
AcDbSymbolTableRecord
100
AcDbLayerTableRecord
  2
boardmounts
 70
0
 62
3
  6
CONTINUOUS
290
1
370
0
390
F
  0
LAYER
  5
49
100
AcDbSymbolTableRecord
100
AcDbLayerTableRecord
  2
standoffs
 70
0
 62
2
  6
CONTINUOUS
290
1
370
0
390
F
  0
LAYER
  5
4A
100
AcDbSymbolTableRecord
100
AcDbLayerTableRecord
  2
lcd
 70
0
 62
5
  6
CONTINUOUS
290
1
370
0
390
F
  0
ENDTAB
  0
TABLE
  2
STYLE
  5
3
100
AcDbSymbolTable
 70
1
  0
STYLE
  5
11
100
AcDbSymbolTableRecord
100
AcDbTextStyleTableRecord
  2
Standard
 70
0
 40
0.0
 41
0.75
 50
0.0
 71
0
 42
2.5
  3
txt
  4

  0
ENDTAB
  0
TABLE
  2
VIEW
  5
6
100
AcDbSymbolTable
 70
0
  0
ENDTAB
  0
TABLE
  2
UCS
  5
7
100
AcDbSymbolTable
 70
0
  0
ENDTAB
  0
TABLE
  2
APPID
  5
9
100
AcDbSymbolTable
 70
1
  0
APPID
  5
12
100
AcDbSymbolTableRecord
100
AcDbRegAppTableRecord
  2
ACAD
 70
0
  0
ENDTAB
  0
TABLE
  2
DIMSTYLE
  5
A
100
AcDbSymbolTable
 70
1
100
AcDbDimStyleTable
 71
0
  0
DIMSTYLE
105
27
100
AcDbSymbolTableRecord
100
AcDbDimStyleTableRecord
  2
Standard
 41
2.5
 42
0.625
 43
3.75
 44
1.25
 70
0
 73
0
 74
0
 77
1
 78
8
140
2.5
141
2.5
143
0.03937007874016
147
0.625
171
3
172
1
271
2
272
2
274
3
278
44
283
0
284
8
340
11
  0
ENDTAB
  0
TABLE
  2
BLOCK_RECORD
  5
1
100
AcDbSymbolTable
 70
1
  0
BLOCK_RECORD
  5
1F
100
AcDbSymbolTableRecord
100
AcDbBlockTableRecord
  2
*Model_Space
340
22
  0
BLOCK_RECORD
  5
1B
100
AcDbSymbolTableRecord
100
AcDbBlockTableRecord
  2
*Paper_Space
340
1E
  0
BLOCK_RECORD
  5
23
100
AcDbSymbolTableRecord
100
AcDbBlockTableRecord
  2
*Paper_Space0
340
26
  0
BLOCK_RECORD
  5
4B
100
AcDbSymbolTableRecord
100
AcDbBlockTableRecord
  2
ibex_rpi_model_b_v1_00_correct_orientation-0
340
0
  0
BLOCK_RECORD
  5
4C
100
AcDbSymbolTableRecord
100
AcDbBlockTableRecord
  2
lcd
340
0
  0
ENDTAB
  0
ENDSEC
  0
SECTION
  2
BLOCKS
  0
BLOCK
  5
20
100
AcDbEntity
  8
0
100
AcDbBlockBegin
  2
*Model_Space
 70
0
 10
0.0
 20
0.0
 30
0.0
  3
*Model_Space
  1

  0
ENDBLK
  5
21
100
AcDbEntity
  8
0
100
AcDbBlockEnd
  0
BLOCK
  5
1C
100
AcDbEntity
 67
1
  8
0
100
AcDbBlockBegin
  2
*Paper_Space
 70
0
 10
0.0
 20
0.0
 30
0.0
  3
*Paper_Space
  1

  0
ENDBLK
  5
1D
100
AcDbEntity
 67
1
  8
0
100
AcDbBlockEnd
  0
BLOCK
  5
24
100
AcDbEntity
  8
0
100
AcDbBlockBegin
  2
*Paper_Space0
 70
0
 10
0.0
 20
0.0
 30
0.0
  3
*Paper_Space0
  1

  0
ENDBLK
  5
25
100
AcDbEntity
  8
0
100
AcDbBlockEnd
  0
BLOCK
  5
4D
100
AcDbEntity
  8
0
100
AcDbBlockBegin
  2
ibex_rpi_model_b_v1_00_correct_orientation-0
 70
0
 10
0.0
 20
0.0
 30
0.0
  3
ibex_rpi_model_b_v1_00_correct_orientation-0
  1

  0
HATCH
  5
4E
  8
MULTILAYER
 62
256
370
-1
  6
CONTINUOUS
100
AcDbEntity
100
AcDbHatch
 10
0.0
 20
0.0
 30
0.0
210
0.0
220
0.0
230
1.0
  2
SOLID
 70
1
 71
0
 91
1
 92
1
 93
4
 72
1
 10
1.137999
 20
52.1119989999999973
 11
2.6619989999999998
 21
52.1119989999999973
 72
1
 10
2.6619989999999998
 20
52.1119989999999973
 11
2.6619989999999998
 21
50.5879990000000035
 72
1
 10
2.6619989999999998
 20
50.5879990000000035
 11
1.137999
 21
50.5879990000000035
 72
1
 10
1.137999
 20
50.5879990000000035
 11
1.137999
 21
52.1119989999999973
 97
0
 75
0
 76
1
 98
0
  0
HATCH
  5
4F
  8
MULTILAYER
 62
256
370
-1
  6
CONTINUOUS
100
AcDbEntity
100
AcDbHatch
 10
0.0
 20
0.0
 30
0.0
210
0.0
220
0.0
230
1.0
  2
SOLID
 70
1
 71
0
 91
1
 92
1
 93
4
 72
1
 10
1.137999
 20
54.6519990000000035
 11
2.6619989999999998
 21
54.6519990000000035
 72
1
 10
2.6619989999999998
 20
54.6519990000000035
 11
2.6619989999999998
 21
53.1279990000000026
 72
1
 10
2.6619989999999998
 20
53.1279990000000026
 11
1.137999
 21
53.1279990000000026
 72
1
 10
1.137999
 20
53.1279990000000026
 11
1.137999
 21
54.6519990000000035
 97
0
 75
0
 76
1
 98
0
  0
HATCH
  5
50
  8
MULTILAYER
 62
256
370
-1
  6
CONTINUOUS
100
AcDbEntity
100
AcDbHatch
 10
0.0
 20
0.0
 30
0.0
210
0.0
220
0.0
230
1.0
  2
SOLID
 70
1
 71
0
 91
1
 92
1
 93
4
 72
1
 10
3.6779989999999998
 20
52.1119989999999973
 11
5.2019989999999998
 21
52.1119989999999973
 72
1
 10
5.2019989999999998
 20
52.1119989999999973
 11
5.2019989999999998
 21
50.5879990000000035
 72
1
 10
5.2019989999999998
 20
50.5879990000000035
 11
3.6779989999999998
 21
50.5879990000000035
 72
1
 10
3.6779989999999998
 20
50.5879990000000035
 11
3.6779989999999998
 21
52.1119989999999973
 97
0
 75
0
 76
1
 98
0
  0
HATCH
  5
51
  8
MULTILAYER
 62
256
370
-1
  6
CONTINUOUS
100
AcDbEntity
100
AcDbHatch
 10
0.0
 20
0.0
 30
0.0
210
0.0
220
0.0
230
1.0
  2
SOLID
 70
1
 71
0
 91
1
 92
1
 93
4
 72
1
 10
3.6779989999999998
 20
54.6519990000000035
 11
5.2019989999999998
 21
54.6519990000000035
 72
1
 10
5.2019989999999998
 20
54.6519990000000035
 11
5.2019989999999998
 21
53.1279990000000026
 72
1
 10
5.2019989999999998
 20
53.1279990000000026
 11
3.6779989999999998
 21
53.1279990000000026
 72
1
 10
3.6779989999999998
 20
53.1279990000000026
 11
3.6779989999999998
 21
54.6519990000000035
 97
0
 75
0
 76
1
 98
0
  0
HATCH
  5
52
  8
MULTILAYER
 62
256
370
-1
  6
CONTINUOUS
100
AcDbEntity
100
AcDbHatch
 10
0.0
 20
0.0
 30
0.0
210
0.0
220
0.0
230
1.0
  2
SOLID
 70
1
 71
0
 91
1
 92
1
 93
4
 72
1
 10
6.2179989999999998
 20
52.1119989999999973
 11
7.7419989999999999
 21
52.1119989999999973
 72
1
 10
7.7419989999999999
 20
52.1119989999999973
 11
7.7419989999999999
 21
50.5879990000000035
 72
1
 10
7.7419989999999999
 20
50.5879990000000035
 11
6.2179989999999998
 21
50.5879990000000035
 72
1
 10
6.2179989999999998
 20
50.5879990000000035
 11
6.2179989999999998
 21
52.1119989999999973
 97
0
 75
0
 76
1
 98
0
  0
HATCH
  5
53
  8
MULTILAYER
 62
256
370
-1
  6
CONTINUOUS
100
AcDbEntity
100
AcDbHatch
 10
0.0
 20
0.0
 30
0.0
210
0.0
220
0.0
230
1.0
  2
SOLID
 70
1
 71
0
 91
1
 92
1
 93
4
 72
1
 10
6.2179989999999998
 20
54.6519990000000035
 11
7.7419989999999999
 21
54.6519990000000035
 72
1
 10
7.7419989999999999
 20
54.6519990000000035
 11
7.7419989999999999
 21
53.1279990000000026
 72
1
 10
7.7419989999999999
 20
53.1279990000000026
 11
6.2179989999999998
 21
53.1279990000000026
 72
1
 10
6.2179989999999998
 20
53.1279990000000026
 11
6.2179989999999998
 21
54.6519990000000035
 97
0
 75
0
 76
1
 98
0
  0
HATCH
  5
54
  8
MULTILAYER
 62
256
370
-1
  6
CONTINUOUS
100
AcDbEntity
100
AcDbHatch
 10
0.0
 20
0.0
 30
0.0
210
0.0
220
0.0
230
1.0
  2
SOLID
 70
1
 71
0
 91
1
 92
1
 93
4
 72
1
 10
8.7579989999999999
 20
52.1119989999999973
 11
10.2819990000000008
 21
52.1119989999999973
 72
1
 10
10.2819990000000008
 20
52.1119989999999973
 11
10.2819990000000008
 21
50.5879990000000035
 72
1
 10
10.2819990000000008
 20
50.5879990000000035
 11
8.7579989999999999
 21
50.5879990000000035
 72
1
 10
8.7579989999999999
 20
50.5879990000000035
 11
8.7579989999999999
 21
52.1119989999999973
 97
0
 75
0
 76
1
 98
0
  0
HATCH
  5
55
  8
MULTILAYER
 62
256
370
-1
  6
CONTINUOUS
100
AcDbEntity
100
AcDbHatch
 10
0.0
 20
0.0
 30
0.0
210
0.0
220
0.0
230
1.0
  2
SOLID
 70
1
 71
0
 91
1
 92
1
 93
4
 72
1
 10
8.7579989999999999
 20
54.6519990000000035
 11
10.2819990000000008
 21
54.6519990000000035
 72
1
 10
10.2819990000000008
 20
54.6519990000000035
 11
10.2819990000000008
 21
53.1279990000000026
 72
1
 10
10.2819990000000008
 20
53.1279990000000026
 11
8.7579989999999999
 21
53.1279990000000026
 72
1
 10
8.7579989999999999
 20
53.1279990000000026
 11
8.7579989999999999
 21
54.6519990000000035
 97
0
 75
0
 76
1
 98
0
  0
HATCH
  5
56
  8
MULTILAYER
 62
256
370
-1
  6
CONTINUOUS
100
AcDbEntity
100
AcDbHatch
 10
0.0
 20
0.0
 30
0.0
210
0.0
220
0.0
230
1.0
  2
SOLID
 70
1
 71
0
 91
1
 92
1
 93
4
 72
1
 10
11.2979990000000008
 20
52.1119989999999973
 11
12.8219989999999999
 21
52.1119989999999973
 72
1
 10
12.8219989999999999
 20
52.1119989999999973
 11
12.8219989999999999
 21
50.5879990000000035
 72
1
 10
12.8219989999999999
 20
50.5879990000000035
 11
11.2979990000000008
 21
50.5879990000000035
 72
1
 10
11.2979990000000008
 20
50.5879990000000035
 11
11.2979990000000008
 21
52.1119989999999973
 97
0
 75
0
 76
1
 98
0
  0
HATCH
  5
57
  8
MULTILAYER
 62
256
370
-1
  6
CONTINUOUS
100
AcDbEntity
100
AcDbHatch
 10
0.0
 20
0.0
 30
0.0
210
0.0
220
0.0
230
1.0
  2
SOLID
 70
1
 71
0
 91
1
 92
1
 93
4
 72
1
 10
11.2979990000000008
 20
54.6519990000000035
 11
12.8219989999999999
 21
54.6519990000000035
 72
1
 10
12.8219989999999999
 20
54.6519990000000035
 11
12.8219989999999999
 21
53.1279990000000026
 72
1
 10
12.8219989999999999
 20
53.1279990000000026
 11
11.2979990000000008
 21
53.1279990000000026
 72
1
 10
11.2979990000000008
 20
53.1279990000000026
 11
11.2979990000000008
 21
54.6519990000000035
 97
0
 75
0
 76
1
 98
0
  0
HATCH
  5
58
  8
MULTILAYER
 62
256
370
-1
  6
CONTINUOUS
100
AcDbEntity
100
AcDbHatch
 10
0.0
 20
0.0
 30
0.0
210
0.0
220
0.0
230
1.0
  2
SOLID
 70
1
 71
0
 91
1
 92
1
 93
4
 72
1
 10
13.8379989999999999
 20
52.1119989999999973
 11
15.3619990000000008
 21
52.1119989999999973
 72
1
 10
15.3619990000000008
 20
52.1119989999999973
 11
15.3619990000000008
 21
50.5879990000000035
 72
1
 10
15.3619990000000008
 20
50.5879990000000035
 11
13.8379989999999999
 21
50.5879990000000035
 72
1
 10
13.8379989999999999
 20
50.5879990000000035
 11
13.8379989999999999
 21
52.1119989999999973
 97
0
 75
0
 76
1
 98
0
  0
HATCH
  5
59
  8
MULTILAYER
 62
256
370
-1
  6
CONTINUOUS
100
AcDbEntity
100
AcDbHatch
 10
0.0
 20
0.0
 30
0.0
210
0.0
220
0.0
230
1.0
  2
SOLID
 70
1
 71
0
 91
1
 92
1
 93
4
 72
1
 10
13.8379989999999999
 20
54.6519990000000035
 11
15.3619990000000008
 21
54.6519990000000035
 72
1
 10
15.3619990000000008
 20
54.6519990000000035
 11
15.3619990000000008
 21
53.1279990000000026
 72
1
 10
15.3619990000000008
 20
53.1279990000000026
 11
13.8379989999999999
 21
53.1279990000000026
 72
1
 10
13.8379989999999999
 20
53.1279990000000026
 11
13.8379989999999999
 21
54.6519990000000035
 97
0
 75
0
 76
1
 98
0
  0
HATCH
  5
5A
  8
MULTILAYER
 62
256
370
-1
  6
CONTINUOUS
100
AcDbEntity
100
AcDbHatch
 10
0.0
 20
0.0
 30
0.0
210
0.0
220
0.0
230
1.0
  2
SOLID
 70
1
 71
0
 91
1
 92
1
 93
4
 72
1
 10
16.3779989999999991
 20
52.1119989999999973
 11
17.901999
 21
52.1119989999999973
 72
1
 10
17.901999
 20
52.1119989999999973
 11
17.901999
 21
50.5879990000000035
 72
1
 10
17.901999
 20
50.5879990000000035
 11
16.3779989999999991
 21
50.5879990000000035
 72
1
 10
16.3779989999999991
 20
50.5879990000000035
 11
16.3779989999999991
 21
52.1119989999999973
 97
0
 75
0
 76
1
 98
0
  0
HATCH
  5
5B
  8
MULTILAYER
 62
256
370
-1
  6
CONTINUOUS
100
AcDbEntity
100
AcDbHatch
 10
0.0
 20
0.0
 30
0.0
210
0.0
220
0.0
230
1.0
  2
SOLID
 70
1
 71
0
 91
1
 92
1
 93
4
 72
1
 10
16.3779989999999991
 20
54.6519990000000035
 11
17.901999
 21
54.6519990000000035
 72
1
 10
17.901999
 20
54.6519990000000035
 11
17.901999
 21
53.1279990000000026
 72
1
 10
17.901999
 20
53.1279990000000026
 11
16.3779989999999991
 21
53.1279990000000026
 72
1
 10
16.3779989999999991
 20
53.1279990000000026
 11
16.3779989999999991
 21
54.6519990000000035
 97
0
 75
0
 76
1
 98
0
  0
HATCH
  5
5C
  8
MULTILAYER
 62
256
370
-1
  6
CONTINUOUS
100
AcDbEntity
100
AcDbHatch
 10
0.0
 20
0.0
 30
0.0
210
0.0
220
0.0
230
1.0
  2
SOLID
 70
1
 71
0
 91
1
 92
1
 93
4
 72
1
 10
18.9179989999999982
 20
52.1119989999999973
 11
20.4419989999999991
 21
52.1119989999999973
 72
1
 10
20.4419989999999991
 20
52.1119989999999973
 11
20.4419989999999991
 21
50.5879990000000035
 72
1
 10
20.4419989999999991
 20
50.5879990000000035
 11
18.9179989999999982
 21
50.5879990000000035
 72
1
 10
18.9179989999999982
 20
50.5879990000000035
 11
18.9179989999999982
 21
52.1119989999999973
 97
0
 75
0
 76
1
 98
0
  0
HATCH
  5
5D
  8
MULTILAYER
 62
256
370
-1
  6
CONTINUOUS
100
AcDbEntity
100
AcDbHatch
 10
0.0
 20
0.0
 30
0.0
210
0.0
220
0.0
230
1.0
  2
SOLID
 70
1
 71
0
 91
1
 92
1
 93
4
 72
1
 10
18.9179989999999982
 20
54.6519990000000035
 11
20.4419989999999991
 21
54.6519990000000035
 72
1
 10
20.4419989999999991
 20
54.6519990000000035
 11
20.4419989999999991
 21
53.1279990000000026
 72
1
 10
20.4419989999999991
 20
53.1279990000000026
 11
18.9179989999999982
 21
53.1279990000000026
 72
1
 10
18.9179989999999982
 20
53.1279990000000026
 11
18.9179989999999982
 21
54.6519990000000035
 97
0
 75
0
 76
1
 98
0
  0
HATCH
  5
5E
  8
MULTILAYER
 62
256
370
-1
  6
CONTINUOUS
100
AcDbEntity
100
AcDbHatch
 10
0.0
 20
0.0
 30
0.0
210
0.0
220
0.0
230
1.0
  2
SOLID
 70
1
 71
0
 91
1
 92
1
 93
4
 72
1
 10
21.4579990000000009
 20
52.1119989999999973
 11
22.9819989999999983
 21
52.1119989999999973
 72
1
 10
22.9819989999999983
 20
52.1119989999999973
 11
22.9819989999999983
 21
50.5879990000000035
 72
1
 10
22.9819989999999983
 20
50.5879990000000035
 11
21.4579990000000009
 21
50.5879990000000035
 72
1
 10
21.4579990000000009
 20
50.5879990000000035
 11
21.4579990000000009
 21
52.1119989999999973
 97
0
 75
0
 76
1
 98
0
  0
HATCH
  5
5F
  8
MULTILAYER
 62
256
370
-1
  6
CONTINUOUS
100
AcDbEntity
100
AcDbHatch
 10
0.0
 20
0.0
 30
0.0
210
0.0
220
0.0
230
1.0
  2
SOLID
 70
1
 71
0
 91
1
 92
1
 93
4
 72
1
 10
21.4579990000000009
 20
54.6519990000000035
 11
22.9819989999999983
 21
54.6519990000000035
 72
1
 10
22.9819989999999983
 20
54.6519990000000035
 11
22.9819989999999983
 21
53.1279990000000026
 72
1
 10
22.9819989999999983
 20
53.1279990000000026
 11
21.4579990000000009
 21
53.1279990000000026
 72
1
 10
21.4579990000000009
 20
53.1279990000000026
 11
21.4579990000000009
 21
54.6519990000000035
 97
0
 75
0
 76
1
 98
0
  0
HATCH
  5
60
  8
MULTILAYER
 62
256
370
-1
  6
CONTINUOUS
100
AcDbEntity
100
AcDbHatch
 10
0.0
 20
0.0
 30
0.0
210
0.0
220
0.0
230
1.0
  2
SOLID
 70
1
 71
0
 91
1
 92
1
 93
4
 72
1
 10
23.9979990000000001
 20
52.1119989999999973
 11
25.521999000000001
 21
52.1119989999999973
 72
1
 10
25.521999000000001
 20
52.1119989999999973
 11
25.521999000000001
 21
50.5879990000000035
 72
1
 10
25.521999000000001
 20
50.5879990000000035
 11
23.9979990000000001
 21
50.5879990000000035
 72
1
 10
23.9979990000000001
 20
50.5879990000000035
 11
23.9979990000000001
 21
52.1119989999999973
 97
0
 75
0
 76
1
 98
0
  0
HATCH
  5
61
  8
MULTILAYER
 62
256
370
-1
  6
CONTINUOUS
100
AcDbEntity
100
AcDbHatch
 10
0.0
 20
0.0
 30
0.0
210
0.0
220
0.0
230
1.0
  2
SOLID
 70
1
 71
0
 91
1
 92
1
 93
4
 72
1
 10
23.9979990000000001
 20
54.6519990000000035
 11
25.521999000000001
 21
54.6519990000000035
 72
1
 10
25.521999000000001
 20
54.6519990000000035
 11
25.521999000000001
 21
53.1279990000000026
 72
1
 10
25.521999000000001
 20
53.1279990000000026
 11
23.9979990000000001
 21
53.1279990000000026
 72
1
 10
23.9979990000000001
 20
53.1279990000000026
 11
23.9979990000000001
 21
54.6519990000000035
 97
0
 75
0
 76
1
 98
0
  0
HATCH
  5
62
  8
MULTILAYER
 62
256
370
-1
  6
CONTINUOUS
100
AcDbEntity
100
AcDbHatch
 10
0.0
 20
0.0
 30
0.0
210
0.0
220
0.0
230
1.0
  2
SOLID
 70
1
 71
0
 91
1
 92
1
 93
4
 72
1
 10
26.5379989999999992
 20
52.1119989999999973
 11
28.0619990000000001
 21
52.1119989999999973
 72
1
 10
28.0619990000000001
 20
52.1119989999999973
 11
28.0619990000000001
 21
50.5879990000000035
 72
1
 10
28.0619990000000001
 20
50.5879990000000035
 11
26.5379989999999992
 21
50.5879990000000035
 72
1
 10
26.5379989999999992
 20
50.5879990000000035
 11
26.5379989999999992
 21
52.1119989999999973
 97
0
 75
0
 76
1
 98
0
  0
HATCH
  5
63
  8
MULTILAYER
 62
256
370
-1
  6
CONTINUOUS
100
AcDbEntity
100
AcDbHatch
 10
0.0
 20
0.0
 30
0.0
210
0.0
220
0.0
230
1.0
  2
SOLID
 70
1
 71
0
 91
1
 92
1
 93
4
 72
1
 10
26.5379989999999992
 20
54.6519990000000035
 11
28.0619990000000001
 21
54.6519990000000035
 72
1
 10
28.0619990000000001
 20
54.6519990000000035
 11
28.0619990000000001
 21
53.1279990000000026
 72
1
 10
28.0619990000000001
 20
53.1279990000000026
 11
26.5379989999999992
 21
53.1279990000000026
 72
1
 10
26.5379989999999992
 20
53.1279990000000026
 11
26.5379989999999992
 21
54.6519990000000035
 97
0
 75
0
 76
1
 98
0
  0
HATCH
  5
64
  8
MULTILAYER
 62
256
370
-1
  6
CONTINUOUS
100
AcDbEntity
100
AcDbHatch
 10
0.0
 20
0.0
 30
0.0
210
0.0
220
0.0
230
1.0
  2
SOLID
 70
1
 71
0
 91
1
 92
1
 93
4
 72
1
 10
29.0779989999999984
 20
52.1119989999999973
 11
30.6019989999999993
 21
52.1119989999999973
 72
1
 10
30.6019989999999993
 20
52.1119989999999973
 11
30.6019989999999993
 21
50.5879990000000035
 72
1
 10
30.6019989999999993
 20
50.5879990000000035
 11
29.0779989999999984
 21
50.5879990000000035
 72
1
 10
29.0779989999999984
 20
50.5879990000000035
 11
29.0779989999999984
 21
52.1119989999999973
 97
0
 75
0
 76
1
 98
0
  0
HATCH
  5
65
  8
MULTILAYER
 62
256
370
-1
  6
CONTINUOUS
100
AcDbEntity
100
AcDbHatch
 10
0.0
 20
0.0
 30
0.0
210
0.0
220
0.0
230
1.0
  2
SOLID
 70
1
 71
0
 91
1
 92
1
 93
4
 72
1
 10
29.0779989999999984
 20
54.6519990000000035
 11
30.6019989999999993
 21
54.6519990000000035
 72
1
 10
30.6019989999999993
 20
54.6519990000000035
 11
30.6019989999999993
 21
53.1279990000000026
 72
1
 10
30.6019989999999993
 20
53.1279990000000026
 11
29.0779989999999984
 21
53.1279990000000026
 72
1
 10
29.0779989999999984
 20
53.1279990000000026
 11
29.0779989999999984
 21
54.6519990000000035
 97
0
 75
0
 76
1
 98
0
  0
HATCH
  5
66
  8
MULTILAYER
 62
256
370
-1
  6
CONTINUOUS
100
AcDbEntity
100
AcDbHatch
 10
0.0
 20
0.0
 30
0.0
210
0.0
220
0.0
230
1.0
  2
SOLID
 70
1
 71
0
 91
1
 92
1
 93
4
 72
1
 10
31.6179990000000011
 20
52.1119989999999973
 11
33.1419989999999984
 21
52.1119989999999973
 72
1
 10
33.1419989999999984
 20
52.1119989999999973
 11
33.1419989999999984
 21
50.5879990000000035
 72
1
 10
33.1419989999999984
 20
50.5879990000000035
 11
31.6179990000000011
 21
50.5879990000000035
 72
1
 10
31.6179990000000011
 20
50.5879990000000035
 11
31.6179990000000011
 21
52.1119989999999973
 97
0
 75
0
 76
1
 98
0
  0
HATCH
  5
67
  8
MULTILAYER
 62
256
370
-1
  6
CONTINUOUS
100
AcDbEntity
100
AcDbHatch
 10
0.0
 20
0.0
 30
0.0
210
0.0
220
0.0
230
1.0
  2
SOLID
 70
1
 71
0
 91
1
 92
1
 93
4
 72
1
 10
31.6179990000000011
 20
54.6519990000000035
 11
33.1419989999999984
 21
54.6519990000000035
 72
1
 10
33.1419989999999984
 20
54.6519990000000035
 11
33.1419989999999984
 21
53.1279990000000026
 72
1
 10
33.1419989999999984
 20
53.1279990000000026
 11
31.6179990000000011
 21
53.1279990000000026
 72
1
 10
31.6179990000000011
 20
53.1279990000000026
 11
31.6179990000000011
 21
54.6519990000000035
 97
0
 75
0
 76
1
 98
0
  0
HATCH
  5
68
  8
MULTILAYER
 62
256
370
-1
  6
CONTINUOUS
100
AcDbEntity
100
AcDbHatch
 10
0.0
 20
0.0
 30
0.0
210
0.0
220
0.0
230
1.0
  2
SOLID
 70
1
 71
0
 91
1
 92
1
 93
4
 72
1
 10
53.886999000000003
 20
46.8419990000000013
 11
53.886999000000003
 21
45.3179990000000004
 72
1
 10
53.886999000000003
 20
45.3179990000000004
 11
52.3629990000000021
 21
45.3179990000000004
 72
1
 10
52.3629990000000021
 20
45.3179990000000004
 11
52.3629990000000021
 21
46.8419990000000013
 72
1
 10
52.3629990000000021
 20
46.8419990000000013
 11
53.886999000000003
 21
46.8419990000000013
 97
0
 75
0
 76
1
 98
0
  0
HATCH
  5
69
  8
MULTILAYER
 62
256
370
-1
  6
CONTINUOUS
100
AcDbEntity
100
AcDbHatch
 10
0.0
 20
0.0
 30
0.0
210
0.0
220
0.0
230
1.0
  2
SOLID
 70
1
 71
0
 91
1
 92
1
 93
4
 72
1
 10
53.886999000000003
 20
39.2219989999999967
 11
53.886999000000003
 21
37.6979990000000029
 72
1
 10
53.886999000000003
 20
37.6979990000000029
 11
52.3629990000000021
 21
37.6979990000000029
 72
1
 10
52.3629990000000021
 20
37.6979990000000029
 11
52.3629990000000021
 21
39.2219989999999967
 72
1
 10
52.3629990000000021
 20
39.2219989999999967
 11
53.886999000000003
 21
39.2219989999999967
 97
0
 75
0
 76
1
 98
0
  0
HATCH
  5
6A
  8
MULTILAYER
 62
256
370
-1
  6
CONTINUOUS
100
AcDbEntity
100
AcDbHatch
 10
0.0
 20
0.0
 30
0.0
210
0.0
220
0.0
230
1.0
  2
SOLID
 70
1
 71
0
 91
1
 92
1
 93
4
 72
1
 10
53.886999000000003
 20
36.6819989999999976
 11
53.886999000000003
 21
35.1579989999999967
 72
1
 10
53.886999000000003
 20
35.1579989999999967
 11
52.3629990000000021
 21
35.1579989999999967
 72
1
 10
52.3629990000000021
 20
35.1579989999999967
 11
52.3629990000000021
 21
36.6819989999999976
 72
1
 10
52.3629990000000021
 20
36.6819989999999976
 11
53.886999000000003
 21
36.6819989999999976
 97
0
 75
0
 76
1
 98
0
  0
HATCH
  5
6B
  8
MULTILAYER
 62
256
370
-1
  6
CONTINUOUS
100
AcDbEntity
100
AcDbHatch
 10
0.0
 20
0.0
 30
0.0
210
0.0
220
0.0
230
1.0
  2
SOLID
 70
1
 71
0
 91
1
 92
1
 93
4
 72
1
 10
53.886999000000003
 20
34.1419989999999984
 11
53.886999000000003
 21
32.6179989999999975
 72
1
 10
53.886999000000003
 20
32.6179989999999975
 11
52.3629990000000021
 21
32.6179989999999975
 72
1
 10
52.3629990000000021
 20
32.6179989999999975
 11
52.3629990000000021
 21
34.1419989999999984
 72
1
 10
52.3629990000000021
 20
34.1419989999999984
 11
53.886999000000003
 21
34.1419989999999984
 97
0
 75
0
 76
1
 98
0
  0
HATCH
  5
6C
  8
MULTILAYER
 62
256
370
-1
  6
CONTINUOUS
100
AcDbEntity
100
AcDbHatch
 10
0.0
 20
0.0
 30
0.0
210
0.0
220
0.0
230
1.0
  2
SOLID
 70
1
 71
0
 91
1
 92
1
 93
4
 72
1
 10
53.886999000000003
 20
31.6019989999999993
 11
53.886999000000003
 21
30.0779989999999984
 72
1
 10
53.886999000000003
 20
30.0779989999999984
 11
52.3629990000000021
 21
30.0779989999999984
 72
1
 10
52.3629990000000021
 20
30.0779989999999984
 11
52.3629990000000021
 21
31.6019989999999993
 72
1
 10
52.3629990000000021
 20
31.6019989999999993
 11
53.886999000000003
 21
31.6019989999999993
 97
0
 75
0
 76
1
 98
0
  0
HATCH
  5
6D
  8
MULTILAYER
 62
256
370
-1
  6
CONTINUOUS
100
AcDbEntity
100
AcDbHatch
 10
0.0
 20
0.0
 30
0.0
210
0.0
220
0.0
230
1.0
  2
SOLID
 70
1
 71
0
 91
1
 92
1
 93
4
 72
1
 10
53.886999000000003
 20
29.0619990000000001
 11
53.886999000000003
 21
27.5379989999999992
 72
1
 10
53.886999000000003
 20
27.5379989999999992
 11
52.3629990000000021
 21
27.5379989999999992
 72
1
 10
52.3629990000000021
 20
27.5379989999999992
 11
52.3629990000000021
 21
29.0619990000000001
 72
1
 10
52.3629990000000021
 20
29.0619990000000001
 11
53.886999000000003
 21
29.0619990000000001
 97
0
 75
0
 76
1
 98
0
  0
HATCH
  5
6E
  8
MULTILAYER
 62
256
370
-1
  6
CONTINUOUS
100
AcDbEntity
100
AcDbHatch
 10
0.0
 20
0.0
 30
0.0
210
0.0
220
0.0
230
1.0
  2
SOLID
 70
1
 71
0
 91
1
 92
1
 93
4
 72
1
 10
53.886999000000003
 20
44.3019990000000021
 11
53.886999000000003
 21
42.7779990000000012
 72
1
 10
53.886999000000003
 20
42.7779990000000012
 11
52.3629990000000021
 21
42.7779990000000012
 72
1
 10
52.3629990000000021
 20
42.7779990000000012
 11
52.3629990000000021
 21
44.3019990000000021
 72
1
 10
52.3629990000000021
 20
44.3019990000000021
 11
53.886999000000003
 21
44.3019990000000021
 97
0
 75
0
 76
1
 98
0
  0
HATCH
  5
6F
  8
MULTILAYER
 62
256
370
-1
  6
CONTINUOUS
100
AcDbEntity
100
AcDbHatch
 10
0.0
 20
0.0
 30
0.0
210
0.0
220
0.0
230
1.0
  2
SOLID
 70
1
 71
0
 91
1
 92
1
 93
4
 72
1
 10
53.886999000000003
 20
41.761999000000003
 11
53.886999000000003
 21
40.2379990000000021
 72
1
 10
53.886999000000003
 20
40.2379990000000021
 11
52.3629990000000021
 21
40.2379990000000021
 72
1
 10
52.3629990000000021
 20
40.2379990000000021
 11
52.3629990000000021
 21
41.761999000000003
 72
1
 10
52.3629990000000021
 20
41.761999000000003
 11
53.886999000000003
 21
41.761999000000003
 97
0
 75
0
 76
1
 98
0
  0
HATCH
  5
70
  8
MULTILAYER
 62
256
370
-1
  6
CONTINUOUS
100
AcDbEntity
100
AcDbHatch
 10
0.0
 20
0.0
 30
0.0
210
0.0
220
0.0
230
1.0
  2
SOLID
 70
1
 71
0
 91
1
 92
1
 93
4
 72
1
 10
56.4269990000000021
 20
39.2219989999999967
 11
56.4269990000000021
 21
37.6979990000000029
 72
1
 10
56.4269990000000021
 20
37.6979990000000029
 11
54.9029990000000012
 21
37.6979990000000029
 72
1
 10
54.9029990000000012
 20
37.6979990000000029
 11
54.9029990000000012
 21
39.2219989999999967
 72
1
 10
54.9029990000000012
 20
39.2219989999999967
 11
56.4269990000000021
 21
39.2219989999999967
 97
0
 75
0
 76
1
 98
0
  0
HATCH
  5
71
  8
MULTILAYER
 62
256
370
-1
  6
CONTINUOUS
100
AcDbEntity
100
AcDbHatch
 10
0.0
 20
0.0
 30
0.0
210
0.0
220
0.0
230
1.0
  2
SOLID
 70
1
 71
0
 91
1
 92
1
 93
4
 72
1
 10
56.4269990000000021
 20
36.6819989999999976
 11
56.4269990000000021
 21
35.1579989999999967
 72
1
 10
56.4269990000000021
 20
35.1579989999999967
 11
54.9029990000000012
 21
35.1579989999999967
 72
1
 10
54.9029990000000012
 20
35.1579989999999967
 11
54.9029990000000012
 21
36.6819989999999976
 72
1
 10
54.9029990000000012
 20
36.6819989999999976
 11
56.4269990000000021
 21
36.6819989999999976
 97
0
 75
0
 76
1
 98
0
  0
HATCH
  5
72
  8
MULTILAYER
 62
256
370
-1
  6
CONTINUOUS
100
AcDbEntity
100
AcDbHatch
 10
0.0
 20
0.0
 30
0.0
210
0.0
220
0.0
230
1.0
  2
SOLID
 70
1
 71
0
 91
1
 92
1
 93
4
 72
1
 10
56.4269990000000021
 20
34.1419989999999984
 11
56.4269990000000021
 21
32.6179989999999975
 72
1
 10
56.4269990000000021
 20
32.6179989999999975
 11
54.9029990000000012
 21
32.6179989999999975
 72
1
 10
54.9029990000000012
 20
32.6179989999999975
 11
54.9029990000000012
 21
34.1419989999999984
 72
1
 10
54.9029990000000012
 20
34.1419989999999984
 11
56.4269990000000021
 21
34.1419989999999984
 97
0
 75
0
 76
1
 98
0
  0
HATCH
  5
73
  8
MULTILAYER
 62
256
370
-1
  6
CONTINUOUS
100
AcDbEntity
100
AcDbHatch
 10
0.0
 20
0.0
 30
0.0
210
0.0
220
0.0
230
1.0
  2
SOLID
 70
1
 71
0
 91
1
 92
1
 93
4
 72
1
 10
56.4269990000000021
 20
31.6019989999999993
 11
56.4269990000000021
 21
30.0779989999999984
 72
1
 10
56.4269990000000021
 20
30.0779989999999984
 11
54.9029990000000012
 21
30.0779989999999984
 72
1
 10
54.9029990000000012
 20
30.0779989999999984
 11
54.9029990000000012
 21
31.6019989999999993
 72
1
 10
54.9029990000000012
 20
31.6019989999999993
 11
56.4269990000000021
 21
31.6019989999999993
 97
0
 75
0
 76
1
 98
0
  0
HATCH
  5
74
  8
MULTILAYER
 62
256
370
-1
  6
CONTINUOUS
100
AcDbEntity
100
AcDbHatch
 10
0.0
 20
0.0
 30
0.0
210
0.0
220
0.0
230
1.0
  2
SOLID
 70
1
 71
0
 91
1
 92
1
 93
4
 72
1
 10
56.4269990000000021
 20
29.0619990000000001
 11
56.4269990000000021
 21
27.5379989999999992
 72
1
 10
56.4269990000000021
 20
27.5379989999999992
 11
54.9029990000000012
 21
27.5379989999999992
 72
1
 10
54.9029990000000012
 20
27.5379989999999992
 11
54.9029990000000012
 21
29.0619990000000001
 72
1
 10
54.9029990000000012
 20
29.0619990000000001
 11
56.4269990000000021
 21
29.0619990000000001
 97
0
 75
0
 76
1
 98
0
  0
HATCH
  5
75
  8
MULTILAYER
 62
256
370
-1
  6
CONTINUOUS
100
AcDbEntity
100
AcDbHatch
 10
0.0
 20
0.0
 30
0.0
210
0.0
220
0.0
230
1.0
  2
SOLID
 70
1
 71
0
 91
1
 92
1
 93
4
 72
1
 10
56.4269990000000021
 20
44.3019990000000021
 11
56.4269990000000021
 21
42.7779990000000012
 72
1
 10
56.4269990000000021
 20
42.7779990000000012
 11
54.9029990000000012
 21
42.7779990000000012
 72
1
 10
54.9029990000000012
 20
42.7779990000000012
 11
54.9029990000000012
 21
44.3019990000000021
 72
1
 10
54.9029990000000012
 20
44.3019990000000021
 11
56.4269990000000021
 21
44.3019990000000021
 97
0
 75
0
 76
1
 98
0
  0
HATCH
  5
76
  8
MULTILAYER
 62
256
370
-1
  6
CONTINUOUS
100
AcDbEntity
100
AcDbHatch
 10
0.0
 20
0.0
 30
0.0
210
0.0
220
0.0
230
1.0
  2
SOLID
 70
1
 71
0
 91
1
 92
1
 93
4
 72
1
 10
56.4269990000000021
 20
41.761999000000003
 11
56.4269990000000021
 21
40.2379990000000021
 72
1
 10
56.4269990000000021
 20
40.2379990000000021
 11
54.9029990000000012
 21
40.2379990000000021
 72
1
 10
54.9029990000000012
 20
40.2379990000000021
 11
54.9029990000000012
 21
41.761999000000003
 72
1
 10
54.9029990000000012
 20
41.761999000000003
 11
56.4269990000000021
 21
41.761999000000003
 97
0
 75
0
 76
1
 98
0
  0
HATCH
  5
77
  8
MULTILAYER
 62
256
370
-1
  6
CONTINUOUS
100
AcDbEntity
100
AcDbHatch
 10
0.0
 20
0.0
 30
0.0
210
0.0
220
0.0
230
1.0
  2
SOLID
 70
1
 71
0
 91
1
 92
1
 93
4
 72
1
 10
38.5120009999999979
 20
55.1120000000000019
 11
38.5120009999999979
 21
53.588000000000001
 72
1
 10
38.5120009999999979
 20
53.588000000000001
 11
36.988000999999997
 21
53.588000000000001
 72
1
 10
36.988000999999997
 20
53.588000000000001
 11
36.988000999999997
 21
55.1120000000000019
 72
1
 10
36.988000999999997
 20
55.1120000000000019
 11
38.5120009999999979
 21
55.1120000000000019
 97
0
 75
0
 76
1
 98
0
  0
HATCH
  5
78
  8
MULTILAYER
 62
256
370
-1
  6
CONTINUOUS
100
AcDbEntity
100
AcDbHatch
 10
0.0
 20
0.0
 30
0.0
210
0.0
220
0.0
230
1.0
  2
SOLID
 70
1
 71
0
 91
1
 92
1
 93
4
 72
1
 10
25.3619990000000008
 20
16.4619989999999987
 11
25.3619990000000008
 21
14.9379989999999996
 72
1
 10
25.3619990000000008
 20
14.9379989999999996
 11
23.8379989999999999
 21
14.9379989999999996
 72
1
 10
23.8379989999999999
 20
14.9379989999999996
 11
23.8379989999999999
 21
16.4619989999999987
 72
1
 10
23.8379989999999999
 20
16.4619989999999987
 11
25.3619990000000008
 21
16.4619989999999987
 97
0
 75
0
 76
1
 98
0
  0
LINE
  5
79
100
AcDbEntity
100
AcDbLine
  8
MECHANICAL1
 62
256
370
-1
  6
ByLayer
 10
59.7455679999999987
 20
21.9499989999999983
 30
0.0
 11
59.7455679999999987
 21
0.532909
 31
0.0
  0
LINE
  5
7A
100
AcDbEntity
100
AcDbLine
  8
MECHANICAL1
 62
256
370
-1
  6
ByLayer
 10
56.7469549999999998
 20
0.532909
 30
0.0
 11
59.7455679999999987
 21
0.532909
 31
0.0
  0
LINE
  5
7B
100
AcDbEntity
100
AcDbLine
  8
MECHANICAL1
 62
256
370
-1
  6
ByLayer
 10
56.7469549999999998
 20
21.9499989999999983
 30
0.0
 11
56.7469549999999998
 21
0.532909
 31
0.0
  0
LINE
  5
7C
100
AcDbEntity
100
AcDbLine
  8
MECHANICAL1
 62
256
370
-1
  6
ByLayer
 10
56.7469549999999998
 20
21.9499989999999983
 30
0.0
 11
59.7455679999999987
 21
21.9499989999999983
 31
0.0
  0
LINE
  5
7D
100
AcDbEntity
100
AcDbLine
  8
MECHANICAL1
 62
256
370
-1
  6
ByLayer
 10
13.0906800000000008
 20
39.6912639999999968
 30
0.0
 11
13.0906800000000008
 21
18.1999989999999983
 31
0.0
  0
LINE
  5
7E
100
AcDbEntity
100
AcDbLine
  8
MECHANICAL1
 62
256
370
-1
  6
ByLayer
 10
10.1802620000000008
 20
18.1999989999999983
 30
0.0
 11
13.0906800000000008
 21
18.1999989999999983
 31
0.0
  0
LINE
  5
7F
100
AcDbEntity
100
AcDbLine
  8
MECHANICAL1
 62
256
370
-1
  6
ByLayer
 10
10.1802620000000008
 20
39.6912639999999968
 30
0.0
 11
10.1802620000000008
 21
18.1999989999999983
 31
0.0
  0
LINE
  5
80
100
AcDbEntity
100
AcDbLine
  8
MECHANICAL1
 62
256
370
-1
  6
ByLayer
 10
10.1802620000000008
 20
39.6912639999999968
 30
0.0
 11
13.0906800000000008
 21
39.6912639999999968
 31
0.0
  0
LINE
  5
81
100
AcDbEntity
100
AcDbLine
  8
MECHANICAL1
 62
256
370
-1
  6
ByLayer
 10
17.5004039999999996
 20
42.4252949999999984
 30
0.0
 11
17.5004039999999996
 21
18.1718100000000007
 31
0.0
  0
LINE
  5
82
100
AcDbEntity
100
AcDbLine
  8
MECHANICAL1
 62
256
370
-1
  6
ByLayer
 10
0.0
 20
42.4252949999999984
 30
0.0
 11
17.5004039999999996
 21
42.4252949999999984
 31
0.0
  0
LINE
  5
83
100
AcDbEntity
100
AcDbLine
  8
MECHANICAL1
 62
256
370
-1
  6
ByLayer
 10
0.0
 20
18.1718100000000007
 30
0.0
 11
17.5004039999999996
 21
18.1718100000000007
 31
0.0
  0
LINE
  5
84
100
AcDbEntity
100
AcDbLine
  8
MECHANICAL1
 62
256
370
-1
  6
ByLayer
 10
4.2999989999999997
 20
11.4690270000000005
 30
0.0
 11
4.2999989999999997
 21
3.8843019999999999
 31
0.0
  0
LINE
  5
85
100
AcDbEntity
100
AcDbLine
  8
MECHANICAL1
 62
256
370
-1
  6
ByLayer
 10
0.0
 20
11.4690270000000005
 30
0.0
 11
4.2999989999999997
 21
11.4690270000000005
 31
0.0
  0
LINE
  5
86
100
AcDbEntity
100
AcDbLine
  8
MECHANICAL1
 62
256
370
-1
  6
ByLayer
 10
0.0
 20
3.8843019999999999
 30
0.0
 11
4.2999989999999997
 21
3.8843019999999999
 31
0.0
  0
LINE
  5
87
100
AcDbEntity
100
AcDbLine
  8
MECHANICAL1
 62
256
370
-1
  6
ByLayer
 10
51.984453000000002
 20
10.7634709999999991
 30
0.0
 11
51.984453000000002
 21
0.0
 31
0.0
  0
LINE
  5
88
100
AcDbEntity
100
AcDbLine
  8
MECHANICAL1
 62
256
370
-1
  6
ByLayer
 10
37.0795829999999995
 20
10.7634709999999991
 30
0.0
 11
37.0795829999999995
 21
0.0
 31
0.0
  0
LINE
  5
89
100
AcDbEntity
100
AcDbLine
  8
MECHANICAL1
 62
256
370
-1
  6
ByLayer
 10
37.0795829999999995
 20
10.7634709999999991
 30
0.0
 11
51.984453000000002
 21
10.7634709999999991
 31
0.0
  0
LINE
  5
8A
100
AcDbEntity
100
AcDbLine
  8
MECHANICAL1
 62
256
370
-1
  6
ByLayer
 10
65.7427919999999943
 20
2.2968000000000002
 30
0.0
 11
85.0
 21
2.2968000000000002
 31
0.0
  0
LINE
  5
8B
100
AcDbEntity
100
AcDbLine
  8
MECHANICAL1
 62
256
370
-1
  6
ByLayer
 10
65.7427919999999943
 20
18.0836129999999997
 30
0.0
 11
65.7427919999999943
 21
2.2968000000000002
 31
0.0
  0
LINE
  5
8C
100
AcDbEntity
100
AcDbLine
  8
MECHANICAL1
 62
256
370
-1
  6
ByLayer
 10
65.7427919999999943
 20
18.0836129999999997
 30
0.0
 11
85.0
 21
18.0836129999999997
 31
0.0
  0
LINE
  5
8D
100
AcDbEntity
100
AcDbLine
  8
MECHANICAL1
 62
256
370
-1
  6
ByLayer
 10
75.3559910000000031
 20
37.6627920000000032
 30
0.0
 11
75.3559910000000031
 21
24.3454249999999988
 31
0.0
  0
LINE
  5
8E
100
AcDbEntity
100
AcDbLine
  8
MECHANICAL1
 62
256
370
-1
  6
ByLayer
 10
75.3559910000000031
 20
37.6627920000000032
 30
0.0
 11
85.0
 21
37.6627920000000032
 31
0.0
  0
LINE
  5
8F
100
AcDbEntity
100
AcDbLine
  8
MECHANICAL1
 62
256
370
-1
  6
ByLayer
 10
75.3559910000000031
 20
24.3454249999999988
 30
0.0
 11
85.0
 21
24.3454249999999988
 31
0.0
  0
LINE
  5
90
100
AcDbEntity
100
AcDbLine
  8
MECHANICAL1
 62
256
370
-1
  6
ByLayer
 10
70.7698790000000031
 20
56.1999989999999983
 30
0.0
 11
70.7698790000000031
 21
45.5121010000000012
 31
0.0
  0
LINE
  5
91
100
AcDbEntity
100
AcDbLine
  8
MECHANICAL1
 62
256
370
-1
  6
ByLayer
 10
58.5108430000000013
 20
56.1999989999999983
 30
0.0
 11
58.5108430000000013
 21
45.5121010000000012
 31
0.0
  0
LINE
  5
92
100
AcDbEntity
100
AcDbLine
  8
MECHANICAL1
 62
256
370
-1
  6
ByLayer
 10
58.5108430000000013
 20
45.5121010000000012
 30
0.0
 11
70.7698790000000031
 21
45.5121010000000012
 31
0.0
  0
LINE
  5
93
100
AcDbEntity
100
AcDbLine
  8
MECHANICAL1
 62
256
370
-1
  6
ByLayer
 10
51.4552839999999989
 20
53.8905779999999979
 30
0.0
 11
51.4552839999999989
 21
43.7482129999999998
 31
0.0
  0
LINE
  5
94
100
AcDbEntity
100
AcDbLine
  8
MECHANICAL1
 62
256
370
-1
  6
ByLayer
 10
40.6955570000000009
 20
43.7482129999999998
 30
0.0
 11
51.4552839999999989
 21
43.7482129999999998
 31
0.0
  0
LINE
  5
95
100
AcDbEntity
100
AcDbLine
  8
MECHANICAL1
 62
256
370
-1
  6
ByLayer
 10
40.6955570000000009
 20
53.8905779999999979
 30
0.0
 11
40.6955570000000009
 21
43.7482129999999998
 31
0.0
  0
LINE
  5
96
100
AcDbEntity
100
AcDbLine
  8
MECHANICAL1
 62
256
370
-1
  6
ByLayer
 10
40.6955570000000009
 20
53.8905779999999979
 30
0.0
 11
51.4552839999999989
 21
53.8905779999999979
 31
0.0
  0
LINE
  5
97
100
AcDbEntity
100
AcDbLine
  8
MECHANICAL1
 62
256
370
-1
  6
ByLayer
 10
50.1323689999999971
 20
56.1999989999999983
 30
0.0
 11
50.1323689999999971
 21
53.8905779999999979
 31
0.0
  0
LINE
  5
98
100
AcDbEntity
100
AcDbLine
  8
MECHANICAL1
 62
256
370
-1
  6
ByLayer
 10
41.8420849999999973
 20
56.1999989999999983
 30
0.0
 11
41.8420849999999973
 21
53.8905779999999979
 31
0.0
  0
LINE
  5
99
100
AcDbEntity
100
AcDbLine
  8
MECHANICAL1
 62
256
370
-1
  6
ByLayer
 10
41.8420849999999973
 20
53.8905779999999979
 30
0.0
 11
50.1323689999999971
 21
53.8905779999999979
 31
0.0
  0
LINE
  5
9A
100
AcDbEntity
100
AcDbLine
  8
MECHANICAL1
 62
256
370
-1
  6
ByLayer
 10
0.0
 20
56.1999989999999983
 30
0.0
 11
85.0001979999999975
 21
56.1999989999999983
 31
0.0
  0
LINE
  5
9B
100
AcDbEntity
100
AcDbLine
  8
MECHANICAL1
 62
256
370
-1
  6
ByLayer
 10
0.0
 20
56.1999989999999983
 30
0.0
 11
0.0
 21
0.000298999999998
 31
0.0
  0
LINE
  5
9C
100
AcDbEntity
100
AcDbLine
  8
TOPOVERLAY
 62
256
370
-1
  6
ByLayer
 10
0.0
 20
56.1999989999999983
 30
0.0
 11
85.0
 21
56.1999989999999983
 31
0.0
  0
LINE
  5
9D
100
AcDbEntity
100
AcDbLine
  8
TOPOVERLAY
 62
256
370
-1
  6
ByLayer
 10
0.0
 20
0.0
 30
0.0
 11
85.0
 21
0.0
 31
0.0
  0
LINE
  5
9E
100
AcDbEntity
100
AcDbLine
  8
TOPOVERLAY
 62
256
370
-1
  6
ByLayer
 10
0.629999
 20
50.0799990000000008
 30
0.0
 11
33.6499990000000011
 21
50.0799990000000008
 31
0.0
  0
LINE
  5
9F
100
AcDbEntity
100
AcDbLine
  8
TOPOVERLAY
 62
256
370
-1
  6
ByLayer
 10
61.1499999999999986
 20
60.0999989999999968
 30
0.0
 11
68.2249989999999968
 21
60.0999989999999968
 31
0.0
  0
LINE
  5
A0
100
AcDbEntity
100
AcDbLine
  8
TOPOVERLAY
 62
256
370
-1
  6
ByLayer
 10
58.5
 20
56.5750000000000028
 30
0.0
 11
70.774998999999994
 21
56.5750000000000028
 31
0.0
  0
LINE
  5
A1
100
AcDbEntity
100
AcDbLine
  8
TOPOVERLAY
 62
256
370
-1
  6
ByLayer
 10
0.629999
 20
55.1599989999999991
 30
0.0
 11
33.6499990000000011
 21
55.1599989999999991
 31
0.0
  0
LINE
  5
A2
100
AcDbEntity
100
AcDbLine
  8
TOPOVERLAY
 62
256
370
-1
  6
ByLayer
 10
85.0
 20
37.6749989999999997
 30
0.0
 11
92.524998999999994
 21
37.6749989999999997
 31
0.0
  0
LINE
  5
A3
100
AcDbEntity
100
AcDbLine
  8
TOPOVERLAY
 62
256
370
-1
  6
ByLayer
 10
85.0
 20
24.3499990000000004
 30
0.0
 11
92.524998999999994
 21
24.3499990000000004
 31
0.0
  0
LINE
  5
A4
100
AcDbEntity
100
AcDbLine
  8
TOPOVERLAY
 62
256
370
-1
  6
ByLayer
 10
41.8500000000000014
 20
63.2999999999999972
 30
0.0
 11
50.125
 21
63.2999999999999972
 31
0.0
  0
LINE
  5
A5
100
AcDbEntity
100
AcDbLine
  8
TOPOVERLAY
 62
256
370
-1
  6
ByLayer
 10
54.3949989999999985
 20
44.8099989999999977
 30
0.0
 11
56.9349989999999977
 21
44.8099989999999977
 31
0.0
  0
LINE
  5
A6
100
AcDbEntity
100
AcDbLine
  8
TOPOVERLAY
 62
256
370
-1
  6
ByLayer
 10
54.3949989999999985
 20
29.5699989999999993
 30
0.0
 11
56.9349989999999977
 21
29.5699989999999993
 31
0.0
  0
LINE
  5
A7
100
AcDbEntity
100
AcDbLine
  8
TOPOVERLAY
 62
256
370
-1
  6
ByLayer
 10
54.3949989999999985
 20
27.0299990000000001
 30
0.0
 11
56.9349989999999977
 21
27.0299990000000001
 31
0.0
  0
LINE
  5
A8
100
AcDbEntity
100
AcDbLine
  8
TOPOVERLAY
 62
256
370
-1
  6
ByLayer
 10
37.0750010000000003
 20
-1.1500010000000001
 30
0.0
 11
52.0
 21
-1.1500010000000001
 31
0.0
  0
LINE
  5
A9
100
AcDbEntity
100
AcDbLine
  8
TOPOVERLAY
 62
256
370
-1
  6
ByLayer
 10
-18.0
 20
42.4249999999999972
 30
0.0
 11
-0.024999
 21
42.4249999999999972
 31
0.0
  0
LINE
  5
AA
100
AcDbEntity
100
AcDbLine
  8
TOPOVERLAY
 62
256
370
-1
  6
ByLayer
 10
-18.0
 20
18.1750000000000007
 30
0.0
 11
0.0
 21
18.1750000000000007
 31
0.0
  0
LINE
  5
AB
100
AcDbEntity
100
AcDbLine
  8
TOPOVERLAY
 62
256
370
-1
  6
ByLayer
 10
0.0
 20
56.1999989999999983
 30
0.0
 11
0.0
 21
0.0
 31
0.0
  0
LINE
  5
AC
100
AcDbEntity
100
AcDbLine
  8
TOPOVERLAY
 62
256
370
-1
  6
ByLayer
 10
56.9349989999999977
 20
44.8099989999999977
 30
0.0
 11
56.9349989999999977
 21
27.0299990000000001
 31
0.0
  0
LINE
  5
AD
100
AcDbEntity
100
AcDbLine
  8
TOPOVERLAY
 62
256
370
-1
  6
ByLayer
 10
-0.750001
 20
11.4749979999999994
 30
0.0
 11
0.0
 21
11.4749979999999994
 31
0.0
  0
LINE
  5
AE
100
AcDbEntity
100
AcDbLine
  8
TOPOVERLAY
 62
256
370
-1
  6
ByLayer
 10
85.0
 20
18.0749980000000008
 30
0.0
 11
86.0000009999999975
 21
18.0749980000000008
 31
0.0
  0
LINE
  5
AF
100
AcDbEntity
100
AcDbLine
  8
TOPOVERLAY
 62
256
370
-1
  6
ByLayer
 10
85.0
 20
2.2999999999999998
 30
0.0
 11
86.0000009999999975
 21
2.2999999999999998
 31
0.0
  0
LINE
  5
B0
100
AcDbEntity
100
AcDbLine
  8
TOPOVERLAY
 62
256
370
-1
  6
ByLayer
 10
51.8549989999999994
 20
47.3499989999999968
 30
0.0
 11
54.3949989999999985
 21
47.3499989999999968
 31
0.0
  0
LINE
  5
B1
100
AcDbEntity
100
AcDbLine
  8
TOPOVERLAY
 62
256
370
-1
  6
ByLayer
 10
51.8549989999999994
 20
29.5699989999999993
 30
0.0
 11
54.3949989999999985
 21
29.5699989999999993
 31
0.0
  0
LINE
  5
B2
100
AcDbEntity
100
AcDbLine
  8
TOPOVERLAY
 62
256
370
-1
  6
ByLayer
 10
51.8549989999999994
 20
27.0299990000000001
 30
0.0
 11
54.3949989999999985
 21
27.0299990000000001
 31
0.0
  0
LINE
  5
B3
100
AcDbEntity
100
AcDbLine
  8
TOPOVERLAY
 62
256
370
-1
  6
ByLayer
 10
-0.750001
 20
3.8749980000000002
 30
0.0
 11
0.0
 21
3.8749980000000002
 31
0.0
  0
LINE
  5
B4
100
AcDbEntity
100
AcDbLine
  8
TOPOVERLAY
 62
256
370
-1
  6
ByLayer
 10
92.524998999999994
 20
37.6749989999999997
 30
0.0
 11
92.524998999999994
 21
24.3499990000000004
 31
0.0
  0
LINE
  5
B5
100
AcDbEntity
100
AcDbLine
  8
TOPOVERLAY
 62
256
370
-1
  6
ByLayer
 10
85.0
 20
56.1999989999999983
 30
0.0
 11
85.0
 21
0.0
 31
0.0
  0
LINE
  5
B6
100
AcDbEntity
100
AcDbLine
  8
TOPOVERLAY
 62
256
370
-1
  6
ByLayer
 10
50.125
 20
63.2999999999999972
 30
0.0
 11
50.125
 21
56.1999989999999983
 31
0.0
  0
LINE
  5
B7
100
AcDbEntity
100
AcDbLine
  8
TOPOVERLAY
 62
256
370
-1
  6
ByLayer
 10
41.8500000000000014
 20
63.2999999999999972
 30
0.0
 11
41.8500000000000014
 21
56.1999989999999983
 31
0.0
  0
LINE
  5
B8
100
AcDbEntity
100
AcDbLine
  8
TOPOVERLAY
 62
256
370
-1
  6
ByLayer
 10
-18.0
 20
42.4249999999999972
 30
0.0
 11
-18.0
 21
18.1750000000000007
 31
0.0
  0
LINE
  5
B9
100
AcDbEntity
100
AcDbLine
  8
TOPOVERLAY
 62
256
370
-1
  6
ByLayer
 10
86.0000009999999975
 20
18.0749980000000008
 30
0.0
 11
86.0000009999999975
 21
2.2999999999999998
 31
0.0
  0
LINE
  5
BA
100
AcDbEntity
100
AcDbLine
  8
TOPOVERLAY
 62
256
370
-1
  6
ByLayer
 10
54.3949989999999985
 20
44.8099989999999977
 30
0.0
 11
54.3949989999999985
 21
27.0299990000000001
 31
0.0
  0
LINE
  5
BB
100
AcDbEntity
100
AcDbLine
  8
TOPOVERLAY
 62
256
370
-1
  6
ByLayer
 10
54.3949989999999985
 20
47.3499989999999968
 30
0.0
 11
54.3949989999999985
 21
27.0299990000000001
 31
0.0
  0
LINE
  5
BC
100
AcDbEntity
100
AcDbLine
  8
TOPOVERLAY
 62
256
370
-1
  6
ByLayer
 10
51.8549989999999994
 20
47.3499989999999968
 30
0.0
 11
51.8549989999999994
 21
27.0299990000000001
 31
0.0
  0
LINE
  5
BD
100
AcDbEntity
100
AcDbLine
  8
TOPOVERLAY
 62
256
370
-1
  6
ByLayer
 10
33.6499990000000011
 20
55.1599989999999991
 30
0.0
 11
33.6499990000000011
 21
50.0799990000000008
 31
0.0
  0
LINE
  5
BE
100
AcDbEntity
100
AcDbLine
  8
TOPOVERLAY
 62
256
370
-1
  6
ByLayer
 10
0.629999
 20
55.1599989999999991
 30
0.0
 11
0.629999
 21
50.0799990000000008
 31
0.0
  0
LINE
  5
BF
100
AcDbEntity
100
AcDbLine
  8
TOPOVERLAY
 62
256
370
-1
  6
ByLayer
 10
-0.750001
 20
11.4749979999999994
 30
0.0
 11
-0.750001
 21
3.8749980000000002
 31
0.0
  0
LINE
  5
C0
100
AcDbEntity
100
AcDbLine
  8
TOPOVERLAY
 62
256
370
-1
  6
ByLayer
 10
70.774998999999994
 20
56.5750000000000028
 30
0.0
 11
70.774998999999994
 21
56.1999989999999983
 31
0.0
  0
LINE
  5
C1
100
AcDbEntity
100
AcDbLine
  8
TOPOVERLAY
 62
256
370
-1
  6
ByLayer
 10
68.2249989999999968
 20
60.0999989999999968
 30
0.0
 11
68.2249989999999968
 21
56.5750000000000028
 31
0.0
  0
LINE
  5
C2
100
AcDbEntity
100
AcDbLine
  8
TOPOVERLAY
 62
256
370
-1
  6
ByLayer
 10
61.1499999999999986
 20
60.0999989999999968
 30
0.0
 11
61.1499999999999986
 21
56.5750000000000028
 31
0.0
  0
LINE
  5
C3
100
AcDbEntity
100
AcDbLine
  8
TOPOVERLAY
 62
256
370
-1
  6
ByLayer
 10
58.5
 20
56.5750000000000028
 30
0.0
 11
58.5
 21
56.1999989999999983
 31
0.0
  0
LINE
  5
C4
100
AcDbEntity
100
AcDbLine
  8
TOPOVERLAY
 62
256
370
-1
  6
ByLayer
 10
52.0
 20
0.0
 30
0.0
 11
52.0
 21
-1.1500010000000001
 31
0.0
  0
LINE
  5
C5
100
AcDbEntity
100
AcDbLine
  8
TOPOVERLAY
 62
256
370
-1
  6
ByLayer
 10
37.0750010000000003
 20
0.0
 30
0.0
 11
37.0750010000000003
 21
-1.1500010000000001
 31
0.0
  0
ENDBLK
  5
C6
100
AcDbEntity
  8
0
100
AcDbBlockEnd
  0
BLOCK
  5
C7
100
AcDbEntity
  8
0
100
AcDbBlockBegin
  2
lcd
 70
0
 10
0.0
 20
0.0
 30
0.0
  3
lcd
  1

  0
LINE
  5
C8
100
AcDbEntity
100
AcDbLine
  8
0
 62
256
370
-1
  6
ByLayer
 10
40.1000000000000014
 20
-0.0000000000000024
 30
0.0
 11
40.1000000000000014
 21
67.2000000000000028
 31
0.0
  0
LINE
  5
C9
100
AcDbEntity
100
AcDbLine
  8
0
 62
256
370
-1
  6
ByLayer
 10
0.0000000000000071
 20
67.2000000000000028
 30
0.0
 11
0.0
 21
0.0
 31
0.0
  0
LINE
  5
CA
100
AcDbEntity
100
AcDbLine
  8
0
 62
256
370
-1
  6
ByLayer
 10
0.0
 20
0.0
 30
0.0
 11
40.1000000000000014
 21
-0.0000000000000024
 31
0.0
  0
LINE
  5
CB
100
AcDbEntity
100
AcDbLine
  8
0
 62
256
370
-1
  6
ByLayer
 10
40.1000000000000014
 20
67.2000000000000028
 30
0.0
 11
0.0000000000000071
 21
67.2000000000000028
 31
0.0
  0
CIRCLE
  5
CC
100
AcDbEntity
100
AcDbCircle
  8
0
 62
256
370
-1
  6
ByLayer
 10
37.1000000000000014
 20
3.0
 30
0.0
 40
1.6000000000000001
  0
CIRCLE
  5
CD
100
AcDbEntity
100
AcDbCircle
  8
0
 62
256
370
-1
  6
ByLayer
 10
37.1000000000000014
 20
64.2000000000000028
 30
0.0
 40
1.6000000000000001
  0
CIRCLE
  5
CE
100
AcDbEntity
100
AcDbCircle
  8
0
 62
256
370
-1
  6
ByLayer
 10
3.0
 20
3.0
 30
0.0
 40
1.6000000000000001
  0
CIRCLE
  5
CF
100
AcDbEntity
100
AcDbCircle
  8
0
 62
256
370
-1
  6
ByLayer
 10
3.0
 20
64.2000000000000028
 30
0.0
 40
1.6000000000000001
  0
LINE
  5
D0
100
AcDbEntity
100
AcDbLine
  8
0
 62
256
370
-1
  6
ByLayer
 10
40.1000000000000014
 20
6.0
 30
0.0
 11
0.0
 21
6.0
 31
0.0
  0
LINE
  5
D1
100
AcDbEntity
100
AcDbLine
  8
0
 62
256
370
-1
  6
ByLayer
 10
40.1000000000000014
 20
61.2000000000000028
 30
0.0
 11
0.0000000000000071
 21
61.2000000000000028
 31
0.0
  0
ENDBLK
  5
D2
100
AcDbEntity
  8
0
100
AcDbBlockEnd
  0
ENDSEC
  0
SECTION
  2
ENTITIES
  0
IMAGE
  5
D3
  8
0
 62
256
370
-1
  6
ByLayer
100
AcDbEntity
100
AcDbRasterImage
 90
0
 10
94.880000000199999
 20
16.8000000000000007
 30
0.0
 11
1.0
 21
0.0
 31
0.0
 12
0.0000000000000001
 22
1.0
 32
0.0
 13
1.0
 23
1.0
340
D4
 70
15
280
0
281
50
282
50
283
0
  0
ARC
  5
D5
100
AcDbEntity
  8
0
 62
256
370
-1
  6
ByLayer
100
AcDbCircle
 10
8.0
 20
61.0
 30
0.0
 40
8.0
100
AcDbArc
 50
90.0
 51
180.0
  0
LINE
  5
D6
100
AcDbEntity
100
AcDbLine
  8
0
 62
256
370
-1
  6
ByLayer
 10
119.0
 20
69.0
 30
0.0
 11
8.0
 21
69.0
 31
0.0
  0
ARC
  5
D7
100
AcDbEntity
  8
0
 62
256
370
-1
  6
ByLayer
100
AcDbCircle
 10
119.0
 20
61.0
 30
0.0
 40
8.0
100
AcDbArc
 50
0.0
 51
90.0
  0
LINE
  5
D8
100
AcDbEntity
100
AcDbLine
  8
0
 62
256
370
-1
  6
ByLayer
 10
127.0
 20
8.0
 30
0.0
 11
127.0
 21
61.0
 31
0.0
  0
ARC
  5
D9
100
AcDbEntity
  8
0
 62
256
370
-1
  6
ByLayer
100
AcDbCircle
 10
119.0
 20
8.0
 30
0.0
 40
8.0
100
AcDbArc
 50
270.0
 51
0.0
  0
LINE
  5
DA
100
AcDbEntity
100
AcDbLine
  8
0
 62
256
370
-1
  6
ByLayer
 10
8.0
 20
0.0
 30
0.0
 11
119.0
 21
0.0
 31
0.0
  0
LINE
  5
DB
100
AcDbEntity
100
AcDbLine
  8
0
 62
256
370
-1
  6
ByLayer
 10
0.0
 20
61.0
 30
0.0
 11
0.0
 21
8.0
 31
0.0
  0
ARC
  5
DC
100
AcDbEntity
  8
0
 62
256
370
-1
  6
ByLayer
100
AcDbCircle
 10
8.0
 20
8.0
 30
0.0
 40
8.0
100
AcDbArc
 50
180.0
 51
270.0
  0
CIRCLE
  5
DD
100
AcDbEntity
100
AcDbCircle
  8
0
 62
256
370
-1
  6
ByLayer
 10
120.0
 20
62.0
 30
0.0
 40
1.825
  0
CIRCLE
  5
DE
100
AcDbEntity
100
AcDbCircle
  8
0
 62
256
370
-1
  6
ByLayer
 10
120.0
 20
7.0
 30
0.0
 40
1.825
  0
CIRCLE
  5
DF
100
AcDbEntity
100
AcDbCircle
  8
0
 62
256
370
-1
  6
ByLayer
 10
7.0
 20
7.0
 30
0.0
 40
1.825
  0
CIRCLE
  5
E0
100
AcDbEntity
100
AcDbCircle
  8
0
 62
256
370
-1
  6
ByLayer
 10
7.0
 20
62.0
 30
0.0
 40
1.825
  0
LINE
  5
E1
100
AcDbEntity
100
AcDbLine
  8
rpi_mounting_holes
 62
256
370
-1
  6
ByLayer
 10
19.4336379090000015
 20
7.58355969621
 30
0.0
 11
104.433637908999998
 21
7.58355969621
 31
0.0
  0
CIRCLE
  5
E2
100
AcDbEntity
100
AcDbCircle
  8
rpi_mounting_holes
 62
256
370
-1
  6
ByLayer
 10
44.933637908999998
 20
25.5835596961999983
 30
0.0
 40
1.45
  0
CIRCLE
  5
E3
100
AcDbEntity
100
AcDbCircle
  8
rpi_mounting_holes
 62
256
370
-1
  6
ByLayer
 10
99.433637908999998
 20
51.0835596961999983
 30
0.0
 40
1.45
  0
LINE
  5
E4
100
AcDbEntity
100
AcDbLine
  8
rpi_mounting_holes
 62
256
370
-1
  6
ByLayer
 10
104.433637908999998
 20
63.7835596962000011
 30
0.0
 11
19.4336379090000015
 21
63.7835596962000011
 31
0.0
  0
LINE
  5
E5
100
AcDbEntity
100
AcDbLine
  8
rpi_mounting_holes
 62
256
370
-1
  6
ByLayer
 10
104.433637908999998
 20
7.58355969621
 30
0.0
 11
104.433637908999998
 21
63.7835596962000011
 31
0.0
  0
LINE
  5
E6
100
AcDbEntity
100
AcDbLine
  8
rpi_mounting_holes
 62
256
370
-1
  6
ByLayer
 10
19.4336379090000015
 20
63.7835596962000011
 30
0.0
 11
19.4336379090000015
 21
7.58355969621
 31
0.0
  0
INSERT
  5
E7
100
AcDbEntity
100
AcDbBlockReference
  8
rpi_outline
 62
256
370
-1
  6
ByLayer
  2
ibex_rpi_model_b_v1_00_correct_orientation-0
 10
19.4336379090000015
 20
7.58355969621
 30
0.0
  0
CIRCLE
  5
E8
100
AcDbEntity
100
AcDbCircle
  8
boardmounts
 62
256
370
-1
  6
ByLayer
 10
29.3874152176999992
 20
6.7835633370400004
 30
0.0
 40
4.1500000000000004
  0
CIRCLE
  5
E9
100
AcDbEntity
100
AcDbCircle
  8
boardmounts
 62
256
370
-1
  6
ByLayer
 10
29.3874152176999992
 20
6.7835633370400004
 30
0.0
 40
2.3999999999999999
  0
CIRCLE
  5
EA
100
AcDbEntity
100
AcDbCircle
  8
boardmounts
 62
256
370
-1
  6
ByLayer
 10
101.81329049
 20
6.7835633370400004
 30
0.0
 40
4.1500000000000004
  0
CIRCLE
  5
EB
100
AcDbEntity
100
AcDbCircle
  8
boardmounts
 62
256
370
-1
  6
ByLayer
 10
101.81329049
 20
6.7835633370400004
 30
0.0
 40
2.3999999999999999
  0
CIRCLE
  5
EC
100
AcDbEntity
100
AcDbCircle
  8
boardmounts
 62
256
370
-1
  6
ByLayer
 10
57.6372894021999969
 20
64.5835833369999932
 30
0.0
 40
4.1500000000000004
  0
CIRCLE
  5
ED
100
AcDbEntity
100
AcDbCircle
  8
boardmounts
 62
256
370
-1
  6
ByLayer
 10
57.6372894021999969
 20
64.5835833369999932
 30
0.0
 40
2.3999999999999999
  0
CIRCLE
  5
EE
100
AcDbEntity
100
AcDbCircle
  8
standoffs
 62
256
370
-1
  6
ByLayer
 10
120.0
 20
62.0
 30
0.0
 40
4.7999999999999998
  0
CIRCLE
  5
EF
100
AcDbEntity
100
AcDbCircle
  8
standoffs
 62
256
370
-1
  6
ByLayer
 10
7.0
 20
62.0
 30
0.0
 40
4.7999999999999998
  0
CIRCLE
  5
F0
100
AcDbEntity
100
AcDbCircle
  8
standoffs
 62
256
370
-1
  6
ByLayer
 10
120.0
 20
7.0
 30
0.0
 40
4.7999999999999998
  0
CIRCLE
  5
F1
100
AcDbEntity
100
AcDbCircle
  8
standoffs
 62
256
370
-1
  6
ByLayer
 10
7.0
 20
7.0
 30
0.0
 40
4.7999999999999998
  0
INSERT
  5
F2
100
AcDbEntity
100
AcDbBlockReference
  8
lcd
 62
256
370
-1
  6
ByLayer
  2
lcd
 10
13.1580260513922784
 20
0.869736928788
 30
0.0
  0
ENDSEC
  0
SECTION
  2
OBJECTS
  0
DICTIONARY
  5
C
100
AcDbDictionary
280
0
281
1
  3
ACAD_GROUP
350
D
  3
ACAD_LAYOUT
350
1A
  3
ACAD_MLINESTYLE
350
17
  3
ACAD_PLOTSETTINGS
350
19
  3
ACAD_PLOTSTYLENAME
350
E
  3
AcDbVariableDictionary
350
F3
  0
DICTIONARY
  5
D
100
AcDbDictionary
280
0
281
1
  0
ACDBDICTIONARYWDFLT
  5
E
100
AcDbDictionary
281
1
  3
Normal
350
F
100
AcDbDictionaryWithDefault
340
F
  0
ACDBPLACEHOLDER
  5
F
  0
DICTIONARY
  5
17
100
AcDbDictionary
280
0
281
1
  3
Standard
350
18
  0
MLINESTYLE
  5
18
100
AcDbMlineStyle
  2
STANDARD
 70
0
  3

 62
256
 51
90.0
 52
90.0
 71
2
 49
0.5
 62
256
  6
BYLAYER
 49
-0.5
 62
256
  6
BYLAYER
  0
DICTIONARY
  5
19
100
AcDbDictionary
280
0
281
1
  0
DICTIONARY
  5
1A
100
AcDbDictionary
281
1
  3
Layout1
350
1E
  3
Layout2
350
26
  3
Model
350
22
  0
LAYOUT
  5
1E
100
AcDbPlotSettings
  1

  2
C:\Program Files\AutoCAD 2002\plotters\DWF ePlot (optimized for plotting).pc3
  4

  6

 40
0.0
 41
0.0
 42
0.0
 43
0.0
 44
0.0
 45
0.0
 46
0.0
 47
0.0
 48
0.0
 49
0.0
140
0.0
141
0.0
142
1.0
143
1.0
 70
688
 72
0
 73
0
 74
5
  7

 75
16
147
1.0
148
0.0
149
0.0
100
AcDbLayout
  1
Layout1
 70
1
 71
1
 10
0.0
 20
0.0
 11
420.0
 21
297.0
 12
0.0
 22
0.0
 32
0.0
 14
100000000000000000000.0
 24
100000000000000000000.0
 34
100000000000000000000.0
 15
-100000000000000000000.0
 25
-100000000000000000000.0
 35
-100000000000000000000.0
146
0.0
 13
0.0
 23
0.0
 33
0.0
 16
1.0
 26
0.0
 36
0.0
 17
0.0
 27
1.0
 37
0.0
 76
0
330
1B
  0
LAYOUT
  5
22
100
AcDbPlotSettings
  1

  2
C:\Program Files\AutoCAD 2002\plotters\DWF ePlot (optimized for plotting).pc3
  4

  6

 40
0.0
 41
0.0
 42
0.0
 43
0.0
 44
0.0
 45
0.0
 46
0.0
 47
0.0
 48
0.0
 49
0.0
140
0.0
141
0.0
142
1.0
143
1.0
 70
1712
 72
0
 73
0
 74
0
  7

 75
0
147
1.0
148
0.0
149
0.0
100
AcDbLayout
  1
Model
 70
1
 71
0
 10
0.0
 20
0.0
 11
12.0
 21
9.0
 12
0.0
 22
0.0
 32
0.0
 14
0.0
 24
0.0
 34
0.0
 15
0.0
 25
0.0
 35
0.0
146
0.0
 13
0.0
 23
0.0
 33
0.0
 16
1.0
 26
0.0
 36
0.0
 17
0.0
 27
1.0
 37
0.0
 76
0
330
1F
  0
LAYOUT
  5
26
100
AcDbPlotSettings
  1

  2
C:\Program Files\AutoCAD 2002\plotters\DWF ePlot (optimized for plotting).pc3
  4

  6

 40
0.0
 41
0.0
 42
0.0
 43
0.0
 44
0.0
 45
0.0
 46
0.0
 47
0.0
 48
0.0
 49
0.0
140
0.0
141
0.0
142
1.0
143
1.0
 70
688
 72
0
 73
0
 74
5
  7

 75
16
147
1.0
148
0.0
149
0.0
100
AcDbLayout
  1
Layout2
 70
1
 71
2
 10
0.0
 20
0.0
 11
12.0
 21
9.0
 12
0.0
 22
0.0
 32
0.0
 14
0.0
 24
0.0
 34
0.0
 15
0.0
 25
0.0
 35
0.0
146
0.0
 13
0.0
 23
0.0
 33
0.0
 16
1.0
 26
0.0
 36
0.0
 17
0.0
 27
1.0
 37
0.0
 76
0
330
23
  0
DICTIONARY
  5
F3
100
AcDbDictionary
281
1
  3
DIMASSOC
350
F5
  3
HIDETEXT
350
F4
  0
DICTIONARYVAR
  5
F4
100
DictionaryVariables
280
0
  1
2
  0
DICTIONARYVAR
  5
F5
100
DictionaryVariables
280
0
  1
1
  0
IMAGEDEF
  5
D4
100
AcDbRasterImageDef
 90
0
  1
/home/dhovemey/git/carpi/enclosure/ibex_rpi_model_b_v1_00.dxf
 10
1.0
 20
1.0
 11
1.0
 21
1.0
280
1
281
0
  0
ENDSEC
  0
EOF
