999
dxfrw 0.5.10
0
SECTION
2
HEADER
9
$ACADVER
1
AC1021
9
$HANDSEED
5
20000
9
$DWGCODEPAGE
3
ANSI_1252
9
$INSBASE
10
0
20
0
30
0
9
$EXTMIN
10
42.96
20
41.159999
30
0
9
$EXTMAX
10
153.484999
20
105.61
30
0
9
$LIMMIN
10
43.2224995
20
41.0599989985
9
$LIMMAX
10
2855.63747418
20
1683.17002447
9
$ORTHOMODE
70
0
9
$LTSCALE
40
1
9
$TEXTSTYLE
7
STANDARD
9
$DIMASZ
40
0.18
9
$DIMSCALE
40
1
9
$DIMEXO
40
0.0625
9
$DIMEXE
40
0.18
9
$DIMTXT
40
0.18
9
$DIMTSZ
40
0
9
$DIMAUNIT
70
0
9
$DIMADEC
70
0
9
$DIMLUNIT
70
2
9
$DIMSTYLE
2
STANDARD
9
$DIMGAP
40
0.09
9
$DIMTIH
70
1
9
$LUNITS
70
2
9
$LUPREC
70
4
9
$AUNITS
70
0
9
$AUPREC
70
0
9
$SPLINESEGS
70
8
9
$GRIDMODE
70
0
9
$SNAPSTYLE
70
0
9
$PINSBASE
10
0
20
0
30
0
9
$PLIMMIN
10
0
20
0
9
$PLIMMAX
10
12
20
9
9
$INSUNITS
70
4
9
$PSVPSCALE
40
1
0
ENDSEC
0
SECTION
2
CLASSES
0
ENDSEC
0
SECTION
2
TABLES
0
TABLE
2
VPORT
5
8
330
0
100
AcDbSymbolTable
70
1
0
VPORT
5
31
330
2
100
AcDbSymbolTableRecord
100
AcDbViewportTableRecord
2
*ACTIVE
70
0
10
0
20
0
11
1
21
1
12
137.57312282
22
67.6145754356
13
0
23
0
14
10
24
10
15
10
25
10
16
0
26
0
36
1
17
0
27
0
37
0
40
213.481752842
41
2.11317567568
42
50
43
0
44
0
50
0
51
0
71
0
72
100
73
1
74
3
75
0
76
0
77
0
78
0
281
0
65
1
110
0
120
0
130
0
111
1
121
0
131
0
112
0
122
1
132
0
79
0
146
0
348
10020
60
7
61
5
292
1
282
1
141
0
142
0
63
250
421
3358443
0
ENDTAB
0
TABLE
2
LTYPE
5
5
330
0
100
AcDbSymbolTable
70
4
0
LTYPE
5
14
330
5
100
AcDbSymbolTableRecord
100
AcDbLinetypeTableRecord
2
ByBlock
70
0
3

72
65
73
0
40
0
0
LTYPE
5
15
330
5
100
AcDbSymbolTableRecord
100
AcDbLinetypeTableRecord
2
ByLayer
70
0
3

72
65
73
0
40
0
0
LTYPE
5
16
330
5
100
AcDbSymbolTableRecord
100
AcDbLinetypeTableRecord
2
Continuous
70
0
3
Solid line
72
65
73
0
40
0
0
LTYPE
5
32
330
5
100
AcDbSymbolTableRecord
100
AcDbLinetypeTableRecord
2
DOT
70
0
3
Dot . . . . . . . . . . . . . . . . . . . . . .
72
65
73
2
40
6.35
49
0
74
0
49
-6.35
74
0
0
LTYPE
5
33
330
5
100
AcDbSymbolTableRecord
100
AcDbLinetypeTableRecord
2
DOT2
70
0
3
Dot (.5x) .....................................
72
65
73
2
40
3.175
49
0
74
0
49
-3.175
74
0
0
LTYPE
5
34
330
5
100
AcDbSymbolTableRecord
100
AcDbLinetypeTableRecord
2
DOTX2
70
0
3
Dot (2x) .  .  .  .  .  .  .  .  .  .  .  .  .
72
65
73
2
40
12.7
49
0
74
0
49
-12.7
74
0
0
LTYPE
5
35
330
5
100
AcDbSymbolTableRecord
100
AcDbLinetypeTableRecord
2
DASHED
70
0
3
Dot . . . . . . . . . . . . . . . . . . . . . .
72
65
73
2
40
19.05
49
12.7
74
0
49
-6.35
74
0
0
LTYPE
5
36
330
5
100
AcDbSymbolTableRecord
100
AcDbLinetypeTableRecord
2
DASHED2
70
0
3
Dashed (.5x) _ _ _ _ _ _ _ _ _ _ _ _ _ _ _ _ _
72
65
73
2
40
9.525
49
6.35
74
0
49
-3.175
74
0
0
LTYPE
5
37
330
5
100
AcDbSymbolTableRecord
100
AcDbLinetypeTableRecord
2
DASHEDX2
70
0
3
Dashed (2x) ____  ____  ____  ____  ____  ___
72
65
73
2
40
38.1
49
25.4
74
0
49
-12.7
74
0
0
LTYPE
5
38
330
5
100
AcDbSymbolTableRecord
100
AcDbLinetypeTableRecord
2
DASHDOT
70
0
3
Dash dot __ . __ . __ . __ . __ . __ . __ . __
72
65
73
4
40
25.4
49
12.7
74
0
49
-6.35
74
0
49
0
74
0
49
-6.35
74
0
0
LTYPE
5
39
330
5
100
AcDbSymbolTableRecord
100
AcDbLinetypeTableRecord
2
DASHDOT2
70
0
3
Dash dot (.5x) _._._._._._._._._._._._._._._.
72
65
73
4
40
12.7
49
6.35
74
0
49
-3.175
74
0
49
0
74
0
49
-3.175
74
0
0
LTYPE
5
3A
330
5
100
AcDbSymbolTableRecord
100
AcDbLinetypeTableRecord
2
DASHDOTX2
70
0
3
Dash dot (2x) ____  .  ____  .  ____  .  ___
72
65
73
4
40
50.8
49
25.4
74
0
49
-12.7
74
0
49
0
74
0
49
-12.7
74
0
0
LTYPE
5
3B
330
5
100
AcDbSymbolTableRecord
100
AcDbLinetypeTableRecord
2
DIVIDE
70
0
3
Divide ____ . . ____ . . ____ . . ____ . . ____
72
65
73
6
40
31.75
49
12.7
74
0
49
-6.35
74
0
49
0
74
0
49
-6.35
74
0
49
0
74
0
49
-6.35
74
0
0
LTYPE
5
3C
330
5
100
AcDbSymbolTableRecord
100
AcDbLinetypeTableRecord
2
DIVIDE2
70
0
3
Divide (.5x) __..__..__..__..__..__..__..__.._
72
65
73
6
40
15.875
49
6.35
74
0
49
-3.175
74
0
49
0
74
0
49
-3.175
74
0
49
0
74
0
49
-3.175
74
0
0
LTYPE
5
3D
330
5
100
AcDbSymbolTableRecord
100
AcDbLinetypeTableRecord
2
DIVIDEX2
70
0
3
Divide (2x) ________  .  .  ________  .  .  _
72
65
73
6
40
63.5
49
25.4
74
0
49
-12.7
74
0
49
0
74
0
49
-12.7
74
0
49
0
74
0
49
-12.7
74
0
0
LTYPE
5
3E
330
5
100
AcDbSymbolTableRecord
100
AcDbLinetypeTableRecord
2
BORDER
70
0
3
Border __ __ . __ __ . __ __ . __ __ . __ __ .
72
65
73
6
40
44.45
49
12.7
74
0
49
-6.35
74
0
49
12.7
74
0
49
-6.35
74
0
49
0
74
0
49
-6.35
74
0
0
LTYPE
5
3F
330
5
100
AcDbSymbolTableRecord
100
AcDbLinetypeTableRecord
2
BORDER2
70
0
3
Border (.5x) __.__.__.__.__.__.__.__.__.__.__.
72
65
73
6
40
22.225
49
6.35
74
0
49
-3.175
74
0
49
6.35
74
0
49
-3.175
74
0
49
0
74
0
49
-3.175
74
0
0
LTYPE
5
40
330
5
100
AcDbSymbolTableRecord
100
AcDbLinetypeTableRecord
2
BORDERX2
70
0
3
Border (2x) ____  ____  .  ____  ____  .  ___
72
65
73
6
40
88.9
49
25.4
74
0
49
-12.7
74
0
49
25.4
74
0
49
-12.7
74
0
49
0
74
0
49
-12.7
74
0
0
LTYPE
5
41
330
5
100
AcDbSymbolTableRecord
100
AcDbLinetypeTableRecord
2
CENTER
70
0
3
Center ____ _ ____ _ ____ _ ____ _ ____ _ ____
72
65
73
4
40
50.8
49
31.75
74
0
49
-6.35
74
0
49
6.35
74
0
49
-6.35
74
0
0
LTYPE
5
42
330
5
100
AcDbSymbolTableRecord
100
AcDbLinetypeTableRecord
2
CENTER2
70
0
3
Center (.5x) ___ _ ___ _ ___ _ ___ _ ___ _ ___
72
65
73
4
40
28.575
49
19.05
74
0
49
-3.175
74
0
49
3.175
74
0
49
-3.175
74
0
0
LTYPE
5
43
330
5
100
AcDbSymbolTableRecord
100
AcDbLinetypeTableRecord
2
CENTERX2
70
0
3
Center (2x) ________  __  ________  __  _____
72
65
73
4
40
101.6
49
63.5
74
0
49
-12.7
74
0
49
12.7
74
0
49
-12.7
74
0
0
ENDTAB
0
TABLE
2
LAYER
5
2
330
0
100
AcDbSymbolTable
70
1
0
LAYER
5
10
330
2
100
AcDbSymbolTableRecord
100
AcDbLayerTableRecord
2
0
70
0
62
256
6
CONTINUOUS
370
-3
390
F
0
LAYER
5
44
330
2
100
AcDbSymbolTableRecord
100
AcDbLayerTableRecord
2
TOPOVERLAY
70
0
62
222
6
CONTINUOUS
370
-3
390
F
0
ENDTAB
0
TABLE
2
STYLE
5
3
330
0
100
AcDbSymbolTable
70
3
0
STYLE
5
45
330
2
100
AcDbSymbolTableRecord
100
AcDbTextStyleTableRecord
2
standard
70
0
40
0
41
1
50
0
71
0
42
1
3
standard
4

0
ENDTAB
0
TABLE
2
VIEW
5
6
330
0
100
AcDbSymbolTable
70
0
0
ENDTAB
0
TABLE
2
UCS
5
7
330
0
100
AcDbSymbolTable
70
0
0
ENDTAB
0
TABLE
2
APPID
5
9
330
0
100
AcDbSymbolTable
70
1
0
APPID
5
12
330
9
100
AcDbSymbolTableRecord
100
AcDbRegAppTableRecord
2
ACAD
70
0
0
ENDTAB
0
TABLE
2
DIMSTYLE
5
A
330
0
100
AcDbSymbolTable
70
1
100
AcDbDimStyleTable
71
1
0
DIMSTYLE
105
46
330
A
100
AcDbSymbolTableRecord
100
AcDbDimStyleTableRecord
2
Standard
70
0
40
1
41
0.18
42
0.0625
43
0.38
44
0.18
45
0
46
0
47
0
48
0
140
0.18
141
0.09
142
0
143
25.4
144
1
145
0
146
1
147
0.09
148
0
71
0
72
0
73
0
74
1
75
0
76
0
77
0
78
0
79
0
170
0
171
2
172
0
173
0
174
0
175
0
176
0
177
0
178
0
179
0
271
4
272
4
273
2
274
2
275
0
276
0
277
2
278
46
279
0
280
0
281
0
282
0
283
1
284
0
285
0
286
0
288
0
289
3
340
Standard
341

371
-2
372
-2
0
ENDTAB
0
TABLE
2
BLOCK_RECORD
5
1
330
0
100
AcDbSymbolTable
70
2
0
BLOCK_RECORD
5
1F
330
1
100
AcDbSymbolTableRecord
100
AcDbBlockTableRecord
2
*Model_Space
70
0
280
1
281
0
0
BLOCK_RECORD
5
1E
330
1
100
AcDbSymbolTableRecord
100
AcDbBlockTableRecord
2
*Paper_Space
70
0
280
1
281
0
0
ENDTAB
0
ENDSEC
0
SECTION
2
BLOCKS
0
BLOCK
5
20
330
1F
100
AcDbEntity
8
0
100
AcDbBlockBegin
2
*Model_Space
70
0
10
0
20
0
30
0
3
*Model_Space
1

0
ENDBLK
5
21
330
1F
100
AcDbEntity
8
0
100
AcDbBlockEnd
0
BLOCK
5
1C
330
1B
100
AcDbEntity
8
0
100
AcDbBlockBegin
2
*Paper_Space
70
0
10
0
20
0
30
0
3
*Paper_Space
1

0
ENDBLK
5
1D
330
1F
100
AcDbEntity
8
0
100
AcDbBlockEnd
0
ENDSEC
0
SECTION
2
ENTITIES
0
LINE
5
47
100
AcDbEntity
8
TOPOVERLAY
6
ByLayer
62
256
370
-1
100
AcDbLine
10
9.79363079523e-09
20
-1.12350946324e-08
11
85.0000000098
21
-1.12350946324e-08
0
LINE
5
48
100
AcDbEntity
8
TOPOVERLAY
6
ByLayer
62
256
370
-1
100
AcDbLine
10
9.79363079523e-09
20
56.1999989888
11
85.0000000098
21
56.1999989888
0
LINE
5
49
100
AcDbEntity
8
TOPOVERLAY
6
ByLayer
62
256
370
-1
100
AcDbLine
10
0.629999009794
20
6.11999998876
11
33.6499990098
21
6.11999998876
0
LINE
5
4A
100
AcDbEntity
8
TOPOVERLAY
6
ByLayer
62
256
370
-1
100
AcDbLine
10
61.1500000098
20
-3.90000001124
11
68.2249990098
21
-3.90000001124
0
LINE
5
4B
100
AcDbEntity
8
TOPOVERLAY
6
ByLayer
62
256
370
-1
100
AcDbLine
10
58.5000000098
20
-0.375001011235
11
70.7749990098
21
-0.375001011235
0
LINE
5
4C
100
AcDbEntity
8
TOPOVERLAY
6
ByLayer
62
256
370
-1
100
AcDbLine
10
0.629999009794
20
1.03999998876
11
33.6499990098
21
1.03999998876
0
LINE
5
4D
100
AcDbEntity
8
TOPOVERLAY
6
ByLayer
62
256
370
-1
100
AcDbLine
10
85.0000000098
20
18.5249999888
11
92.5249990098
21
18.5249999888
0
LINE
5
4E
100
AcDbEntity
8
TOPOVERLAY
6
ByLayer
62
256
370
-1
100
AcDbLine
10
85.0000000098
20
31.8499999888
11
92.5249990098
21
31.8499999888
0
LINE
5
4F
100
AcDbEntity
8
TOPOVERLAY
6
ByLayer
62
256
370
-1
100
AcDbLine
10
41.8500000098
20
-7.10000101124
11
50.1250000098
21
-7.10000101124
0
LINE
5
50
100
AcDbEntity
8
TOPOVERLAY
6
ByLayer
62
256
370
-1
100
AcDbLine
10
54.3949990098
20
11.3899999888
11
56.9349990098
21
11.3899999888
0
LINE
5
51
100
AcDbEntity
8
TOPOVERLAY
6
ByLayer
62
256
370
-1
100
AcDbLine
10
54.3949990098
20
26.6299999888
11
56.9349990098
21
26.6299999888
0
LINE
5
52
100
AcDbEntity
8
TOPOVERLAY
6
ByLayer
62
256
370
-1
100
AcDbLine
10
54.3949990098
20
29.1699999888
11
56.9349990098
21
29.1699999888
0
LINE
5
53
100
AcDbEntity
8
TOPOVERLAY
6
ByLayer
62
256
370
-1
100
AcDbLine
10
37.0750010098
20
57.3499999888
11
52.0000000098
21
57.3499999888
0
LINE
5
54
100
AcDbEntity
8
TOPOVERLAY
6
ByLayer
62
256
370
-1
100
AcDbLine
10
-17.9999999902
20
13.7749989888
11
-0.0249989902064
21
13.7749989888
0
LINE
5
55
100
AcDbEntity
8
TOPOVERLAY
6
ByLayer
62
256
370
-1
100
AcDbLine
10
-17.9999999902
20
38.0249989888
11
9.79363079523e-09
21
38.0249989888
0
LINE
5
56
100
AcDbEntity
8
TOPOVERLAY
6
ByLayer
62
256
370
-1
100
AcDbLine
10
9.79363079523e-09
20
-1.12350946324e-08
11
9.79363079523e-09
21
56.1999989888
0
LINE
5
57
100
AcDbEntity
8
TOPOVERLAY
6
ByLayer
62
256
370
-1
100
AcDbLine
10
56.9349990098
20
11.3899999888
11
56.9349990098
21
29.1699999888
0
LINE
5
58
100
AcDbEntity
8
TOPOVERLAY
6
ByLayer
62
256
370
-1
100
AcDbLine
10
-0.750000990206
20
44.7250009888
11
9.79363079523e-09
21
44.7250009888
0
LINE
5
59
100
AcDbEntity
8
TOPOVERLAY
6
ByLayer
62
256
370
-1
100
AcDbLine
10
85.0000000098
20
38.1250009888
11
86.0000010098
21
38.1250009888
0
LINE
5
5A
100
AcDbEntity
8
TOPOVERLAY
6
ByLayer
62
256
370
-1
100
AcDbLine
10
85.0000000098
20
53.8999989888
11
86.0000010098
21
53.8999989888
0
LINE
5
5B
100
AcDbEntity
8
TOPOVERLAY
6
ByLayer
62
256
370
-1
100
AcDbLine
10
51.8549990098
20
8.84999998876
11
54.3949990098
21
8.84999998876
0
LINE
5
5C
100
AcDbEntity
8
TOPOVERLAY
6
ByLayer
62
256
370
-1
100
AcDbLine
10
51.8549990098
20
26.6299999888
11
54.3949990098
21
26.6299999888
0
LINE
5
5D
100
AcDbEntity
8
TOPOVERLAY
6
ByLayer
62
256
370
-1
100
AcDbLine
10
51.8549990098
20
29.1699999888
11
54.3949990098
21
29.1699999888
0
LINE
5
5E
100
AcDbEntity
8
TOPOVERLAY
6
ByLayer
62
256
370
-1
100
AcDbLine
10
-0.750000990206
20
52.3250009888
11
9.79363079523e-09
21
52.3250009888
0
LINE
5
5F
100
AcDbEntity
8
TOPOVERLAY
6
ByLayer
62
256
370
-1
100
AcDbLine
10
92.5249990098
20
18.5249999888
11
92.5249990098
21
31.8499999888
0
LINE
5
60
100
AcDbEntity
8
TOPOVERLAY
6
ByLayer
62
256
370
-1
100
AcDbLine
10
85.0000000098
20
-1.12350946324e-08
11
85.0000000098
21
56.1999989888
0
LINE
5
61
100
AcDbEntity
8
TOPOVERLAY
6
ByLayer
62
256
370
-1
100
AcDbLine
10
50.1250000098
20
-7.10000101124
11
50.1250000098
21
-1.12350946324e-08
0
LINE
5
62
100
AcDbEntity
8
TOPOVERLAY
6
ByLayer
62
256
370
-1
100
AcDbLine
10
41.8500000098
20
-7.10000101124
11
41.8500000098
21
-1.12350946324e-08
0
LINE
5
63
100
AcDbEntity
8
TOPOVERLAY
6
ByLayer
62
256
370
-1
100
AcDbLine
10
-17.9999999902
20
13.7749989888
11
-17.9999999902
21
38.0249989888
0
LINE
5
64
100
AcDbEntity
8
TOPOVERLAY
6
ByLayer
62
256
370
-1
100
AcDbLine
10
86.0000010098
20
38.1250009888
11
86.0000010098
21
53.8999989888
0
LINE
5
65
100
AcDbEntity
8
TOPOVERLAY
6
ByLayer
62
256
370
-1
100
AcDbLine
10
54.3949990098
20
11.3899999888
11
54.3949990098
21
29.1699999888
0
LINE
5
66
100
AcDbEntity
8
TOPOVERLAY
6
ByLayer
62
256
370
-1
100
AcDbLine
10
54.3949990098
20
8.84999998876
11
54.3949990098
21
29.1699999888
0
LINE
5
67
100
AcDbEntity
8
TOPOVERLAY
6
ByLayer
62
256
370
-1
100
AcDbLine
10
51.8549990098
20
8.84999998876
11
51.8549990098
21
29.1699999888
0
LINE
5
68
100
AcDbEntity
8
TOPOVERLAY
6
ByLayer
62
256
370
-1
100
AcDbLine
10
33.6499990098
20
1.03999998876
11
33.6499990098
21
6.11999998876
0
LINE
5
69
100
AcDbEntity
8
TOPOVERLAY
6
ByLayer
62
256
370
-1
100
AcDbLine
10
0.629999009794
20
1.03999998876
11
0.629999009794
21
6.11999998876
0
LINE
5
6A
100
AcDbEntity
8
TOPOVERLAY
6
ByLayer
62
256
370
-1
100
AcDbLine
10
-0.750000990206
20
44.7250009888
11
-0.750000990206
21
52.3250009888
0
LINE
5
6B
100
AcDbEntity
8
TOPOVERLAY
6
ByLayer
62
256
370
-1
100
AcDbLine
10
70.7749990098
20
-0.375001011235
11
70.7749990098
21
-1.12350946324e-08
0
LINE
5
6C
100
AcDbEntity
8
TOPOVERLAY
6
ByLayer
62
256
370
-1
100
AcDbLine
10
68.2249990098
20
-3.90000001124
11
68.2249990098
21
-0.375001011235
0
LINE
5
6D
100
AcDbEntity
8
TOPOVERLAY
6
ByLayer
62
256
370
-1
100
AcDbLine
10
61.1500000098
20
-3.90000001124
11
61.1500000098
21
-0.375001011235
0
LINE
5
6E
100
AcDbEntity
8
TOPOVERLAY
6
ByLayer
62
256
370
-1
100
AcDbLine
10
58.5000000098
20
-0.375001011235
11
58.5000000098
21
-1.12350946324e-08
0
LINE
5
6F
100
AcDbEntity
8
TOPOVERLAY
6
ByLayer
62
256
370
-1
100
AcDbLine
10
52.0000000098
20
56.1999989888
11
52.0000000098
21
57.3499999888
0
LINE
5
70
100
AcDbEntity
8
TOPOVERLAY
6
ByLayer
62
256
370
-1
100
AcDbLine
10
37.0750010098
20
56.1999989888
11
37.0750010098
21
57.3499999888
0
TEXT
5
71
100
AcDbEntity
8
TOPOVERLAY
6
CONTINUOUS
62
256
370
-1
100
AcDbText
10
34.6750000098
20
1.62500098876
30
0
40
0.750001001358
1
26
50
90
41
1
51
0
7
standard
71
0
210
0
220
0
230
1
100
AcDbText
0
TEXT
5
72
100
AcDbEntity
8
TOPOVERLAY
6
CONTINUOUS
62
256
370
-1
100
AcDbText
10
34.6750000098
20
4.22499998876
30
0
40
0.750001001358
1
25
50
90
41
1
51
0
7
standard
71
0
210
0
220
0
230
1
100
AcDbText
0
TEXT
5
73
100
AcDbEntity
8
TOPOVERLAY
6
CONTINUOUS
62
256
370
-1
100
AcDbText
10
2.30000000979
20
0.249998988765
30
0
40
0.750001001358
1
2
50
90
41
1
51
0
7
standard
71
0
210
0
220
0
230
1
100
AcDbText
0
TEXT
5
74
100
AcDbEntity
8
TOPOVERLAY
6
CONTINUOUS
62
256
370
-1
100
AcDbText
10
2.22499900979
20
6.52500098876
30
0
40
0.750001001358
1
1
50
90
41
1
51
0
7
standard
71
0
210
0
220
0
230
1
100
AcDbText
0
ENDSEC
0
SECTION
2
OBJECTS
0
DICTIONARY
5
C
330
0
100
AcDbDictionary
281
1
3
ACAD_GROUP
350
D
0
DICTIONARY
5
D
330
C
100
AcDbDictionary
281
1
0
ENDSEC
0
EOF
